{
copyright = "Copyright (c) 2014, Impallari Type (www.impallari.com), with Reserved Font Name Libre Clarendon.";
customParameters = (
{
name = openTypeOS2Type;
value = (
);
},
{
name = licenseURL;
value = "http://scripts.sil.org/OFL";
},
{
name = license;
value = "This Font Software is licensed under the SIL Open Font License, Version 1.1. This license is available with a FAQ at: http://scripts.sil.org/OFL";
},
{
name = trademark;
value = "Libre Clarendon is a trademark of Impallari Type.";
},
{
name = description;
value = "Libre Clarendon fonts in 20 Styles. 4 Widths (Condensed Narrow Normal Wide) in 5 weigths each (Ligth Regular Medium Bold and Black).\012An integrated and comprehensive Clarendon family in a wide range of weights and widths that can be used for both Text and Display settings. Loosely based in 1874 Fann Street Foundry Specimens.";
},
{
name = vendorID;
value = IMPA;
}
);
date = "2015-03-30 14:40:43 +0000";
designer = "Pablo Impallari, Rodrigo Fuenzalida";
designerURL = "http://www.impallari.com/";
familyName = "Libre Clarendon";
fontMaster = (
{
alignmentZones = (
"{665, 10}",
"{450, 10}",
"{0, -10}",
"{-216, -10}"
);
ascender = 665;
capHeight = 630;
customParameters = (
{
name = typoAscender;
value = "924";
},
{
name = typoDescender;
value = "-326";
},
{
name = typoLineGap;
value = "0";
},
{
name = winAscent;
value = "924";
},
{
name = winDescent;
value = "-326";
}
);
descender = "-216";
horizontalStems = (
35
);
id = "E9E6D55E-9446-45F2-B66C-3272698B0216";
verticalStems = (
40
);
weight = Light;
weightValue = 40;
width = Condensed;
xHeight = 450;
},
{
alignmentZones = (
"{665, 10}",
"{450, 10}",
"{0, -10}",
"{-216, -10}"
);
ascender = 665;
capHeight = 630;
customParameters = (
{
name = typoAscender;
value = "924";
},
{
name = typoDescender;
value = "-326";
},
{
name = typoLineGap;
value = "0";
},
{
name = winAscent;
value = "924";
},
{
name = winDescent;
value = "-326";
}
);
descender = "-216";
horizontalStems = (
95
);

glyphs = (
{
glyphname = a;
lastChange = "2015-03-30 02:20:47 +0000";
layers = (
{
background = {
paths = (
{
closed = 1;
nodes = (
"294 -10 OFFCURVE",
"348 18 OFFCURVE",
"386 78 CURVE",
"390 78 LINE",
"391 24 OFFCURVE",
"425 -10 OFFCURVE",
"480 -10 CURVE SMOOTH",
"543 -10 OFFCURVE",
"572 31 OFFCURVE",
"572 121 CURVE SMOOTH",
"572 138 OFFCURVE",
"571 139 OFFCURVE",
"571 148 CURVE",
"538 148 LINE",
"538 140 OFFCURVE",
"539 137 OFFCURVE",
"539 123 CURVE SMOOTH",
"539 58 OFFCURVE",
"527 24 OFFCURVE",
"480 24 CURVE SMOOTH",
"448 24 OFFCURVE",
"431 45 OFFCURVE",
"431 85 CURVE SMOOTH",
"431 343 LINE SMOOTH",
"431 416 OFFCURVE",
"367 460 OFFCURVE",
"260 460 CURVE SMOOTH",
"149 460 OFFCURVE",
"73 408 OFFCURVE",
"73 332 CURVE SMOOTH",
"73 297 OFFCURVE",
"89 276 OFFCURVE",
"116 276 CURVE SMOOTH",
"137 276 OFFCURVE",
"152 289 OFFCURVE",
"152 307 CURVE SMOOTH",
"152 337 OFFCURVE",
"123 337 OFFCURVE",
"123 362 CURVE SMOOTH",
"123 395 OFFCURVE",
"188 425 OFFCURVE",
"261 425 CURVE SMOOTH",
"343 425 OFFCURVE",
"387 394 OFFCURVE",
"387 337 CURVE SMOOTH",
"387 305 LINE SMOOTH",
"387 280 OFFCURVE",
"381 270 OFFCURVE",
"364 269 CURVE",
"229 250 LINE SMOOTH",
"104 232 OFFCURVE",
"53 192 OFFCURVE",
"53 113 CURVE SMOOTH",
"53 32 OFFCURVE",
"109 -10 OFFCURVE",
"215 -10 CURVE SMOOTH"
);
},
{
closed = 1;
nodes = (
"140 25 OFFCURVE",
"98 53 OFFCURVE",
"98 111 CURVE SMOOTH",
"98 174 OFFCURVE",
"144 205 OFFCURVE",
"250 219 CURVE SMOOTH",
"387 237 LINE",
"387 199 LINE SMOOTH",
"387 93 OFFCURVE",
"312 25 OFFCURVE",
"218 25 CURVE SMOOTH"
);
}
);
};
layerId = UUID0;
name = "Light Extended";
paths = (
{
closed = 1;
nodes = (
"288 -10 OFFCURVE",
"341 18 OFFCURVE",
"379 78 CURVE",
"382 78 LINE",
"384 24 OFFCURVE",
"417 -10 OFFCURVE",
"471 -10 CURVE SMOOTH",
"533 -10 OFFCURVE",
"562 31 OFFCURVE",
"562 121 CURVE SMOOTH",
"562 138 OFFCURVE",
"561 139 OFFCURVE",
"561 148 CURVE",
"528 148 LINE",
"528 140 OFFCURVE",
"529 137 OFFCURVE",
"529 123 CURVE SMOOTH",
"529 58 OFFCURVE",
"518 24 OFFCURVE",
"471 24 CURVE SMOOTH",
"440 24 OFFCURVE",
"423 45 OFFCURVE",
"423 85 CURVE SMOOTH",
"423 343 LINE SMOOTH",
"423 416 OFFCURVE",
"360 460 OFFCURVE",
"255 460 CURVE SMOOTH",
"146 460 OFFCURVE",
"71 408 OFFCURVE",
"71 332 CURVE SMOOTH",
"71 297 OFFCURVE",
"86 276 OFFCURVE",
"113 276 CURVE SMOOTH",
"134 276 OFFCURVE",
"149 289 OFFCURVE",
"149 307 CURVE SMOOTH",
"149 337 OFFCURVE",
"120 337 OFFCURVE",
"120 362 CURVE SMOOTH",
"120 395 OFFCURVE",
"184 425 OFFCURVE",
"256 425 CURVE SMOOTH",
"336 425 OFFCURVE",
"379 394 OFFCURVE",
"379 337 CURVE SMOOTH",
"379 305 LINE SMOOTH",
"379 280 OFFCURVE",
"373 270 OFFCURVE",
"356 269 CURVE",
"224 250 LINE SMOOTH",
"101 232 OFFCURVE",
"51 192 OFFCURVE",
"51 113 CURVE SMOOTH",
"51 32 OFFCURVE",
"106 -10 OFFCURVE",
"210 -10 CURVE SMOOTH"
);
},
{
closed = 1;
nodes = (
"137 25 OFFCURVE",
"96 53 OFFCURVE",
"96 111 CURVE SMOOTH",
"96 174 OFFCURVE",
"141 205 OFFCURVE",
"245 219 CURVE SMOOTH",
"379 237 LINE",
"379 199 LINE SMOOTH",
"379 93 OFFCURVE",
"306 25 OFFCURVE",
"214 25 CURVE SMOOTH"
);
}
);
width = 564;
},
{
background = {
paths = (
{
closed = 1;
nodes = (
"262 -10 OFFCURVE",
"324 19 OFFCURVE",
"362 75 CURVE",
"366 75 LINE",
"373 22 OFFCURVE",
"417 -10 OFFCURVE",
"483 -10 CURVE SMOOTH",
"566 -10 OFFCURVE",
"609 40 OFFCURVE",
"609 137 CURVE SMOOTH",
"609 167 OFFCURVE",
"609 168 OFFCURVE",
"608 175 CURVE",
"539 175 LINE",
"540 171 OFFCURVE",
"540 170 OFFCURVE",
"540 142 CURVE SMOOTH",
"540 111 OFFCURVE",
"526 93 OFFCURVE",
"502 93 CURVE SMOOTH",
"483 93 OFFCURVE",
"473 105 OFFCURVE",
"473 128 CURVE SMOOTH",
"473 300 LINE SMOOTH",
"473 404 OFFCURVE",
"402 460 OFFCURVE",
"269 460 CURVE SMOOTH",
"138 460 OFFCURVE",
"50 406 OFFCURVE",
"50 325 CURVE SMOOTH",
"50 278 OFFCURVE",
"80 248 OFFCURVE",
"125 248 CURVE SMOOTH",
"162 248 OFFCURVE",
"185 267 OFFCURVE",
"185 298 CURVE SMOOTH",
"185 326 OFFCURVE",
"165 327 OFFCURVE",
"165 343 CURVE SMOOTH",
"165 365 OFFCURVE",
"205 383 OFFCURVE",
"258 383 CURVE SMOOTH",
"316 383 OFFCURVE",
"343 362 OFFCURVE",
"343 316 CURVE SMOOTH",
"343 296 LINE SMOOTH",
"343 275 OFFCURVE",
"337 266 OFFCURVE",
"319 263 CURVE SMOOTH",
"217 248 LINE SMOOTH",
"77 227 OFFCURVE",
"35 176 OFFCURVE",
"35 107 CURVE SMOOTH",
"35 30 OFFCURVE",
"87 -10 OFFCURVE",
"181 -10 CURVE SMOOTH"
);
},
{
closed = 1;
nodes = (
"192 75 OFFCURVE",
"171 92 OFFCURVE",
"171 122 CURVE SMOOTH",
"171 156 OFFCURVE",
"197 184 OFFCURVE",
"247 191 CURVE SMOOTH",
"343 205 LINE",
"343 186 LINE SMOOTH",
"343 134 OFFCURVE",
"280 75 OFFCURVE",
"223 75 CURVE SMOOTH"
);
}
);
};
layerId = "4355E1B8-19E6-44BD-A1D7-6E3C2DECA4C8";
name = Extended;
paths = (
{
closed = 1;
nodes = (
"262 -10 OFFCURVE",
"325 19 OFFCURVE",
"362 73 CURVE",
"366 73 LINE",
"372 21 OFFCURVE",
"415 -10 OFFCURVE",
"482 -10 CURVE SMOOTH",
"566 -10 OFFCURVE",
"606 40 OFFCURVE",
"606 137 CURVE SMOOTH",
"606 167 OFFCURVE",
"606 168 OFFCURVE",
"605 175 CURVE",
"539 175 LINE",
"540 171 OFFCURVE",
"540 170 OFFCURVE",
"540 142 CURVE SMOOTH",
"540 111 OFFCURVE",
"526 93 OFFCURVE",
"502 93 CURVE SMOOTH",
"483 93 OFFCURVE",
"473 105 OFFCURVE",
"473 128 CURVE SMOOTH",
"473 315 LINE SMOOTH",
"473 405 OFFCURVE",
"394 460 OFFCURVE",
"266 460 CURVE SMOOTH",
"142 460 OFFCURVE",
"64 403 OFFCURVE",
"64 327 CURVE SMOOTH",
"64 283 OFFCURVE",
"79 254 OFFCURVE",
"129 254 CURVE SMOOTH",
"160 254 OFFCURVE",
"187 272 OFFCURVE",
"187 297 CURVE SMOOTH",
"187 322 OFFCURVE",
"170 329 OFFCURVE",
"170 345 CURVE SMOOTH",
"170 367 OFFCURVE",
"210 383 OFFCURVE",
"257 383 CURVE SMOOTH",
"311 383 OFFCURVE",
"343 362 OFFCURVE",
"343 327 CURVE SMOOTH",
"343 298 LINE SMOOTH",
"343 275 OFFCURVE",
"337 266 OFFCURVE",
"319 263 CURVE SMOOTH",
"217 248 LINE SMOOTH",
"89 228 OFFCURVE",
"35 187 OFFCURVE",
"35 108 CURVE SMOOTH",
"35 31 OFFCURVE",
"86 -10 OFFCURVE",
"182 -10 CURVE SMOOTH"
);
},
{
closed = 1;
nodes = (
"186 75 OFFCURVE",
"166 92 OFFCURVE",
"166 123 CURVE SMOOTH",
"166 161 OFFCURVE",
"195 184 OFFCURVE",
"258 193 CURVE SMOOTH",
"343 205 LINE",
"343 186 LINE SMOOTH",
"343 125 OFFCURVE",
"290 75 OFFCURVE",
"224 75 CURVE SMOOTH"
);
}
);
width = 622;
},
{
background = {
paths = (
{
closed = 1;
nodes = (
"245 -10 OFFCURVE",
"321 20 OFFCURVE",
"360 71 CURVE",
"364 71 LINE",
"377 17 OFFCURVE",
"422 -10 OFFCURVE",
"500 -10 CURVE SMOOTH",
"610 -10 OFFCURVE",
"665 43 OFFCURVE",
"665 150 CURVE SMOOTH",
"665 155 OFFCURVE",
"664 171 OFFCURVE",
"662 221 CURVE",
"588 221 LINE",
"589 211 OFFCURVE",
"589 209 OFFCURVE",
"589 178 CURVE SMOOTH",
"589 154 OFFCURVE",
"585 146 OFFCURVE",
"573 146 CURVE SMOOTH",
"564 146 OFFCURVE",
"560 152 OFFCURVE",
"560 164 CURVE SMOOTH",
"560 304 LINE SMOOTH",
"560 429 OFFCURVE",
"474 490 OFFCURVE",
"298 490 CURVE SMOOTH",
"133 490 OFFCURVE",
"33 436 OFFCURVE",
"33 347 CURVE SMOOTH",
"33 289 OFFCURVE",
"75 254 OFFCURVE",
"144 254 CURVE SMOOTH",
"199 254 OFFCURVE",
"238 276 OFFCURVE",
"238 308 CURVE SMOOTH",
"238 322 OFFCURVE",
"230 332 OFFCURVE",
"230 346 CURVE SMOOTH",
"230 366 OFFCURVE",
"248 379 OFFCURVE",
"275 379 CURVE SMOOTH",
"310 379 OFFCURVE",
"330 359 OFFCURVE",
"330 322 CURVE SMOOTH",
"330 291 LINE SMOOTH",
"330 272 OFFCURVE",
"319 261 OFFCURVE",
"298 258 CURVE SMOOTH",
"155 237 LINE SMOOTH",
"56 223 OFFCURVE",
"3 175 OFFCURVE",
"3 101 CURVE SMOOTH",
"3 28 OFFCURVE",
"55 -10 OFFCURVE",
"156 -10 CURVE SMOOTH"
);
},
{
closed = 1;
nodes = (
"239 112 OFFCURVE",
"226 122 OFFCURVE",
"226 139 CURVE SMOOTH",
"226 159 OFFCURVE",
"242 172 OFFCURVE",
"273 177 CURVE SMOOTH",
"335 187 LINE",
"335 178 LINE SMOOTH",
"335 142 OFFCURVE",
"301 112 OFFCURVE",
"261 112 CURVE SMOOTH"
);
}
);
};
layerId = "14C77FDB-037D-4842-9381-6D9ED15DD48C";
name = "Bold Extended";
paths = (
{
closed = 1;
nodes = (
"241 -10 OFFCURVE",
"315 15 OFFCURVE",
"353 64 CURVE",
"357 64 LINE",
"370 15 OFFCURVE",
"418 -10 OFFCURVE",
"500 -10 CURVE SMOOTH",
"610 -10 OFFCURVE",
"665 43 OFFCURVE",
"665 150 CURVE SMOOTH",
"665 155 OFFCURVE",
"664 171 OFFCURVE",
"662 221 CURVE",
"588 221 LINE",
"589 211 OFFCURVE",
"589 209 OFFCURVE",
"589 178 CURVE SMOOTH",
"589 154 OFFCURVE",
"585 146 OFFCURVE",
"573 146 CURVE SMOOTH",
"564 146 OFFCURVE",
"560 152 OFFCURVE",
"560 164 CURVE SMOOTH",
"560 317 LINE SMOOTH",
"560 431 OFFCURVE",
"490 490 OFFCURVE",
"311 490 CURVE SMOOTH",
"149 490 OFFCURVE",
"33 443 OFFCURVE",
"33 347 CURVE SMOOTH",
"33 293 OFFCURVE",
"69 261 OFFCURVE",
"138 261 CURVE SMOOTH",
"193 261 OFFCURVE",
"232 275 OFFCURVE",
"232 310 CURVE SMOOTH",
"232 326 OFFCURVE",
"224 337 OFFCURVE",
"224 353 CURVE SMOOTH",
"224 369 OFFCURVE",
"250 379 OFFCURVE",
"275 379 CURVE SMOOTH",
"305 379 OFFCURVE",
"330 364 OFFCURVE",
"330 327 CURVE SMOOTH",
"330 298 LINE SMOOTH",
"330 279 OFFCURVE",
"319 268 OFFCURVE",
"298 265 CURVE SMOOTH",
"155 244 LINE SMOOTH",
"61 229 OFFCURVE",
"10 179 OFFCURVE",
"10 101 CURVE SMOOTH",
"10 28 OFFCURVE",
"59 -10 OFFCURVE",
"156 -10 CURVE SMOOTH"
);
},
{
closed = 1;
nodes = (
"248 112 OFFCURVE",
"234 123 OFFCURVE",
"234 142 CURVE SMOOTH",
"234 162 OFFCURVE",
"249 176 OFFCURVE",
"281 180 CURVE SMOOTH",
"333 186 LINE",
"333 169 LINE SMOOTH",
"333 137 OFFCURVE",
"311 112 OFFCURVE",
"273 112 CURVE SMOOTH"
);
}
);
width = 668;
},
{
background = {
paths = (
{
closed = 1;
nodes = (
"168 -10 OFFCURVE",
"203 9 OFFCURVE",
"227 69 CURVE",
"231 69 LINE",
"231 13 OFFCURVE",
"254 -10 OFFCURVE",
"293 -10 CURVE SMOOTH",
"337 -10 OFFCURVE",
"357 25 OFFCURVE",
"357 145 CURVE SMOOTH",
"357 153 OFFCURVE",
"356 160 OFFCURVE",
"356 166 CURVE",
"328 166 LINE",
"328 160 OFFCURVE",
"329 151 OFFCURVE",
"329 144 CURVE SMOOTH",
"329 43 OFFCURVE",
"315 19 OFFCURVE",
"297 19 CURVE SMOOTH",
"276 19 OFFCURVE",
"269 36 OFFCURVE",
"269 81 CURVE SMOOTH",
"269 367 LINE SMOOTH",
"269 427 OFFCURVE",
"220 460 OFFCURVE",
"162 460 CURVE SMOOTH",
"100 460 OFFCURVE",
"40 421 OFFCURVE",
"40 345 CURVE SMOOTH",
"40 308 OFFCURVE",
"54 283 OFFCURVE",
"78 283 CURVE SMOOTH",
"96 283 OFFCURVE",
"107 299 OFFCURVE",
"107 320 CURVE SMOOTH",
"107 351 OFFCURVE",
"81 352 OFFCURVE",
"81 378 CURVE SMOOTH",
"81 404 OFFCURVE",
"122 431 OFFCURVE",
"160 431 CURVE SMOOTH",
"207 431 OFFCURVE",
"229 401 OFFCURVE",
"229 356 CURVE SMOOTH",
"229 299 LINE SMOOTH",
"229 285 OFFCURVE",
"226 278 OFFCURVE",
"200 268 CURVE",
"147 252 LINE SMOOTH",
"62 226 OFFCURVE",
"29 176 OFFCURVE",
"29 102 CURVE SMOOTH",
"29 30 OFFCURVE",
"63 -10 OFFCURVE",
"125 -10 CURVE SMOOTH"
);
},
{
closed = 1;
nodes = (
"107 25 OFFCURVE",
"78 42 OFFCURVE",
"78 110 CURVE SMOOTH",
"78 169 OFFCURVE",
"94 205 OFFCURVE",
"163 229 CURVE SMOOTH",
"229 251 LINE",
"229 175 LINE SMOOTH",
"229 107 OFFCURVE",
"194 25 OFFCURVE",
"138 25 CURVE SMOOTH"
);
}
);
};
layerId = "E9E6D55E-9446-45F2-B66C-3272698B0216";
name = "Light Condensed";
paths = (
{
closed = 1;
nodes = (
"173 -10 OFFCURVE",
"205 15 OFFCURVE",
"227 69 CURVE",
"231 69 LINE",
"231 13 OFFCURVE",
"254 -10 OFFCURVE",
"293 -10 CURVE SMOOTH",
"337 -10 OFFCURVE",
"357 25 OFFCURVE",
"357 145 CURVE SMOOTH",
"357 153 OFFCURVE",
"356 160 OFFCURVE",
"356 166 CURVE",
"326 166 LINE",
"326 160 OFFCURVE",
"327 151 OFFCURVE",
"327 144 CURVE SMOOTH",
"327 43 OFFCURVE",
"315 22 OFFCURVE",
"297 22 CURVE SMOOTH",
"276 22 OFFCURVE",
"269 36 OFFCURVE",
"269 81 CURVE SMOOTH",
"269 367 LINE SMOOTH",
"269 422 OFFCURVE",
"226 460 OFFCURVE",
"163 460 CURVE SMOOTH",
"91 460 OFFCURVE",
"38 411 OFFCURVE",
"38 345 CURVE SMOOTH",
"38 309 OFFCURVE",
"54 285 OFFCURVE",
"77 285 CURVE SMOOTH",
"95 285 OFFCURVE",
"107 298 OFFCURVE",
"107 320 CURVE SMOOTH",
"107 350 OFFCURVE",
"85 354 OFFCURVE",
"85 377 CURVE SMOOTH",
"85 406 OFFCURVE",
"119 429 OFFCURVE",
"162 429 CURVE SMOOTH",
"206 429 OFFCURVE",
"229 405 OFFCURVE",
"229 359 CURVE SMOOTH",
"229 293 LINE SMOOTH",
"229 278 OFFCURVE",
"220 269 OFFCURVE",
"200 262 CURVE SMOOTH",
"147 244 LINE SMOOTH",
"71 218 OFFCURVE",
"29 173 OFFCURVE",
"29 98 CURVE SMOOTH",
"29 30 OFFCURVE",
"64 -10 OFFCURVE",
"125 -10 CURVE SMOOTH"
);
},
{
closed = 1;
nodes = (
"93 24 OFFCURVE",
"71 53 OFFCURVE",
"71 103 CURVE SMOOTH",
"71 161 OFFCURVE",
"100 197 OFFCURVE",
"163 218 CURVE SMOOTH",
"229 240 LINE",
"229 174 LINE SMOOTH",
"229 93 OFFCURVE",
"182 24 OFFCURVE",
"128 24 CURVE SMOOTH"
);
}
);
width = 364;
},
{
background = {
paths = (
{
closed = 1;
nodes = (
"165 -10 OFFCURVE",
"209 16 OFFCURVE",
"230 60 CURVE",
"234 60 LINE",
"240 18 OFFCURVE",
"277 -10 OFFCURVE",
"326 -10 CURVE SMOOTH",
"392 -10 OFFCURVE",
"425 43 OFFCURVE",
"425 150 CURVE SMOOTH",
"425 169 OFFCURVE",
"424 177 OFFCURVE",
"424 190 CURVE",
"368 190 LINE",
"368 178 OFFCURVE",
"369 175 OFFCURVE",
"369 150 CURVE SMOOTH",
"369 106 OFFCURVE",
"366 93 OFFCURVE",
"354 93 CURVE SMOOTH",
"345 93 OFFCURVE",
"342 101 OFFCURVE",
"342 125 CURVE SMOOTH",
"342 338 LINE SMOOTH",
"342 416 OFFCURVE",
"290 460 OFFCURVE",
"198 460 CURVE SMOOTH",
"98 460 OFFCURVE",
"26 407 OFFCURVE",
"26 332 CURVE SMOOTH",
"26 285 OFFCURVE",
"55 253 OFFCURVE",
"99 253 CURVE SMOOTH",
"135 253 OFFCURVE",
"161 274 OFFCURVE",
"161 305 CURVE SMOOTH",
"161 333 OFFCURVE",
"141 333 OFFCURVE",
"141 351 CURVE SMOOTH",
"141 368 OFFCURVE",
"157 382 OFFCURVE",
"176 382 CURVE SMOOTH",
"197 382 OFFCURVE",
"212 366 OFFCURVE",
"212 344 CURVE SMOOTH",
"212 298 LINE SMOOTH",
"212 275 OFFCURVE",
"208 266 OFFCURVE",
"196 261 CURVE SMOOTH",
"114 230 LINE SMOOTH",
"41 202 OFFCURVE",
"11 165 OFFCURVE",
"11 104 CURVE SMOOTH",
"11 34 OFFCURVE",
"51 -10 OFFCURVE",
"115 -10 CURVE SMOOTH"
);
},
{
closed = 1;
nodes = (
"157 97 OFFCURVE",
"147 110 OFFCURVE",
"147 133 CURVE SMOOTH",
"147 157 OFFCURVE",
"158 171 OFFCURVE",
"190 185 CURVE SMOOTH",
"212 194 LINE",
"212 162 LINE SMOOTH",
"212 120 OFFCURVE",
"199 97 OFFCURVE",
"175 97 CURVE SMOOTH"
);
}
);
};
layerId = "B25F85BC-C782-4067-8484-07202F80B8CD";
name = Condensed;
paths = (
{
closed = 1;
nodes = (
"165 -10 OFFCURVE",
"209 16 OFFCURVE",
"230 60 CURVE",
"234 60 LINE",
"240 18 OFFCURVE",
"277 -10 OFFCURVE",
"326 -10 CURVE SMOOTH",
"392 -10 OFFCURVE",
"425 43 OFFCURVE",
"425 150 CURVE SMOOTH",
"425 169 OFFCURVE",
"424 177 OFFCURVE",
"424 190 CURVE",
"368 190 LINE",
"368 178 OFFCURVE",
"369 175 OFFCURVE",
"369 150 CURVE SMOOTH",
"369 106 OFFCURVE",
"366 93 OFFCURVE",
"354 93 CURVE SMOOTH",
"345 93 OFFCURVE",
"342 101 OFFCURVE",
"342 125 CURVE SMOOTH",
"342 338 LINE SMOOTH",
"342 416 OFFCURVE",
"290 460 OFFCURVE",
"198 460 CURVE SMOOTH",
"98 460 OFFCURVE",
"26 407 OFFCURVE",
"26 332 CURVE SMOOTH",
"26 285 OFFCURVE",
"55 253 OFFCURVE",
"99 253 CURVE SMOOTH",
"135 253 OFFCURVE",
"153 274 OFFCURVE",
"153 305 CURVE SMOOTH",
"153 333 OFFCURVE",
"134 334 OFFCURVE",
"134 352 CURVE SMOOTH",
"134 369 OFFCURVE",
"153 382 OFFCURVE",
"172 382 CURVE SMOOTH",
"193 382 OFFCURVE",
"212 366 OFFCURVE",
"212 344 CURVE SMOOTH",
"212 298 LINE SMOOTH",
"212 275 OFFCURVE",
"208 266 OFFCURVE",
"196 261 CURVE SMOOTH",
"114 230 LINE SMOOTH",
"41 202 OFFCURVE",
"11 165 OFFCURVE",
"11 104 CURVE SMOOTH",
"11 34 OFFCURVE",
"51 -10 OFFCURVE",
"115 -10 CURVE SMOOTH"
);
},
{
closed = 1;
nodes = (
"156 87 OFFCURVE",
"147 100 OFFCURVE",
"147 127 CURVE SMOOTH",
"147 162 OFFCURVE",
"163 185 OFFCURVE",
"194 197 CURVE SMOOTH",
"212 204 LINE",
"212 168 LINE SMOOTH",
"212 115 OFFCURVE",
"198 87 OFFCURVE",
"173 87 CURVE SMOOTH"
);
}
);
width = 426;
},
{
background = {
paths = (
{
closed = 1;
nodes = (
"171 -12 OFFCURVE",
"221 18 OFFCURVE",
"248 70 CURVE",
"252 70 LINE",
"262 21 OFFCURVE",
"306 -12 OFFCURVE",
"364 -12 CURVE SMOOTH",
"441 -12 OFFCURVE",
"484 39 OFFCURVE",
"484 128 CURVE SMOOTH",
"484 154 OFFCURVE",
"484 161 OFFCURVE",
"482 171 CURVE",
"421 171 LINE",
"422 166 OFFCURVE",
"422 160 OFFCURVE",
"422 150 CURVE SMOOTH",
"422 116 OFFCURVE",
"418 101 OFFCURVE",
"408 101 CURVE SMOOTH",
"399 101 OFFCURVE",
"396 107 OFFCURVE",
"396 124 CURVE SMOOTH",
"396 300 LINE SMOOTH",
"396 418 OFFCURVE",
"337 477 OFFCURVE",
"219 477 CURVE SMOOTH",
"101 477 OFFCURVE",
"18 419 OFFCURVE",
"18 336 CURVE SMOOTH",
"18 282 OFFCURVE",
"53 249 OFFCURVE",
"108 249 CURVE SMOOTH",
"154 249 OFFCURVE",
"186 271 OFFCURVE",
"186 304 CURVE SMOOTH",
"186 327 OFFCURVE",
"171 331 OFFCURVE",
"171 345 CURVE SMOOTH",
"171 357 OFFCURVE",
"183 367 OFFCURVE",
"196 367 CURVE SMOOTH",
"211 367 OFFCURVE",
"220 353 OFFCURVE",
"220 327 CURVE SMOOTH",
"220 281 LINE SMOOTH",
"220 266 OFFCURVE",
"214 260 OFFCURVE",
"193 252 CURVE SMOOTH",
"135 231 LINE SMOOTH",
"42 197 OFFCURVE",
"6 157 OFFCURVE",
"6 91 CURVE SMOOTH",
"6 25 OFFCURVE",
"43 -12 OFFCURVE",
"111 -12 CURVE SMOOTH"
);
},
{
closed = 1;
nodes = (
"173 110 OFFCURVE",
"165 119 OFFCURVE",
"165 134 CURVE SMOOTH",
"165 153 OFFCURVE",
"176 166 OFFCURVE",
"201 176 CURVE SMOOTH",
"223 185 LINE",
"223 158 LINE SMOOTH",
"223 128 OFFCURVE",
"210 110 OFFCURVE",
"188 110 CURVE SMOOTH"
);
}
);
};
layerId = "B817C739-5D48-43E8-AAEE-CE891513D7BC";
name = "Bold Condensed";
paths = (
{
closed = 1;
nodes = (
"176 -12 OFFCURVE",
"224 22 OFFCURVE",
"249 70 CURVE",
"253 70 LINE",
"262 25 OFFCURVE",
"302 -12 OFFCURVE",
"366 -12 CURVE SMOOTH",
"441 -12 OFFCURVE",
"485 39 OFFCURVE",
"485 128 CURVE SMOOTH",
"485 154 OFFCURVE",
"485 161 OFFCURVE",
"483 171 CURVE",
"422 171 LINE",
"423 166 OFFCURVE",
"423 160 OFFCURVE",
"423 150 CURVE SMOOTH",
"423 114 OFFCURVE",
"419 101 OFFCURVE",
"408 101 CURVE SMOOTH",
"400 101 OFFCURVE",
"397 108 OFFCURVE",
"397 124 CURVE SMOOTH",
"397 300 LINE SMOOTH",
"397 418 OFFCURVE",
"338 477 OFFCURVE",
"220 477 CURVE SMOOTH",
"102 477 OFFCURVE",
"19 419 OFFCURVE",
"19 336 CURVE SMOOTH",
"19 282 OFFCURVE",
"54 249 OFFCURVE",
"109 249 CURVE SMOOTH",
"155 249 OFFCURVE",
"187 271 OFFCURVE",
"187 304 CURVE SMOOTH",
"187 327 OFFCURVE",
"172 331 OFFCURVE",
"172 345 CURVE SMOOTH",
"172 357 OFFCURVE",
"184 367 OFFCURVE",
"197 367 CURVE SMOOTH",
"212 367 OFFCURVE",
"221 353 OFFCURVE",
"221 327 CURVE SMOOTH",
"221 287 LINE SMOOTH",
"221 272 OFFCURVE",
"215 266 OFFCURVE",
"194 258 CURVE SMOOTH",
"136 236 LINE SMOOTH",
"35 198 OFFCURVE",
"7 157 OFFCURVE",
"7 96 CURVE SMOOTH",
"7 25 OFFCURVE",
"46 -12 OFFCURVE",
"112 -12 CURVE SMOOTH"
);
},
{
closed = 1;
nodes = (
"174 110 OFFCURVE",
"166 119 OFFCURVE",
"166 135 CURVE SMOOTH",
"166 153 OFFCURVE",
"177 171 OFFCURVE",
"202 181 CURVE SMOOTH",
"224 190 LINE",
"224 170 LINE SMOOTH",
"224 130 OFFCURVE",
"211 110 OFFCURVE",
"189 110 CURVE SMOOTH"
);
}
);
width = 470;
}
);
unicode = 0061;
},
{
glyphname = b;
lastChange = "2015-03-30 14:51:28 +0000";
layers = (
{
layerId = "E9E6D55E-9446-45F2-B66C-3272698B0216";
name = "Light Condensed";
paths = (
{
closed = 1;
nodes = (
"132 25 OFFCURVE",
"98 103 OFFCURVE",
"98 225 CURVE SMOOTH",
"98 357 OFFCURVE",
"128 425 OFFCURVE",
"186 425 CURVE SMOOTH",
"242 425 OFFCURVE",
"268 361 OFFCURVE",
"268 224 CURVE SMOOTH",
"268 88 OFFCURVE",
"242 25 OFFCURVE",
"186 25 CURVE SMOOTH"
);
},
{
closed = 1;
nodes = (
"87 0 LINE",
"97 61 LINE",
"101 61 LINE",
"119 14 OFFCURVE",
"151 -10 OFFCURVE",
"195 -10 CURVE SMOOTH",
"271 -10 OFFCURVE",
"312 73 OFFCURVE",
"312 225 CURVE SMOOTH",
"312 385 OFFCURVE",
"273 460 OFFCURVE",
"190 460 CURVE SMOOTH",
"151 460 OFFCURVE",
"124 442 OFFCURVE",
"101 400 CURVE",
"97 400 LINE",
"97 665 LINE",
"-8 665 LINE",
"-8 640 LINE",
"30 640 LINE SMOOTH",
"49 640 OFFCURVE",
"57 631 OFFCURVE",
"57 608 CURVE SMOOTH",
"57 0 LINE"
);
}
);
width = 348;
},
{
layerId = "B25F85BC-C782-4067-8484-07202F80B8CD";
name = Condensed;
paths = (
{
closed = 1;
nodes = (
"190 85 OFFCURVE",
"175 130 OFFCURVE",
"175 225 CURVE SMOOTH",
"175 319 OFFCURVE",
"190 365 OFFCURVE",
"220 365 CURVE SMOOTH",
"250 365 OFFCURVE",
"263 324 OFFCURVE",
"263 225 CURVE SMOOTH",
"263 127 OFFCURVE",
"250 85 OFFCURVE",
"221 85 CURVE SMOOTH"
);
},
{
closed = 1;
nodes = (
"145 0 LINE",
"175 61 LINE",
"179 61 LINE",
"193 15 OFFCURVE",
"228 -10 OFFCURVE",
"278 -10 CURVE SMOOTH",
"367 -10 OFFCURVE",
"410 68 OFFCURVE",
"410 227 CURVE SMOOTH",
"410 385 OFFCURVE",
"368 460 OFFCURVE",
"278 460 CURVE SMOOTH",
"235 460 OFFCURVE",
"205 442 OFFCURVE",
"179 400 CURVE",
"175 400 LINE",
"175 665 LINE",
"-20 665 LINE",
"-20 585 LINE",
"18 585 LINE SMOOTH",
"37 585 OFFCURVE",
"45 576 OFFCURVE",
"45 553 CURVE SMOOTH",
"45 0 LINE"
);
}
);
width = 430;
},
{
layerId = "B817C739-5D48-43E8-AAEE-CE891513D7BC";
name = "Bold Condensed";
paths = (
{
closed = 1;
nodes = (
"197 120 OFFCURVE",
"190 151 OFFCURVE",
"190 233 CURVE SMOOTH",
"190 315 OFFCURVE",
"197 345 OFFCURVE",
"215 345 CURVE SMOOTH",
"233 345 OFFCURVE",
"239 319 OFFCURVE",
"239 235 CURVE SMOOTH",
"239 149 OFFCURVE",
"233 120 OFFCURVE",
"215 120 CURVE SMOOTH"
);
},
{
closed = 1;
nodes = (
"160 0 LINE",
"190 53 LINE",
"194 53 LINE",
"210 12 OFFCURVE",
"250 -12 OFFCURVE",
"302 -12 CURVE SMOOTH",
"394 -12 OFFCURVE",
"437 64 OFFCURVE",
"437 228 CURVE SMOOTH",
"437 398 OFFCURVE",
"391 477 OFFCURVE",
"292 477 CURVE SMOOTH",
"244 477 OFFCURVE",
"211 459 OFFCURVE",
"194 423 CURVE",
"190 423 LINE",
"190 665 LINE",
"-28 665 LINE",
"-28 557 LINE",
"-18 557 LINE SMOOTH",
"4 557 OFFCURVE",
"14 547 OFFCURVE",
"14 525 CURVE SMOOTH",
"14 0 LINE"
);
}
);
width = 441;
},
{
layerId = UUID0;
name = "Light Extended";
paths = (
{
closed = 1;
nodes = (
"179 28 OFFCURVE",
"120 99 OFFCURVE",
"120 227 CURVE SMOOTH",
"120 354 OFFCURVE",
"178 422 OFFCURVE",
"286 422 CURVE SMOOTH",
"390 422 OFFCURVE",
"438 360 OFFCURVE",
"438 227 CURVE SMOOTH",
"438 93 OFFCURVE",
"389 28 OFFCURVE",
"286 28 CURVE SMOOTH"
);
},
{
closed = 1;
nodes = (
"109 0 LINE",
"119 70 LINE",
"123 70 LINE",
"158 18 OFFCURVE",
"216 -10 OFFCURVE",
"289 -10 CURVE SMOOTH",
"417 -10 OFFCURVE",
"487 73 OFFCURVE",
"487 226 CURVE SMOOTH",
"487 378 OFFCURVE",
"418 460 OFFCURVE",
"289 460 CURVE SMOOTH",
"211 460 OFFCURVE",
"156 430 OFFCURVE",
"123 370 CURVE",
"119 370 LINE",
"119 665 LINE",
"-21 665 LINE",
"-21 640 LINE",
"48 640 LINE SMOOTH",
"67 640 OFFCURVE",
"75 631 OFFCURVE",
"75 608 CURVE SMOOTH",
"75 0 LINE"
);
}
);
width = 538;
},
{
layerId = "4355E1B8-19E6-44BD-A1D7-6E3C2DECA4C8";
name = Extended;
paths = (
{
closed = 1;
nodes = (
"237 85 OFFCURVE",
"191 138 OFFCURVE",
"191 226 CURVE SMOOTH",
"191 313 OFFCURVE",
"235 365 OFFCURVE",
"309 365 CURVE SMOOTH",
"380 365 OFFCURVE",
"419 315 OFFCURVE",
"419 223 CURVE SMOOTH",
"419 133 OFFCURVE",
"382 85 OFFCURVE",
"312 85 CURVE SMOOTH"
);
},
{
closed = 1;
nodes = (
"161 0 LINE",
"191 81 LINE",
"195 81 LINE",
"221 24 OFFCURVE",
"284 -10 OFFCURVE",
"361 -10 CURVE SMOOTH",
"487 -10 OFFCURVE",
"562 77 OFFCURVE",
"562 224 CURVE SMOOTH",
"562 374 OFFCURVE",
"486 460 OFFCURVE",
"354 460 CURVE SMOOTH",
"280 460 OFFCURVE",
"227 433 OFFCURVE",
"195 380 CURVE",
"191 380 LINE",
"191 665 LINE",
"-23 665 LINE",
"-23 585 LINE",
"34 585 LINE SMOOTH",
"53 585 OFFCURVE",
"61 576 OFFCURVE",
"61 553 CURVE SMOOTH",
"61 0 LINE"
);
}
);
width = 604;
},
{
layerId = "14C77FDB-037D-4842-9381-6D9ED15DD48C";
name = "Bold Extended";
paths = (
{
closed = 1;
nodes = (
"324 158 OFFCURVE",
"301 190 OFFCURVE",
"301 240 CURVE SMOOTH",
"301 290 OFFCURVE",
"324 325 OFFCURVE",
"368 325 CURVE SMOOTH",
"410 325 OFFCURVE",
"437 292 OFFCURVE",
"437 240 CURVE SMOOTH",
"437 188 OFFCURVE",
"410 158 OFFCURVE",
"368 158 CURVE SMOOTH"
);
},
{
closed = 1;
nodes = (
"271 0 LINE",
"301 83 LINE",
"305 83 LINE",
"337 20 OFFCURVE",
"398 -10 OFFCURVE",
"475 -10 CURVE SMOOTH",
"581 -10 OFFCURVE",
"685 47 OFFCURVE",
"685 239 CURVE SMOOTH",
"685 398 OFFCURVE",
"613 490 OFFCURVE",
"475 490 CURVE SMOOTH",
"389 490 OFFCURVE",
"336 454 OFFCURVE",
"305 398 CURVE",
"301 398 LINE",
"301 665 LINE",
"-10 665 LINE",
"-10 523 LINE",
"42 523 LINE SMOOTH",
"64 523 OFFCURVE",
"71 516 OFFCURVE",
"71 494 CURVE SMOOTH",
"71 0 LINE"
);
}
);
width = 701;
}
);
rightMetricsKey = "=o-2";
unicode = 0062;
},
{
glyphname = c;
lastChange = "2015-03-30 14:51:28 +0000";
layers = (
{
layerId = "E9E6D55E-9446-45F2-B66C-3272698B0216";
name = "Light Condensed";
paths = (
{
closed = 1;
nodes = (
"111 24 OFFCURVE",
"82 91 OFFCURVE",
"82 227 CURVE SMOOTH",
"82 362 OFFCURVE",
"111 426 OFFCURVE",
"173 426 CURVE SMOOTH",
"208 426 OFFCURVE",
"230 406 OFFCURVE",
"230 375 CURVE SMOOTH",
"230 346 OFFCURVE",
"209 344 OFFCURVE",
"209 317 CURVE SMOOTH",
"209 297 OFFCURVE",
"221 285 OFFCURVE",
"239 285 CURVE SMOOTH",
"263 285 OFFCURVE",
"278 308 OFFCURVE",
"278 348 CURVE SMOOTH",
"278 415 OFFCURVE",
"237 460 OFFCURVE",
"174 460 CURVE SMOOTH",
"88 460 OFFCURVE",
"38 377 OFFCURVE",
"38 223 CURVE SMOOTH",
"38 80 OFFCURVE",
"81 -10 OFFCURVE",
"167 -10 CURVE SMOOTH",
"242 -10 OFFCURVE",
"282 60 OFFCURVE",
"282 182 CURVE",
"249 182 LINE",
"246 74 OFFCURVE",
"221 24 OFFCURVE",
"170 24 CURVE SMOOTH"
);
}
);
width = 316;
},
{
layerId = "B25F85BC-C782-4067-8484-07202F80B8CD";
name = Condensed;
paths = (
{
closed = 1;
nodes = (
"171 80 OFFCURVE",
"158 117 OFFCURVE",
"158 222 CURVE SMOOTH",
"158 333 OFFCURVE",
"172 369 OFFCURVE",
"213 369 CURVE SMOOTH",
"237 369 OFFCURVE",
"251 358 OFFCURVE",
"251 337 CURVE SMOOTH",
"251 316 OFFCURVE",
"236 310 OFFCURVE",
"236 284 CURVE SMOOTH",
"236 253 OFFCURVE",
"259 233 OFFCURVE",
"294 233 CURVE SMOOTH",
"337 233 OFFCURVE",
"361 263 OFFCURVE",
"361 316 CURVE SMOOTH",
"361 403 OFFCURVE",
"298 460 OFFCURVE",
"204 460 CURVE SMOOTH",
"88 460 OFFCURVE",
"22 373 OFFCURVE",
"22 221 CURVE SMOOTH",
"22 72 OFFCURVE",
"86 -10 OFFCURVE",
"202 -10 CURVE SMOOTH",
"308 -10 OFFCURVE",
"365 58 OFFCURVE",
"365 182 CURVE",
"257 182 LINE",
"252 103 OFFCURVE",
"241 80 OFFCURVE",
"209 80 CURVE SMOOTH"
);
}
);
width = 383;
},
{
layerId = "B817C739-5D48-43E8-AAEE-CE891513D7BC";
name = "Bold Condensed";
paths = (
{
closed = 1;
nodes = (
"195 110 OFFCURVE",
"186 137 OFFCURVE",
"186 232 CURVE SMOOTH",
"186 326 OFFCURVE",
"195 355 OFFCURVE",
"223 355 CURVE SMOOTH",
"241 355 OFFCURVE",
"252 343 OFFCURVE",
"252 322 CURVE SMOOTH",
"252 299 OFFCURVE",
"239 292 OFFCURVE",
"239 267 CURVE SMOOTH",
"239 231 OFFCURVE",
"267 206 OFFCURVE",
"319 206 CURVE SMOOTH",
"381 206 OFFCURVE",
"409 240 OFFCURVE",
"409 305 CURVE SMOOTH",
"409 411 OFFCURVE",
"334 478 OFFCURVE",
"217 478 CURVE SMOOTH",
"82 478 OFFCURVE",
"6 388 OFFCURVE",
"6 228 CURVE SMOOTH",
"6 71 OFFCURVE",
"79 -12 OFFCURVE",
"218 -12 CURVE SMOOTH",
"344 -12 OFFCURVE",
"413 56 OFFCURVE",
"413 180 CURVE",
"265 180 LINE",
"263 128 OFFCURVE",
"253 110 OFFCURVE",
"227 110 CURVE SMOOTH"
);
}
);
width = 415;
},
{
layerId = UUID0;
name = "Light Extended";
paths = (
{
closed = 1;
nodes = (
"150 27 OFFCURVE",
"98 91 OFFCURVE",
"98 226 CURVE SMOOTH",
"98 361 OFFCURVE",
"149 423 OFFCURVE",
"261 423 CURVE SMOOTH",
"330 423 OFFCURVE",
"375 399 OFFCURVE",
"375 358 CURVE SMOOTH",
"375 330 OFFCURVE",
"354 326 OFFCURVE",
"354 300 CURVE SMOOTH",
"354 280 OFFCURVE",
"366 268 OFFCURVE",
"384 268 CURVE SMOOTH",
"408 268 OFFCURVE",
"423 291 OFFCURVE",
"423 330 CURVE SMOOTH",
"423 410 OFFCURVE",
"360 460 OFFCURVE",
"259 460 CURVE SMOOTH",
"127 460 OFFCURVE",
"53 374 OFFCURVE",
"53 222 CURVE SMOOTH",
"53 74 OFFCURVE",
"124 -10 OFFCURVE",
"249 -10 CURVE SMOOTH",
"363 -10 OFFCURVE",
"427 59 OFFCURVE",
"427 182 CURVE",
"394 182 LINE",
"391 76 OFFCURVE",
"345 27 OFFCURVE",
"254 27 CURVE SMOOTH"
);
}
);
width = 476;
},
{
layerId = "4355E1B8-19E6-44BD-A1D7-6E3C2DECA4C8";
name = Extended;
paths = (
{
closed = 1;
nodes = (
"217 80 OFFCURVE",
"180 126 OFFCURVE",
"180 227 CURVE SMOOTH",
"180 326 OFFCURVE",
"216 369 OFFCURVE",
"300 369 CURVE SMOOTH",
"350 369 OFFCURVE",
"373 354 OFFCURVE",
"373 331 CURVE SMOOTH",
"373 313 OFFCURVE",
"358 302 OFFCURVE",
"358 277 CURVE SMOOTH",
"358 249 OFFCURVE",
"378 223 OFFCURVE",
"424 223 CURVE SMOOTH",
"475 223 OFFCURVE",
"503 255 OFFCURVE",
"503 306 CURVE SMOOTH",
"503 397 OFFCURVE",
"416 460 OFFCURVE",
"290 460 CURVE SMOOTH",
"138 460 OFFCURVE",
"44 369 OFFCURVE",
"44 222 CURVE SMOOTH",
"44 76 OFFCURVE",
"137 -10 OFFCURVE",
"288 -10 CURVE SMOOTH",
"426 -10 OFFCURVE",
"507 61 OFFCURVE",
"507 182 CURVE",
"399 182 LINE",
"391 110 OFFCURVE",
"361 80 OFFCURVE",
"297 80 CURVE SMOOTH"
);
}
);
width = 547;
},
{
layerId = "14C77FDB-037D-4842-9381-6D9ED15DD48C";
name = "Bold Extended";
paths = (
{
closed = 1;
nodes = (
"275 124 OFFCURVE",
"248 159 OFFCURVE",
"248 240 CURVE SMOOTH",
"248 319 OFFCURVE",
"274 359 OFFCURVE",
"327 359 CURVE SMOOTH",
"366 359 OFFCURVE",
"399 336 OFFCURVE",
"399 310 CURVE SMOOTH",
"399 294 OFFCURVE",
"386 288 OFFCURVE",
"386 268 CURVE SMOOTH",
"386 233 OFFCURVE",
"421 213 OFFCURVE",
"479 213 CURVE SMOOTH",
"553 213 OFFCURVE",
"591 245 OFFCURVE",
"591 308 CURVE SMOOTH",
"591 416 OFFCURVE",
"478 490 OFFCURVE",
"312 490 CURVE SMOOTH",
"126 490 OFFCURVE",
"18 396 OFFCURVE",
"18 235 CURVE SMOOTH",
"18 76 OFFCURVE",
"125 -10 OFFCURVE",
"322 -10 CURVE SMOOTH",
"498 -10 OFFCURVE",
"595 57 OFFCURVE",
"595 180 CURVE",
"422 180 LINE",
"412 143 OFFCURVE",
"383 124 OFFCURVE",
"338 124 CURVE SMOOTH"
);
}
);
width = 609;
}
);
leftMetricsKey = o;
rightMetricsKey = "=o-4";
unicode = 0063;
},
{
glyphname = d;
lastChange = "2015-03-30 14:51:28 +0000";
layers = (
{
layerId = UUID0;
name = "Light Extended";
paths = (
{
closed = 1;
nodes = (
"329 -10 OFFCURVE",
"376 18 OFFCURVE",
"415 81 CURVE",
"419 81 LINE",
"419 0 LINE",
"559 0 LINE",
"559 27 LINE",
"486 27 LINE SMOOTH",
"468 27 OFFCURVE",
"463 40 OFFCURVE",
"463 58 CURVE SMOOTH",
"463 665 LINE",
"302 665 LINE",
"302 638 LINE",
"384 638 LINE SMOOTH",
"406 638 OFFCURVE",
"419 626 OFFCURVE",
"419 601 CURVE SMOOTH",
"419 378 LINE",
"415 378 LINE",
"374 433 OFFCURVE",
"323 460 OFFCURVE",
"249 460 CURVE SMOOTH",
"123 460 OFFCURVE",
"51 378 OFFCURVE",
"51 224 CURVE SMOOTH",
"51 62 OFFCURVE",
"130 -10 OFFCURVE",
"252 -10 CURVE SMOOTH"
);
},
{
closed = 1;
nodes = (
"145 28 OFFCURVE",
"100 94 OFFCURVE",
"100 220 CURVE SMOOTH",
"100 357 OFFCURVE",
"152 422 OFFCURVE",
"258 422 CURVE SMOOTH",
"336 422 OFFCURVE",
"418 378 OFFCURVE",
"418 224 CURVE SMOOTH",
"418 93 OFFCURVE",
"356 28 OFFCURVE",
"255 28 CURVE SMOOTH"
);
}
);
width = 561;
},
{
background = {
paths = (
{
closed = 1;
nodes = (
"627 80 LINE",
"566 80 LINE SMOOTH",
"548 80 OFFCURVE",
"543 91 OFFCURVE",
"543 107 CURVE SMOOTH",
"543 665 LINE",
"308 665 LINE",
"308 585 LINE",
"378 585 LINE SMOOTH",
"406 585 OFFCURVE",
"413 572 OFFCURVE",
"413 544 CURVE SMOOTH",
"413 379 LINE",
"409 379 LINE",
"378 436 OFFCURVE",
"320 460 OFFCURVE",
"249 460 CURVE SMOOTH",
"127 460 OFFCURVE",
"42 388 OFFCURVE",
"42 223 CURVE SMOOTH",
"42 54 OFFCURVE",
"131 -10 OFFCURVE",
"243 -10 CURVE SMOOTH",
"323 -10 OFFCURVE",
"376 22 OFFCURVE",
"409 82 CURVE",
"413 82 LINE",
"413 0 LINE",
"627 0 LINE"
);
},
{
closed = 1;
nodes = (
"231 85 OFFCURVE",
"185 119 OFFCURVE",
"185 223 CURVE SMOOTH",
"185 330 OFFCURVE",
"233 365 OFFCURVE",
"302 365 CURVE SMOOTH",
"373 365 OFFCURVE",
"413 329 OFFCURVE",
"413 227 CURVE SMOOTH",
"413 115 OFFCURVE",
"365 85 OFFCURVE",
"299 85 CURVE SMOOTH"
);
}
);
};
layerId = "4355E1B8-19E6-44BD-A1D7-6E3C2DECA4C8";
name = Extended;
paths = (
{
closed = 1;
nodes = (
"321 -10 OFFCURVE",
"374 19 OFFCURVE",
"409 82 CURVE",
"413 82 LINE",
"413 0 LINE",
"627 0 LINE",
"627 80 LINE",
"566 80 LINE SMOOTH",
"548 80 OFFCURVE",
"543 91 OFFCURVE",
"543 107 CURVE SMOOTH",
"543 665 LINE",
"308 665 LINE",
"308 585 LINE",
"378 585 LINE SMOOTH",
"406 585 OFFCURVE",
"413 572 OFFCURVE",
"413 544 CURVE SMOOTH",
"413 379 LINE",
"409 379 LINE",
"376 438 OFFCURVE",
"321 460 OFFCURVE",
"254 460 CURVE SMOOTH",
"130 460 OFFCURVE",
"42 385 OFFCURVE",
"42 223 CURVE SMOOTH",
"42 57 OFFCURVE",
"134 -10 OFFCURVE",
"247 -10 CURVE SMOOTH"
);
},
{
closed = 1;
nodes = (
"231 85 OFFCURVE",
"185 117 OFFCURVE",
"185 223 CURVE SMOOTH",
"185 331 OFFCURVE",
"233 365 OFFCURVE",
"301 365 CURVE SMOOTH",
"363 365 OFFCURVE",
"413 317 OFFCURVE",
"413 227 CURVE SMOOTH",
"413 127 OFFCURVE",
"355 85 OFFCURVE",
"298 85 CURVE SMOOTH"
);
}
);
width = 644;
},
{
background = {
paths = (
{
closed = 1;
nodes = (
"313 -10 OFFCURVE",
"364 38 OFFCURVE",
"396 83 CURVE",
"400 83 LINE",
"400 0 LINE",
"704 0 LINE",
"704 142 LINE",
"653 142 LINE SMOOTH",
"635 142 OFFCURVE",
"630 151 OFFCURVE",
"630 164 CURVE SMOOTH",
"630 665 LINE",
"300 665 LINE",
"300 523 LINE",
"373 523 LINE SMOOTH",
"391 523 OFFCURVE",
"400 519 OFFCURVE",
"400 482 CURVE SMOOTH",
"400 418 LINE",
"396 418 LINE",
"384 444 OFFCURVE",
"334 493 OFFCURVE",
"232 493 CURVE SMOOTH",
"110 493 OFFCURVE",
"15 422 OFFCURVE",
"15 233 CURVE SMOOTH",
"15 54 OFFCURVE",
"100 -10 OFFCURVE",
"214 -10 CURVE SMOOTH"
);
},
{
closed = 1;
nodes = (
"298 158 OFFCURVE",
"265 179 OFFCURVE",
"265 237 CURVE SMOOTH",
"265 289 OFFCURVE",
"291 325 OFFCURVE",
"335 325 CURVE SMOOTH",
"392 325 OFFCURVE",
"400 277 OFFCURVE",
"400 240 CURVE SMOOTH",
"400 184 OFFCURVE",
"381 158 OFFCURVE",
"333 158 CURVE SMOOTH"
);
}
);
};
layerId = "14C77FDB-037D-4842-9381-6D9ED15DD48C";
name = "Bold Extended";
paths = (
{
closed = 1;
nodes = (
"311 -10 OFFCURVE",
"368 31 OFFCURVE",
"396 83 CURVE",
"400 83 LINE",
"400 0 LINE",
"711 0 LINE",
"711 142 LINE",
"656 142 LINE SMOOTH",
"636 142 OFFCURVE",
"630 149 OFFCURVE",
"630 177 CURVE SMOOTH",
"630 665 LINE",
"300 665 LINE",
"300 523 LINE",
"374 523 LINE SMOOTH",
"394 523 OFFCURVE",
"400 516 OFFCURVE",
"400 488 CURVE SMOOTH",
"400 398 LINE",
"396 398 LINE",
"368 450 OFFCURVE",
"312 490 OFFCURVE",
"232 490 CURVE SMOOTH",
"112 490 OFFCURVE",
"16 426 OFFCURVE",
"16 240 CURVE SMOOTH",
"16 54 OFFCURVE",
"111 -10 OFFCURVE",
"231 -10 CURVE SMOOTH"
);
},
{
closed = 1;
nodes = (
"292 158 OFFCURVE",
"264 188 OFFCURVE",
"264 240 CURVE SMOOTH",
"264 292 OFFCURVE",
"292 325 OFFCURVE",
"332 325 CURVE SMOOTH",
"378 325 OFFCURVE",
"400 290 OFFCURVE",
"400 240 CURVE SMOOTH",
"400 190 OFFCURVE",
"378 158 OFFCURVE",
"332 158 CURVE SMOOTH"
);
}
);
width = 716;
},
{
background = {
paths = (
{
closed = 1;
nodes = (
"190 -10 OFFCURVE",
"227 5 OFFCURVE",
"247 61 CURVE",
"251 61 LINE",
"251 0 LINE",
"357 0 LINE",
"357 25 LINE",
"318 25 LINE SMOOTH",
"298 25 OFFCURVE",
"291 35 OFFCURVE",
"291 57 CURVE SMOOTH",
"291 665 LINE",
"176 665 LINE",
"176 640 LINE",
"224 640 LINE SMOOTH",
"244 640 OFFCURVE",
"251 630 OFFCURVE",
"251 608 CURVE SMOOTH",
"251 400 LINE",
"247 400 LINE",
"223 445 OFFCURVE",
"201 460 OFFCURVE",
"158 460 CURVE SMOOTH",
"75 460 OFFCURVE",
"36 385 OFFCURVE",
"36 225 CURVE SMOOTH",
"36 71 OFFCURVE",
"78 -10 OFFCURVE",
"153 -10 CURVE SMOOTH"
);
},
{
closed = 1;
nodes = (
"106 25 OFFCURVE",
"80 88 OFFCURVE",
"80 224 CURVE SMOOTH",
"80 360 OFFCURVE",
"106 425 OFFCURVE",
"162 425 CURVE SMOOTH",
"213 425 OFFCURVE",
"250 372 OFFCURVE",
"250 225 CURVE SMOOTH",
"250 87 OFFCURVE",
"208 25 OFFCURVE",
"162 25 CURVE SMOOTH"
);
}
);
};
layerId = "E9E6D55E-9446-45F2-B66C-3272698B0216";
name = "Light Condensed";
paths = (
{
closed = 1;
nodes = (
"188 -10 OFFCURVE",
"225 5 OFFCURVE",
"247 61 CURVE",
"251 61 LINE",
"251 0 LINE",
"357 0 LINE",
"357 25 LINE",
"318 25 LINE SMOOTH",
"298 25 OFFCURVE",
"291 35 OFFCURVE",
"291 57 CURVE SMOOTH",
"291 665 LINE",
"176 665 LINE",
"176 640 LINE",
"224 640 LINE SMOOTH",
"244 640 OFFCURVE",
"251 630 OFFCURVE",
"251 608 CURVE SMOOTH",
"251 400 LINE",
"247 400 LINE",
"221 445 OFFCURVE",
"199 460 OFFCURVE",
"158 460 CURVE SMOOTH",
"75 460 OFFCURVE",
"36 385 OFFCURVE",
"36 225 CURVE SMOOTH",
"36 71 OFFCURVE",
"78 -10 OFFCURVE",
"153 -10 CURVE SMOOTH"
);
},
{
closed = 1;
nodes = (
"106 25 OFFCURVE",
"80 88 OFFCURVE",
"80 224 CURVE SMOOTH",
"80 360 OFFCURVE",
"106 425 OFFCURVE",
"162 425 CURVE SMOOTH",
"209 425 OFFCURVE",
"250 382 OFFCURVE",
"250 225 CURVE SMOOTH",
"250 77 OFFCURVE",
"204 25 OFFCURVE",
"162 25 CURVE SMOOTH"
);
}
);
width = 361;
},
{
layerId = "B25F85BC-C782-4067-8484-07202F80B8CD";
name = Condensed;
paths = (
{
closed = 1;
nodes = (
"201 -10 OFFCURVE",
"232 8 OFFCURVE",
"252 54 CURVE",
"256 54 LINE",
"256 0 LINE",
"445 0 LINE",
"445 80 LINE",
"411 80 LINE SMOOTH",
"391 80 OFFCURVE",
"386 93 OFFCURVE",
"386 113 CURVE SMOOTH",
"386 665 LINE",
"191 665 LINE",
"191 585 LINE",
"231 585 LINE SMOOTH",
"251 585 OFFCURVE",
"256 572 OFFCURVE",
"256 552 CURVE SMOOTH",
"256 396 LINE",
"252 396 LINE",
"232 442 OFFCURVE",
"201 460 OFFCURVE",
"151 460 CURVE SMOOTH",
"63 460 OFFCURVE",
"20 385 OFFCURVE",
"20 225 CURVE SMOOTH",
"20 65 OFFCURVE",
"65 -10 OFFCURVE",
"151 -10 CURVE SMOOTH"
);
},
{
closed = 1;
nodes = (
"182 85 OFFCURVE",
"168 115 OFFCURVE",
"168 225 CURVE SMOOTH",
"168 335 OFFCURVE",
"182 365 OFFCURVE",
"212 365 CURVE SMOOTH",
"238 365 OFFCURVE",
"256 335 OFFCURVE",
"256 225 CURVE SMOOTH",
"256 115 OFFCURVE",
"238 85 OFFCURVE",
"212 85 CURVE SMOOTH"
);
}
);
width = 439;
},
{
background = {
paths = (
{
closed = 1;
nodes = (
"197 -12 OFFCURVE",
"227 14 OFFCURVE",
"247 53 CURVE",
"251 53 LINE",
"251 0 LINE",
"465 0 LINE",
"465 108 LINE",
"450 108 LINE SMOOTH",
"432 108 OFFCURVE",
"427 118 OFFCURVE",
"427 133 CURVE SMOOTH",
"427 665 LINE",
"190 665 LINE",
"190 557 LINE",
"220 557 LINE SMOOTH",
"245 557 OFFCURVE",
"251 548 OFFCURVE",
"251 516 CURVE SMOOTH",
"251 422 LINE",
"247 422 LINE",
"234 451 OFFCURVE",
"207 477 OFFCURVE",
"151 477 CURVE SMOOTH",
"57 477 OFFCURVE",
"4 406 OFFCURVE",
"4 225 CURVE SMOOTH",
"4 52 OFFCURVE",
"52 -12 OFFCURVE",
"141 -12 CURVE SMOOTH"
);
},
{
closed = 1;
nodes = (
"210 120 OFFCURVE",
"202 135 OFFCURVE",
"202 235 CURVE SMOOTH",
"202 335 OFFCURVE",
"210 345 OFFCURVE",
"228 345 CURVE SMOOTH",
"246 345 OFFCURVE",
"251 335 OFFCURVE",
"251 235 CURVE SMOOTH",
"251 135 OFFCURVE",
"246 120 OFFCURVE",
"228 120 CURVE SMOOTH"
);
},
{
closed = 1;
nodes = (
"197 -12 OFFCURVE",
"227 14 OFFCURVE",
"247 53 CURVE",
"251 53 LINE",
"251 0 LINE",
"465 0 LINE",
"465 108 LINE",
"450 108 LINE SMOOTH",
"432 108 OFFCURVE",
"427 118 OFFCURVE",
"427 133 CURVE SMOOTH",
"427 665 LINE",
"190 665 LINE",
"190 557 LINE",
"220 557 LINE SMOOTH",
"245 557 OFFCURVE",
"251 548 OFFCURVE",
"251 516 CURVE SMOOTH",
"251 422 LINE",
"247 422 LINE",
"234 451 OFFCURVE",
"207 477 OFFCURVE",
"151 477 CURVE SMOOTH",
"57 477 OFFCURVE",
"4 406 OFFCURVE",
"4 225 CURVE SMOOTH",
"4 52 OFFCURVE",
"52 -12 OFFCURVE",
"141 -12 CURVE SMOOTH"
);
},
{
closed = 1;
nodes = (
"210 120 OFFCURVE",
"202 135 OFFCURVE",
"202 235 CURVE SMOOTH",
"202 335 OFFCURVE",
"210 345 OFFCURVE",
"228 345 CURVE SMOOTH",
"246 345 OFFCURVE",
"251 335 OFFCURVE",
"251 235 CURVE SMOOTH",
"251 135 OFFCURVE",
"246 120 OFFCURVE",
"228 120 CURVE SMOOTH"
);
}
);
};
layerId = "B817C739-5D48-43E8-AAEE-CE891513D7BC";
name = "Bold Condensed";
paths = (
{
closed = 1;
nodes = (
"197 -12 OFFCURVE",
"227 14 OFFCURVE",
"247 53 CURVE",
"251 53 LINE",
"251 0 LINE",
"465 0 LINE",
"465 108 LINE",
"450 108 LINE SMOOTH",
"432 108 OFFCURVE",
"427 118 OFFCURVE",
"427 133 CURVE SMOOTH",
"427 665 LINE",
"190 665 LINE",
"190 557 LINE",
"220 557 LINE SMOOTH",
"245 557 OFFCURVE",
"251 548 OFFCURVE",
"251 516 CURVE SMOOTH",
"251 422 LINE",
"247 422 LINE",
"234 451 OFFCURVE",
"207 477 OFFCURVE",
"150 477 CURVE SMOOTH",
"55 477 OFFCURVE",
"4 406 OFFCURVE",
"4 228 CURVE SMOOTH",
"4 52 OFFCURVE",
"54 -12 OFFCURVE",
"141 -12 CURVE SMOOTH"
);
},
{
closed = 1;
nodes = (
"212 120 OFFCURVE",
"202 136 OFFCURVE",
"202 235 CURVE SMOOTH",
"202 333 OFFCURVE",
"213 345 OFFCURVE",
"227 345 CURVE SMOOTH",
"243 345 OFFCURVE",
"251 330 OFFCURVE",
"251 235 CURVE SMOOTH",
"251 139 OFFCURVE",
"243 120 OFFCURVE",
"227 120 CURVE SMOOTH"
);
}
);
width = 466;
}
);
leftMetricsKey = "=o-2";
unicode = 0064;
},
{
glyphname = e;
lastChange = "2015-03-30 14:51:28 +0000";
layers = (
{
layerId = UUID0;
name = "Light Extended";
paths = (
{
closed = 1;
nodes = (
"380 -10 OFFCURVE",
"458 57 OFFCURVE",
"458 175 CURVE",
"421 175 LINE",
"419 82 OFFCURVE",
"364 26 OFFCURVE",
"261 26 CURVE SMOOTH",
"157 26 OFFCURVE",
"99 83 OFFCURVE",
"98 221 CURVE",
"456 221 LINE",
"457 230 OFFCURVE",
"458 240 OFFCURVE",
"458 257 CURVE SMOOTH",
"458 383 OFFCURVE",
"382 460 OFFCURVE",
"262 460 CURVE SMOOTH",
"135 460 OFFCURVE",
"53 376 OFFCURVE",
"53 224 CURVE SMOOTH",
"53 76 OFFCURVE",
"130 -10 OFFCURVE",
"263 -10 CURVE SMOOTH"
);
},
{
closed = 1;
nodes = (
"99 254 LINE",
"107 372 OFFCURVE",
"163 424 OFFCURVE",
"260 424 CURVE SMOOTH",
"363 424 OFFCURVE",
"415 365 OFFCURVE",
"415 254 CURVE"
);
}
);
width = 509;
},
{
background = {
paths = (
{
closed = 1;
nodes = (
"469 -10 OFFCURVE",
"552 87 OFFCURVE",
"552 225 CURVE SMOOTH",
"552 363 OFFCURVE",
"470 460 OFFCURVE",
"298 460 CURVE SMOOTH",
"126 460 OFFCURVE",
"44 363 OFFCURVE",
"44 225 CURVE SMOOTH",
"44 87 OFFCURVE",
"125 -10 OFFCURVE",
"297 -10 CURVE SMOOTH"
);
},
{
closed = 1;
nodes = (
"215 85 OFFCURVE",
"183 140 OFFCURVE",
"183 224 CURVE SMOOTH",
"183 309 OFFCURVE",
"215 365 OFFCURVE",
"298 365 CURVE SMOOTH",
"380 365 OFFCURVE",
"412 309 OFFCURVE",
"412 224 CURVE SMOOTH",
"412 140 OFFCURVE",
"380 85 OFFCURVE",
"298 85 CURVE SMOOTH"
);
}
);
};
layerId = "4355E1B8-19E6-44BD-A1D7-6E3C2DECA4C8";
name = Extended;
paths = (
{
closed = 1;
nodes = (
"444 -10 OFFCURVE",
"529 75 OFFCURVE",
"529 175 CURVE",
"407 175 LINE",
"407 116 OFFCURVE",
"366 80 OFFCURVE",
"298 80 CURVE SMOOTH",
"226 80 OFFCURVE",
"189 120 OFFCURVE",
"182 201 CURVE",
"527 201 LINE",
"528 220 OFFCURVE",
"529 231 OFFCURVE",
"529 245 CURVE SMOOTH",
"529 371 OFFCURVE",
"443 460 OFFCURVE",
"292 460 CURVE SMOOTH",
"133 460 OFFCURVE",
"44 362 OFFCURVE",
"44 226 CURVE SMOOTH",
"44 87 OFFCURVE",
"136 -10 OFFCURVE",
"295 -10 CURVE SMOOTH"
);
},
{
closed = 1;
nodes = (
"183 268 LINE",
"192 337 OFFCURVE",
"229 369 OFFCURVE",
"298 369 CURVE SMOOTH",
"355 369 OFFCURVE",
"393 347 OFFCURVE",
"399 268 CURVE"
);
}
);
width = 571;
},
{
background = {
paths = (
{
closed = 1;
nodes = (
"488 -10 OFFCURVE",
"604 41 OFFCURVE",
"625 181 CURVE",
"404 181 LINE",
"392 151 OFFCURVE",
"371 138 OFFCURVE",
"335 138 CURVE SMOOTH",
"290 138 OFFCURVE",
"269 157 OFFCURVE",
"264 205 CURVE",
"630 205 LINE",
"630 239 LINE SMOOTH",
"630 413 OFFCURVE",
"514 490 OFFCURVE",
"333 490 CURVE SMOOTH",
"132 490 OFFCURVE",
"18 409 OFFCURVE",
"18 239 CURVE SMOOTH",
"18 69 OFFCURVE",
"137 -10 OFFCURVE",
"326 -10 CURVE SMOOTH"
);
},
{
closed = 1;
nodes = (
"264 277 LINE",
"264 318 OFFCURVE",
"288 347 OFFCURVE",
"328 347 CURVE SMOOTH",
"368 347 OFFCURVE",
"390 317 OFFCURVE",
"390 277 CURVE"
);
}
);
};
layerId = "14C77FDB-037D-4842-9381-6D9ED15DD48C";
name = "Bold Extended";
paths = (
{
closed = 1;
nodes = (
"478 -10 OFFCURVE",
"586 41 OFFCURVE",
"605 181 CURVE",
"421 181 LINE",
"414 146 OFFCURVE",
"382 124 OFFCURVE",
"338 124 CURVE SMOOTH",
"288 124 OFFCURVE",
"256 153 OFFCURVE",
"250 205 CURVE",
"610 205 LINE",
"610 216 OFFCURVE",
"610 228 OFFCURVE",
"610 239 CURVE SMOOTH",
"610 413 OFFCURVE",
"502 490 OFFCURVE",
"333 490 CURVE SMOOTH",
"132 490 OFFCURVE",
"18 409 OFFCURVE",
"18 239 CURVE SMOOTH",
"18 69 OFFCURVE",
"137 -10 OFFCURVE",
"326 -10 CURVE SMOOTH"
);
},
{
closed = 1;
nodes = (
"250 277 LINE",
"250 324 OFFCURVE",
"283 359 OFFCURVE",
"328 359 CURVE SMOOTH",
"372 359 OFFCURVE",
"402 325 OFFCURVE",
"402 277 CURVE"
);
}
);
width = 626;
},
{
background = {
paths = (
{
closed = 1;
nodes = (
"262 -10 OFFCURVE",
"314 75 OFFCURVE",
"314 225 CURVE SMOOTH",
"314 375 OFFCURVE",
"262 460 OFFCURVE",
"176 460 CURVE SMOOTH",
"90 460 OFFCURVE",
"38 375 OFFCURVE",
"38 225 CURVE SMOOTH",
"38 75 OFFCURVE",
"90 -10 OFFCURVE",
"176 -10 CURVE SMOOTH"
);
},
{
closed = 1;
nodes = (
"117 25 OFFCURVE",
"82 79 OFFCURVE",
"82 225 CURVE SMOOTH",
"82 371 OFFCURVE",
"117 425 OFFCURVE",
"176 425 CURVE SMOOTH",
"236 425 OFFCURVE",
"270 371 OFFCURVE",
"270 225 CURVE SMOOTH",
"270 79 OFFCURVE",
"236 25 OFFCURVE",
"176 25 CURVE SMOOTH"
);
}
);
};
layerId = "E9E6D55E-9446-45F2-B66C-3272698B0216";
name = "Light Condensed";
paths = (
{
closed = 1;
nodes = (
"249 -10 OFFCURVE",
"296 56 OFFCURVE",
"296 175 CURVE",
"263 175 LINE",
"261 80 OFFCURVE",
"235 24 OFFCURVE",
"173 24 CURVE SMOOTH",
"117 24 OFFCURVE",
"81 81 OFFCURVE",
"81 222 CURVE",
"295 222 LINE",
"296 230 OFFCURVE",
"296 240 OFFCURVE",
"296 258 CURVE SMOOTH",
"296 384 OFFCURVE",
"251 460 OFFCURVE",
"174 460 CURVE SMOOTH",
"93 460 OFFCURVE",
"38 377 OFFCURVE",
"38 223 CURVE SMOOTH",
"38 76 OFFCURVE",
"87 -10 OFFCURVE",
"173 -10 CURVE SMOOTH"
);
},
{
closed = 1;
nodes = (
"82 252 LINE",
"85 376 OFFCURVE",
"122 426 OFFCURVE",
"174 426 CURVE SMOOTH",
"233 426 OFFCURVE",
"257 356 OFFCURVE",
"257 252 CURVE"
);
}
);
width = 332;
},
{
background = {
paths = (
{
closed = 1;
nodes = (
"315 -10 OFFCURVE",
"381 61 OFFCURVE",
"381 175 CURVE",
"267 175 LINE",
"267 113 OFFCURVE",
"248 80 OFFCURVE",
"211 80 CURVE SMOOTH",
"176 80 OFFCURVE",
"160 111 OFFCURVE",
"160 201 CURVE",
"381 201 LINE",
"383 219 OFFCURVE",
"383 230 OFFCURVE",
"383 247 CURVE SMOOTH",
"383 383 OFFCURVE",
"323 460 OFFCURVE",
"210 460 CURVE SMOOTH",
"93 460 OFFCURVE",
"22 377 OFFCURVE",
"22 223 CURVE SMOOTH",
"22 73 OFFCURVE",
"89 -10 OFFCURVE",
"206 -10 CURVE SMOOTH"
);
},
{
closed = 1;
nodes = (
"160 268 LINE",
"160 346 OFFCURVE",
"179 369 OFFCURVE",
"211 369 CURVE SMOOTH",
"243 369 OFFCURVE",
"258 346 OFFCURVE",
"258 268 CURVE"
);
}
);
};
layerId = "B25F85BC-C782-4067-8484-07202F80B8CD";
name = Condensed;
paths = (
{
closed = 1;
nodes = (
"315 -10 OFFCURVE",
"381 61 OFFCURVE",
"381 175 CURVE",
"267 175 LINE",
"267 113 OFFCURVE",
"248 80 OFFCURVE",
"211 80 CURVE SMOOTH",
"176 80 OFFCURVE",
"160 111 OFFCURVE",
"160 201 CURVE",
"381 201 LINE",
"383 219 OFFCURVE",
"383 230 OFFCURVE",
"383 247 CURVE SMOOTH",
"383 383 OFFCURVE",
"323 460 OFFCURVE",
"210 460 CURVE SMOOTH",
"93 460 OFFCURVE",
"22 377 OFFCURVE",
"22 223 CURVE SMOOTH",
"22 73 OFFCURVE",
"89 -10 OFFCURVE",
"206 -10 CURVE SMOOTH"
);
},
{
closed = 1;
nodes = (
"160 270 LINE",
"160 346 OFFCURVE",
"179 369 OFFCURVE",
"211 369 CURVE SMOOTH",
"243 369 OFFCURVE",
"258 346 OFFCURVE",
"258 270 CURVE"
);
}
);
width = 403;
},
{
background = {
paths = (
{
closed = 1;
nodes = (
"346 -10 OFFCURVE",
"415 59 OFFCURVE",
"423 171 CURVE",
"262 171 LINE",
"262 137 OFFCURVE",
"254 112 OFFCURVE",
"226 112 CURVE SMOOTH",
"197 112 OFFCURVE",
"187 139 OFFCURVE",
"187 206 CURVE",
"424 206 LINE",
"425 216 OFFCURVE",
"425 221 OFFCURVE",
"425 246 CURVE SMOOTH",
"425 396 OFFCURVE",
"359 475 OFFCURVE",
"222 475 CURVE SMOOTH",
"80 475 OFFCURVE",
"6 391 OFFCURVE",
"6 230 CURVE SMOOTH",
"6 72 OFFCURVE",
"78 -10 OFFCURVE",
"218 -10 CURVE SMOOTH"
);
},
{
closed = 1;
nodes = (
"189 284 LINE",
"190 337 OFFCURVE",
"200 353 OFFCURVE",
"220 353 CURVE SMOOTH",
"242 353 OFFCURVE",
"249 333 OFFCURVE",
"249 284 CURVE"
);
}
);
};
layerId = "B817C739-5D48-43E8-AAEE-CE891513D7BC";
name = "Bold Condensed";
paths = (
{
closed = 1;
nodes = (
"346 -12 OFFCURVE",
"416 59 OFFCURVE",
"424 171 CURVE",
"264 171 LINE",
"264 137 OFFCURVE",
"254 110 OFFCURVE",
"226 110 CURVE SMOOTH",
"197 110 OFFCURVE",
"187 139 OFFCURVE",
"187 206 CURVE",
"425 206 LINE",
"426 216 OFFCURVE",
"426 221 OFFCURVE",
"426 246 CURVE SMOOTH",
"426 396 OFFCURVE",
"359 477 OFFCURVE",
"222 477 CURVE SMOOTH",
"80 477 OFFCURVE",
"6 391 OFFCURVE",
"6 230 CURVE SMOOTH",
"6 72 OFFCURVE",
"78 -12 OFFCURVE",
"218 -12 CURVE SMOOTH"
);
},
{
closed = 1;
nodes = (
"189 284 LINE",
"190 337 OFFCURVE",
"200 355 OFFCURVE",
"220 355 CURVE SMOOTH",
"242 355 OFFCURVE",
"250 333 OFFCURVE",
"250 284 CURVE"
);
}
);
width = 430;
}
);
leftMetricsKey = o;
rightMetricsKey = "=o-2";
unicode = 0065;
},
{
glyphname = f;
lastChange = "2015-03-30 02:18:58 +0000";
layers = (
{
background = {
paths = (
{
closed = 1;
nodes = (
"212 0 LINE",
"212 25 LINE",
"157 25 LINE SMOOTH",
"133 25 OFFCURVE",
"124 38 OFFCURVE",
"124 57 CURVE SMOOTH",
"124 520 LINE SMOOTH",
"124 608 OFFCURVE",
"152 644 OFFCURVE",
"197 644 CURVE SMOOTH",
"229 644 OFFCURVE",
"253 625 OFFCURVE",
"253 600 CURVE SMOOTH",
"253 576 OFFCURVE",
"232 575 OFFCURVE",
"232 551 CURVE SMOOTH",
"232 533 OFFCURVE",
"243 520 OFFCURVE",
"262 520 CURVE SMOOTH",
"286 520 OFFCURVE",
"299 540 OFFCURVE",
"299 574 CURVE SMOOTH",
"299 634 OFFCURVE",
"259 675 OFFCURVE",
"196 675 CURVE SMOOTH",
"130 675 OFFCURVE",
"84 630 OFFCURVE",
"84 520 CURVE SMOOTH",
"84 57 LINE SMOOTH",
"84 38 OFFCURVE",
"78 25 OFFCURVE",
"57 25 CURVE SMOOTH",
"10 25 LINE",
"10 0 LINE"
);
},
{
closed = 1;
nodes = (
"212 423 LINE",
"212 450 LINE",
"10 450 LINE",
"10 423 LINE"
);
}
);
};
layerId = "E9E6D55E-9446-45F2-B66C-3272698B0216";
name = "Light Condensed";
paths = (
{
closed = 1;
nodes = (
"212 0 LINE",
"212 25 LINE",
"159 25 LINE SMOOTH",
"135 25 OFFCURVE",
"126 38 OFFCURVE",
"126 57 CURVE SMOOTH",
"126 520 LINE SMOOTH",
"126 608 OFFCURVE",
"155 643 OFFCURVE",
"202 643 CURVE SMOOTH",
"231 643 OFFCURVE",
"253 628 OFFCURVE",
"253 605 CURVE SMOOTH",
"253 582 OFFCURVE",
"232 580 OFFCURVE",
"232 557 CURVE SMOOTH",
"232 540 OFFCURVE",
"243 527 OFFCURVE",
"263 527 CURVE SMOOTH",
"287 527 OFFCURVE",
"299 546 OFFCURVE",
"299 579 CURVE SMOOTH",
"299 636 OFFCURVE",
"264 675 OFFCURVE",
"202 675 CURVE SMOOTH",
"136 675 OFFCURVE",
"86 630 OFFCURVE",
"86 520 CURVE SMOOTH",
"86 57 LINE SMOOTH",
"86 38 OFFCURVE",
"80 25 OFFCURVE",
"59 25 CURVE SMOOTH",
"10 25 LINE",
"10 0 LINE"
);
},
{
closed = 1;
nodes = (
"212 423 LINE",
"212 450 LINE",
"10 450 LINE",
"10 423 LINE"
);
}
);
width = 227;
},
{
layerId = "B25F85BC-C782-4067-8484-07202F80B8CD";
name = Condensed;
paths = (
{
closed = 1;
nodes = (
"276 0 LINE",
"276 80 LINE",
"238 80 LINE SMOOTH",
"220 80 OFFCURVE",
"210 89 OFFCURVE",
"210 107 CURVE SMOOTH",
"210 525 LINE SMOOTH",
"210 573 OFFCURVE",
"222 599 OFFCURVE",
"242 599 CURVE SMOOTH",
"256 599 OFFCURVE",
"265 590 OFFCURVE",
"265 578 CURVE SMOOTH",
"265 562 OFFCURVE",
"250 553 OFFCURVE",
"250 530 CURVE SMOOTH",
"250 502 OFFCURVE",
"273 483 OFFCURVE",
"307 483 CURVE SMOOTH",
"349 483 OFFCURVE",
"375 513 OFFCURVE",
"375 563 CURVE SMOOTH",
"375 633 OFFCURVE",
"324 675 OFFCURVE",
"237 675 CURVE SMOOTH",
"136 675 OFFCURVE",
"80 614 OFFCURVE",
"80 500 CURVE SMOOTH",
"80 112 LINE SMOOTH",
"80 90 OFFCURVE",
"72 80 OFFCURVE",
"53 80 CURVE SMOOTH",
"17 80 LINE",
"17 0 LINE"
);
},
{
closed = 1;
nodes = (
"284 370 LINE",
"284 450 LINE",
"16 450 LINE",
"16 370 LINE"
);
}
);
width = 300;
},
{
layerId = "B817C739-5D48-43E8-AAEE-CE891513D7BC";
name = "Bold Condensed";
paths = (
{
closed = 1;
nodes = (
"283 0 LINE",
"283 108 LINE",
"252 108 LINE SMOOTH",
"234 108 OFFCURVE",
"224 117 OFFCURVE",
"224 135 CURVE SMOOTH",
"224 545 LINE SMOOTH",
"224 575 OFFCURVE",
"233 589 OFFCURVE",
"251 589 CURVE SMOOTH",
"264 589 OFFCURVE",
"273 582 OFFCURVE",
"273 570 CURVE SMOOTH",
"273 555 OFFCURVE",
"258 553 OFFCURVE",
"258 530 CURVE SMOOTH",
"258 498 OFFCURVE",
"281 478 OFFCURVE",
"335 478 CURVE SMOOTH",
"394 478 OFFCURVE",
"425 511 OFFCURVE",
"425 562 CURVE SMOOTH",
"425 632 OFFCURVE",
"358 675 OFFCURVE",
"248 675 CURVE SMOOTH",
"117 675 OFFCURVE",
"48 615 OFFCURVE",
"48 500 CURVE SMOOTH",
"48 140 LINE SMOOTH",
"48 119 OFFCURVE",
"38 108 OFFCURVE",
"19 108 CURVE SMOOTH",
"6 108 LINE",
"6 0 LINE"
);
},
{
closed = 1;
nodes = (
"300 358 LINE",
"300 466 LINE",
"5 466 LINE",
"5 358 LINE"
);
}
);
width = 305;
},
{
layerId = UUID0;
name = "Light Extended";
paths = (
{
closed = 1;
nodes = (
"296 0 LINE",
"296 27 LINE",
"219 27 LINE SMOOTH",
"197 27 OFFCURVE",
"186 38 OFFCURVE",
"186 59 CURVE SMOOTH",
"186 480 LINE SMOOTH",
"186 591 OFFCURVE",
"219 644 OFFCURVE",
"295 644 CURVE SMOOTH",
"341 644 OFFCURVE",
"372 625 OFFCURVE",
"372 594 CURVE SMOOTH",
"372 567 OFFCURVE",
"348 562 OFFCURVE",
"348 537 CURVE SMOOTH",
"348 518 OFFCURVE",
"362 504 OFFCURVE",
"380 504 CURVE SMOOTH",
"403 504 OFFCURVE",
"418 527 OFFCURVE",
"418 566 CURVE SMOOTH",
"418 634 OFFCURVE",
"372 675 OFFCURVE",
"295 675 CURVE SMOOTH",
"197 675 OFFCURVE",
"146 608 OFFCURVE",
"146 480 CURVE SMOOTH",
"146 59 LINE SMOOTH",
"146 37 OFFCURVE",
"138 27 OFFCURVE",
"119 27 CURVE SMOOTH",
"36 27 LINE",
"36 0 LINE"
);
},
{
closed = 1;
nodes = (
"296 418 LINE",
"296 450 LINE",
"36 450 LINE",
"36 418 LINE"
);
}
);
width = 344;
},
{
layerId = "4355E1B8-19E6-44BD-A1D7-6E3C2DECA4C8";
name = Extended;
paths = (
{
closed = 1;
nodes = (
"350 0 LINE",
"350 80 LINE",
"278 80 LINE SMOOTH",
"260 80 OFFCURVE",
"250 89 OFFCURVE",
"250 107 CURVE SMOOTH",
"250 515 LINE SMOOTH",
"250 569 OFFCURVE",
"275 599 OFFCURVE",
"316 599 CURVE SMOOTH",
"348 599 OFFCURVE",
"369 590 OFFCURVE",
"369 578 CURVE SMOOTH",
"369 562 OFFCURVE",
"354 553 OFFCURVE",
"354 530 CURVE SMOOTH",
"354 502 OFFCURVE",
"377 483 OFFCURVE",
"411 483 CURVE SMOOTH",
"453 483 OFFCURVE",
"479 513 OFFCURVE",
"479 563 CURVE SMOOTH",
"479 633 OFFCURVE",
"416 675 OFFCURVE",
"311 675 CURVE SMOOTH",
"189 675 OFFCURVE",
"120 611 OFFCURVE",
"120 490 CURVE SMOOTH",
"120 112 LINE SMOOTH",
"120 90 OFFCURVE",
"112 80 OFFCURVE",
"93 80 CURVE SMOOTH",
"22 80 LINE",
"22 0 LINE"
);
},
{
closed = 1;
nodes = (
"374 370 LINE",
"374 450 LINE",
"20 450 LINE",
"20 370 LINE"
);
}
);
width = 380;
},
{
layerId = "14C77FDB-037D-4842-9381-6D9ED15DD48C";
name = "Bold Extended";
paths = (
{
closed = 1;
nodes = (
"405 0 LINE",
"405 142 LINE",
"344 142 LINE SMOOTH",
"324 142 OFFCURVE",
"316 150 OFFCURVE",
"316 169 CURVE SMOOTH",
"316 505 LINE SMOOTH",
"316 550 OFFCURVE",
"332 569 OFFCURVE",
"368 569 CURVE SMOOTH",
"391 569 OFFCURVE",
"405 561 OFFCURVE",
"405 549 CURVE SMOOTH",
"405 537 OFFCURVE",
"390 529 OFFCURVE",
"390 507 CURVE SMOOTH",
"390 474 OFFCURVE",
"425 453 OFFCURVE",
"475 453 CURVE SMOOTH",
"545 453 OFFCURVE",
"587 493 OFFCURVE",
"587 554 CURVE SMOOTH",
"587 636 OFFCURVE",
"509 675 OFFCURVE",
"362 675 CURVE SMOOTH",
"175 675 OFFCURVE",
"86 612 OFFCURVE",
"86 480 CURVE SMOOTH",
"86 174 LINE SMOOTH",
"86 151 OFFCURVE",
"79 142 OFFCURVE",
"62 142 CURVE SMOOTH",
"5 142 LINE",
"5 0 LINE"
);
},
{
closed = 1;
nodes = (
"414 318 LINE",
"414 460 LINE",
"4 460 LINE",
"4 318 LINE"
);
}
);
width = 437;
}
);
unicode = 0066;
},
{
glyphname = g;
lastChange = "2015-03-30 14:50:55 +0000";
layers = (
{
layerId = "E9E6D55E-9446-45F2-B66C-3272698B0216";
name = "Light Condensed";
paths = (
{
closed = 1;
nodes = (
"228 130 OFFCURVE",
"270 189 OFFCURVE",
"270 295 CURVE SMOOTH",
"270 401 OFFCURVE",
"228 460 OFFCURVE",
"152 460 CURVE SMOOTH",
"77 460 OFFCURVE",
"34 401 OFFCURVE",
"34 296 CURVE SMOOTH",
"34 190 OFFCURVE",
"77 130 OFFCURVE",
"153 130 CURVE SMOOTH"
);
},
{
closed = 1;
nodes = (
"101 164 OFFCURVE",
"78 205 OFFCURVE",
"78 295 CURVE SMOOTH",
"78 385 OFFCURVE",
"101 425 OFFCURVE",
"152 425 CURVE SMOOTH",
"203 425 OFFCURVE",
"226 385 OFFCURVE",
"226 295 CURVE SMOOTH",
"226 205 OFFCURVE",
"203 166 OFFCURVE",
"152 165 CURVE SMOOTH"
);
},
{
closed = 1;
nodes = (
"292 450 OFFCURVE",
"302 441 OFFCURVE",
"302 426 CURVE SMOOTH",
"302 405 OFFCURVE",
"284 400 OFFCURVE",
"284 376 CURVE SMOOTH",
"284 358 OFFCURVE",
"295 347 OFFCURVE",
"314 347 CURVE SMOOTH",
"337 347 OFFCURVE",
"350 365 OFFCURVE",
"350 396 CURVE SMOOTH",
"350 444 OFFCURVE",
"321 477 OFFCURVE",
"280 477 CURVE SMOOTH",
"240 477 OFFCURVE",
"204 445 OFFCURVE",
"204 409 CURVE",
"228 387 LINE",
"228 422 OFFCURVE",
"250 450 OFFCURVE",
"277 450 CURVE SMOOTH"
);
},
{
closed = 1;
nodes = (
"246 2 OFFCURVE",
"279 -27 OFFCURVE",
"279 -90 CURVE SMOOTH",
"279 -159 OFFCURVE",
"237 -192 OFFCURVE",
"167 -192 CURVE SMOOTH",
"98 -192 OFFCURVE",
"56 -159 OFFCURVE",
"56 -98 CURVE SMOOTH",
"56 -39 OFFCURVE",
"96 2 OFFCURVE",
"153 2 CURVE SMOOTH",
"194 2 LINE SMOOTH"
);
},
{
closed = 1;
nodes = (
"59 141 OFFCURVE",
"44 108 OFFCURVE",
"43 82 CURVE SMOOTH",
"42 59 OFFCURVE",
"52 30 OFFCURVE",
"87 19 CURVE",
"87 15 LINE",
"47 1 OFFCURVE",
"19 -47 OFFCURVE",
"19 -98 CURVE SMOOTH",
"19 -170 OFFCURVE",
"75 -226 OFFCURVE",
"167 -226 CURVE SMOOTH",
"255 -226 OFFCURVE",
"319 -174 OFFCURVE",
"319 -84 CURVE SMOOTH",
"319 -8 OFFCURVE",
"275 39 OFFCURVE",
"192 39 CURVE SMOOTH",
"131 39 LINE SMOOTH",
"98 39 OFFCURVE",
"78 56 OFFCURVE",
"78 80 CURVE SMOOTH",
"78 114 OFFCURVE",
"117 130 OFFCURVE",
"153 130 CURVE",
"106 151 LINE"
);
}
);
width = 328;
},
{
background = {
paths = (
{
closed = 1;
nodes = (
"303 130 OFFCURVE",
"364 190 OFFCURVE",
"364 295 CURVE SMOOTH",
"364 400 OFFCURVE",
"303 460 OFFCURVE",
"196 460 CURVE SMOOTH",
"90 460 OFFCURVE",
"28 400 OFFCURVE",
"28 296 CURVE SMOOTH",
"28 191 OFFCURVE",
"90 130 OFFCURVE",
"197 130 CURVE SMOOTH"
);
},
{
closed = 1;
nodes = (
"169 215 OFFCURVE",
"155 241 OFFCURVE",
"155 295 CURVE SMOOTH",
"155 349 OFFCURVE",
"168 375 OFFCURVE",
"196 375 CURVE SMOOTH",
"224 375 OFFCURVE",
"237 349 OFFCURVE",
"237 294 CURVE SMOOTH",
"237 240 OFFCURVE",
"224 215 OFFCURVE",
"197 215 CURVE SMOOTH"
);
},
{
closed = 1;
nodes = (
"375 430 OFFCURVE",
"382 423 OFFCURVE",
"382 412 CURVE SMOOTH",
"382 396 OFFCURVE",
"368 390 OFFCURVE",
"368 370 CURVE SMOOTH",
"368 349 OFFCURVE",
"383 337 OFFCURVE",
"407 337 CURVE SMOOTH",
"438 337 OFFCURVE",
"454 357 OFFCURVE",
"454 396 CURVE SMOOTH",
"454 452 OFFCURVE",
"420 487 OFFCURVE",
"367 487 CURVE SMOOTH",
"316 487 OFFCURVE",
"278 454 OFFCURVE",
"278 409 CURVE",
"322 377 LINE",
"322 407 OFFCURVE",
"340 430 OFFCURVE",
"362 430 CURVE SMOOTH"
);
},
{
closed = 1;
nodes = (
"248 -24 OFFCURVE",
"270 -45 OFFCURVE",
"270 -80 CURVE SMOOTH",
"270 -119 OFFCURVE",
"244 -141 OFFCURVE",
"196 -141 CURVE SMOOTH",
"152 -141 OFFCURVE",
"128 -122 OFFCURVE",
"128 -85 CURVE SMOOTH",
"128 -50 OFFCURVE",
"149 -24 OFFCURVE",
"177 -24 CURVE SMOOTH",
"210 -24 LINE SMOOTH"
);
},
{
closed = 1;
nodes = (
"46 174 OFFCURVE",
"9 139 OFFCURVE",
"9 85 CURVE SMOOTH",
"9 39 OFFCURVE",
"50 5 OFFCURVE",
"100 -4 CURVE",
"100 -8 LINE",
"38 -14 OFFCURVE",
"4 -50 OFFCURVE",
"4 -109 CURVE SMOOTH",
"4 -188 OFFCURVE",
"65 -226 OFFCURVE",
"191 -226 CURVE SMOOTH",
"333 -226 OFFCURVE",
"404 -177 OFFCURVE",
"404 -79 CURVE SMOOTH",
"404 9 OFFCURVE",
"336 61 OFFCURVE",
"257 61 CURVE SMOOTH",
"159 61 LINE SMOOTH",
"117 61 OFFCURVE",
"99 80 OFFCURVE",
"99 101 CURVE SMOOTH",
"99 125 OFFCURVE",
"118 135 OFFCURVE",
"165 135 CURVE",
"117 174 LINE"
);
}
);
};
layerId = "B25F85BC-C782-4067-8484-07202F80B8CD";
name = Condensed;
paths = (
{
closed = 1;
nodes = (
"302 134 OFFCURVE",
"363 193 OFFCURVE",
"363 296 CURVE SMOOTH",
"363 400 OFFCURVE",
"302 460 OFFCURVE",
"195 460 CURVE SMOOTH",
"89 460 OFFCURVE",
"27 400 OFFCURVE",
"27 297 CURVE SMOOTH",
"27 194 OFFCURVE",
"89 134 OFFCURVE",
"196 133 CURVE SMOOTH"
);
},
{
closed = 1;
nodes = (
"168 222 OFFCURVE",
"153 246 OFFCURVE",
"153 297 CURVE SMOOTH",
"153 347 OFFCURVE",
"167 372 OFFCURVE",
"195 372 CURVE SMOOTH",
"223 372 OFFCURVE",
"237 347 OFFCURVE",
"237 295 CURVE SMOOTH",
"237 245 OFFCURVE",
"223 222 OFFCURVE",
"196 221 CURVE SMOOTH"
);
},
{
closed = 1;
nodes = (
"374 430 OFFCURVE",
"381 423 OFFCURVE",
"381 412 CURVE SMOOTH",
"381 396 OFFCURVE",
"367 390 OFFCURVE",
"367 370 CURVE SMOOTH",
"367 349 OFFCURVE",
"382 337 OFFCURVE",
"406 337 CURVE SMOOTH",
"437 337 OFFCURVE",
"453 357 OFFCURVE",
"453 396 CURVE SMOOTH",
"453 452 OFFCURVE",
"419 487 OFFCURVE",
"366 487 CURVE SMOOTH",
"315 487 OFFCURVE",
"277 454 OFFCURVE",
"277 409 CURVE",
"321 377 LINE",
"321 407 OFFCURVE",
"339 430 OFFCURVE",
"361 430 CURVE SMOOTH"
);
},
{
closed = 1;
nodes = (
"276 -30 OFFCURVE",
"304 -43 OFFCURVE",
"304 -74 CURVE SMOOTH",
"304 -110 OFFCURVE",
"266 -127 OFFCURVE",
"194 -127 CURVE SMOOTH",
"144 -127 OFFCURVE",
"107 -119 OFFCURVE",
"107 -78 CURVE SMOOTH",
"107 -42 OFFCURVE",
"130 -30 OFFCURVE",
"171 -30 CURVE SMOOTH",
"228 -30 LINE SMOOTH"
);
},
{
closed = 1;
nodes = (
"48 163 OFFCURVE",
"24 125 OFFCURVE",
"24 84 CURVE SMOOTH",
"24 46 OFFCURVE",
"45 5 OFFCURVE",
"85 -3 CURVE",
"85 -7 LINE",
"53 -12 OFFCURVE",
"9 -48 OFFCURVE",
"9 -113 CURVE SMOOTH",
"9 -188 OFFCURVE",
"68 -226 OFFCURVE",
"186 -226 CURVE SMOOTH",
"338 -226 OFFCURVE",
"409 -164 OFFCURVE",
"409 -61 CURVE SMOOTH",
"409 36 OFFCURVE",
"347 83 OFFCURVE",
"249 83 CURVE SMOOTH",
"178 83 LINE SMOOTH",
"139 83 OFFCURVE",
"123 84 OFFCURVE",
"123 104 CURVE SMOOTH",
"123 124 OFFCURVE",
"141 131 OFFCURVE",
"196 133 CURVE",
"114 181 LINE"
);
}
);
width = 400;
},
{
background = {
paths = (
{
closed = 1;
nodes = (
"348 130 OFFCURVE",
"421 192 OFFCURVE",
"421 310 CURVE SMOOTH",
"421 428 OFFCURVE",
"348 478 OFFCURVE",
"223 478 CURVE SMOOTH",
"99 478 OFFCURVE",
"25 428 OFFCURVE",
"25 311 CURVE SMOOTH",
"25 193 OFFCURVE",
"99 130 OFFCURVE",
"224 130 CURVE SMOOTH"
);
},
{
closed = 1;
nodes = (
"203 245 OFFCURVE",
"192 265 OFFCURVE",
"192 306 CURVE SMOOTH",
"192 345 OFFCURVE",
"202 363 OFFCURVE",
"223 363 CURVE SMOOTH",
"244 363 OFFCURVE",
"254 345 OFFCURVE",
"254 304 CURVE SMOOTH",
"254 264 OFFCURVE",
"244 245 OFFCURVE",
"224 245 CURVE SMOOTH"
);
},
{
closed = 1;
nodes = (
"437 444 OFFCURVE",
"444 438 OFFCURVE",
"444 428 CURVE SMOOTH",
"444 415 OFFCURVE",
"433 411 OFFCURVE",
"433 393 CURVE SMOOTH",
"433 367 OFFCURVE",
"457 356 OFFCURVE",
"488 356 CURVE SMOOTH",
"524 356 OFFCURVE",
"545 373 OFFCURVE",
"545 415 CURVE SMOOTH",
"545 471 OFFCURVE",
"507 506 OFFCURVE",
"444 506 CURVE SMOOTH",
"385 506 OFFCURVE",
"353 476 OFFCURVE",
"345 435 CURVE",
"397 401 LINE",
"397 425 OFFCURVE",
"409 444 OFFCURVE",
"427 444 CURVE SMOOTH"
);
},
{
closed = 1;
nodes = (
"294 -41 OFFCURVE",
"313 -52 OFFCURVE",
"313 -69 CURVE SMOOTH",
"313 -94 OFFCURVE",
"273 -102 OFFCURVE",
"226 -102 CURVE SMOOTH",
"187 -102 OFFCURVE",
"141 -97 OFFCURVE",
"141 -72 CURVE SMOOTH",
"141 -54 OFFCURVE",
"166 -41 OFFCURVE",
"199 -41 CURVE SMOOTH",
"255 -41 LINE SMOOTH"
);
},
{
closed = 1;
nodes = (
"52 162 OFFCURVE",
"15 127 OFFCURVE",
"15 72 CURVE SMOOTH",
"15 18 OFFCURVE",
"43 -7 OFFCURVE",
"93 -18 CURVE",
"93 -22 LINE",
"35 -26 OFFCURVE",
"-3 -63 OFFCURVE",
"-3 -112 CURVE SMOOTH",
"-3 -188 OFFCURVE",
"76 -226 OFFCURVE",
"212 -226 CURVE SMOOTH",
"385 -226 OFFCURVE",
"457 -156 OFFCURVE",
"457 -56 CURVE SMOOTH",
"457 32 OFFCURVE",
"402 91 OFFCURVE",
"320 91 CURVE SMOOTH",
"182 91 LINE SMOOTH",
"147 91 OFFCURVE",
"135 98 OFFCURVE",
"135 110 CURVE SMOOTH",
"135 122 OFFCURVE",
"156 130 OFFCURVE",
"224 130 CURVE",
"123 174 LINE"
);
}
);
};
layerId = "B817C739-5D48-43E8-AAEE-CE891513D7BC";
name = "Bold Condensed";
paths = (
{
closed = 1;
nodes = (
"348 130 OFFCURVE",
"421 192 OFFCURVE",
"421 310 CURVE SMOOTH",
"421 428 OFFCURVE",
"348 478 OFFCURVE",
"223 478 CURVE SMOOTH",
"99 478 OFFCURVE",
"25 428 OFFCURVE",
"25 311 CURVE SMOOTH",
"25 193 OFFCURVE",
"99 130 OFFCURVE",
"224 130 CURVE SMOOTH"
);
},
{
closed = 1;
nodes = (
"203 245 OFFCURVE",
"192 265 OFFCURVE",
"192 306 CURVE SMOOTH",
"192 345 OFFCURVE",
"202 363 OFFCURVE",
"223 363 CURVE SMOOTH",
"244 363 OFFCURVE",
"254 345 OFFCURVE",
"254 304 CURVE SMOOTH",
"254 264 OFFCURVE",
"244 245 OFFCURVE",
"224 245 CURVE SMOOTH"
);
},
{
closed = 1;
nodes = (
"437 444 OFFCURVE",
"444 438 OFFCURVE",
"444 428 CURVE SMOOTH",
"444 415 OFFCURVE",
"433 411 OFFCURVE",
"433 393 CURVE SMOOTH",
"433 367 OFFCURVE",
"457 356 OFFCURVE",
"488 356 CURVE SMOOTH",
"524 356 OFFCURVE",
"545 373 OFFCURVE",
"545 415 CURVE SMOOTH",
"545 471 OFFCURVE",
"507 506 OFFCURVE",
"444 506 CURVE SMOOTH",
"385 506 OFFCURVE",
"353 476 OFFCURVE",
"345 435 CURVE",
"397 401 LINE",
"397 425 OFFCURVE",
"409 444 OFFCURVE",
"427 444 CURVE SMOOTH"
);
},
{
closed = 1;
nodes = (
"294 -35 OFFCURVE",
"313 -48 OFFCURVE",
"313 -69 CURVE SMOOTH",
"313 -99 OFFCURVE",
"273 -108 OFFCURVE",
"226 -108 CURVE SMOOTH",
"187 -108 OFFCURVE",
"141 -102 OFFCURVE",
"141 -72 CURVE SMOOTH",
"141 -50 OFFCURVE",
"166 -35 OFFCURVE",
"199 -35 CURVE SMOOTH",
"255 -35 LINE SMOOTH"
);
},
{
closed = 1;
nodes = (
"52 162 OFFCURVE",
"15 127 OFFCURVE",
"15 72 CURVE SMOOTH",
"15 22 OFFCURVE",
"43 -2 OFFCURVE",
"93 -12 CURVE",
"93 -16 LINE",
"35 -20 OFFCURVE",
"-3 -60 OFFCURVE",
"-3 -112 CURVE SMOOTH",
"-3 -188 OFFCURVE",
"76 -226 OFFCURVE",
"212 -226 CURVE SMOOTH",
"385 -226 OFFCURVE",
"457 -161 OFFCURVE",
"457 -53 CURVE SMOOTH",
"457 30 OFFCURVE",
"415 89 OFFCURVE",
"335 89 CURVE SMOOTH",
"182 89 LINE SMOOTH",
"147 89 OFFCURVE",
"135 97 OFFCURVE",
"135 110 CURVE SMOOTH",
"135 122 OFFCURVE",
"156 130 OFFCURVE",
"224 130 CURVE",
"123 174 LINE"
);
}
);
width = 444;
},
{
background = {
paths = (
{
closed = 1;
nodes = (
"360 130 OFFCURVE",
"429 191 OFFCURVE",
"429 295 CURVE SMOOTH",
"429 399 OFFCURVE",
"360 460 OFFCURVE",
"244 460 CURVE SMOOTH",
"129 460 OFFCURVE",
"63 401 OFFCURVE",
"63 296 CURVE SMOOTH",
"63 190 OFFCURVE",
"129 130 OFFCURVE",
"244 130 CURVE SMOOTH"
);
},
{
closed = 1;
nodes = (
"148 168 OFFCURVE",
"110 204 OFFCURVE",
"110 295 CURVE SMOOTH",
"110 386 OFFCURVE",
"148 422 OFFCURVE",
"243 422 CURVE SMOOTH",
"341 422 OFFCURVE",
"382 384 OFFCURVE",
"382 295 CURVE SMOOTH",
"382 206 OFFCURVE",
"341 168 OFFCURVE",
"243 168 CURVE SMOOTH"
);
},
{
closed = 1;
nodes = (
"460 450 OFFCURVE",
"474 441 OFFCURVE",
"474 426 CURVE SMOOTH",
"474 405 OFFCURVE",
"456 400 OFFCURVE",
"456 376 CURVE SMOOTH",
"456 357 OFFCURVE",
"466 347 OFFCURVE",
"485 347 CURVE SMOOTH",
"509 347 OFFCURVE",
"522 364 OFFCURVE",
"522 396 CURVE SMOOTH",
"522 446 OFFCURVE",
"500 484 OFFCURVE",
"439 484 CURVE SMOOTH",
"389 484 OFFCURVE",
"352 447 OFFCURVE",
"352 409 CURVE",
"380 387 LINE",
"380 421 OFFCURVE",
"406 450 OFFCURVE",
"439 450 CURVE SMOOTH"
);
},
{
closed = 1;
nodes = (
"390 11 OFFCURVE",
"418 -24 OFFCURVE",
"418 -84 CURVE SMOOTH",
"418 -156 OFFCURVE",
"365 -189 OFFCURVE",
"247 -189 CURVE SMOOTH",
"134 -189 OFFCURVE",
"80 -159 OFFCURVE",
"80 -93 CURVE SMOOTH",
"80 -32 OFFCURVE",
"117 11 OFFCURVE",
"168 11 CURVE SMOOTH",
"341 11 LINE SMOOTH"
);
},
{
closed = 1;
nodes = (
"91 170 OFFCURVE",
"53 139 OFFCURVE",
"53 89 CURVE SMOOTH",
"53 60 OFFCURVE",
"76 29 OFFCURVE",
"111 26 CURVE",
"111 22 LINE",
"66 12 OFFCURVE",
"35 -36 OFFCURVE",
"35 -94 CURVE SMOOTH",
"35 -178 OFFCURVE",
"102 -226 OFFCURVE",
"246 -226 CURVE SMOOTH",
"386 -226 OFFCURVE",
"465 -173 OFFCURVE",
"465 -78 CURVE SMOOTH",
"465 1 OFFCURVE",
"418 49 OFFCURVE",
"338 49 CURVE SMOOTH",
"149 49 LINE SMOOTH",
"117 49 OFFCURVE",
"93 62 OFFCURVE",
"93 89 CURVE SMOOTH",
"93 120 OFFCURVE",
"121 138 OFFCURVE",
"174 142 CURVE",
"151 175 LINE"
);
}
);
};
layerId = UUID0;
name = "Light Extended";
paths = (
{
closed = 1;
nodes = (
"353 130 OFFCURVE",
"421 191 OFFCURVE",
"421 295 CURVE SMOOTH",
"421 399 OFFCURVE",
"353 460 OFFCURVE",
"240 460 CURVE SMOOTH",
"127 460 OFFCURVE",
"62 401 OFFCURVE",
"62 296 CURVE SMOOTH",
"62 190 OFFCURVE",
"127 130 OFFCURVE",
"240 130 CURVE SMOOTH"
);
},
{
closed = 1;
nodes = (
"146 168 OFFCURVE",
"109 204 OFFCURVE",
"109 295 CURVE SMOOTH",
"109 386 OFFCURVE",
"146 422 OFFCURVE",
"239 422 CURVE SMOOTH",
"334 422 OFFCURVE",
"374 384 OFFCURVE",
"374 295 CURVE SMOOTH",
"374 206 OFFCURVE",
"334 168 OFFCURVE",
"239 168 CURVE SMOOTH"
);
},
{
closed = 1;
nodes = (
"451 450 OFFCURVE",
"465 441 OFFCURVE",
"465 426 CURVE SMOOTH",
"465 405 OFFCURVE",
"447 400 OFFCURVE",
"447 376 CURVE SMOOTH",
"447 357 OFFCURVE",
"457 347 OFFCURVE",
"476 347 CURVE SMOOTH",
"499 347 OFFCURVE",
"512 364 OFFCURVE",
"512 396 CURVE SMOOTH",
"512 446 OFFCURVE",
"490 484 OFFCURVE",
"431 484 CURVE SMOOTH",
"382 484 OFFCURVE",
"346 447 OFFCURVE",
"346 409 CURVE",
"373 387 LINE",
"373 421 OFFCURVE",
"398 450 OFFCURVE",
"431 450 CURVE SMOOTH"
);
},
{
closed = 1;
nodes = (
"382 11 OFFCURVE",
"409 -24 OFFCURVE",
"409 -84 CURVE SMOOTH",
"409 -156 OFFCURVE",
"358 -189 OFFCURVE",
"243 -189 CURVE SMOOTH",
"132 -189 OFFCURVE",
"80 -159 OFFCURVE",
"80 -93 CURVE SMOOTH",
"80 -32 OFFCURVE",
"116 11 OFFCURVE",
"166 11 CURVE SMOOTH",
"334 11 LINE SMOOTH"
);
},
{
closed = 1;
nodes = (
"90 170 OFFCURVE",
"53 139 OFFCURVE",
"53 89 CURVE SMOOTH",
"53 60 OFFCURVE",
"75 29 OFFCURVE",
"109 26 CURVE",
"109 22 LINE",
"65 12 OFFCURVE",
"35 -36 OFFCURVE",
"35 -94 CURVE SMOOTH",
"35 -178 OFFCURVE",
"101 -226 OFFCURVE",
"242 -226 CURVE SMOOTH",
"379 -226 OFFCURVE",
"456 -173 OFFCURVE",
"456 -78 CURVE SMOOTH",
"456 1 OFFCURVE",
"410 49 OFFCURVE",
"332 49 CURVE SMOOTH",
"147 49 LINE SMOOTH",
"116 49 OFFCURVE",
"92 62 OFFCURVE",
"92 89 CURVE SMOOTH",
"92 120 OFFCURVE",
"120 138 OFFCURVE",
"172 142 CURVE",
"148 175 LINE"
);
}
);
width = 506;
},
{
background = {
paths = (
{
closed = 1;
nodes = (
"419 130 OFFCURVE",
"480 190 OFFCURVE",
"480 295 CURVE SMOOTH",
"480 400 OFFCURVE",
"419 460 OFFCURVE",
"262 460 CURVE SMOOTH",
"106 460 OFFCURVE",
"44 400 OFFCURVE",
"44 296 CURVE SMOOTH",
"44 191 OFFCURVE",
"106 130 OFFCURVE",
"263 130 CURVE SMOOTH"
);
},
{
closed = 1;
nodes = (
"200 215 OFFCURVE",
"171 241 OFFCURVE",
"171 295 CURVE SMOOTH",
"171 349 OFFCURVE",
"199 375 OFFCURVE",
"262 375 CURVE SMOOTH",
"325 375 OFFCURVE",
"353 349 OFFCURVE",
"353 294 CURVE SMOOTH",
"353 240 OFFCURVE",
"325 215 OFFCURVE",
"263 215 CURVE SMOOTH"
);
},
{
closed = 1;
nodes = (
"504 430 OFFCURVE",
"512 423 OFFCURVE",
"512 412 CURVE SMOOTH",
"512 396 OFFCURVE",
"498 390 OFFCURVE",
"498 370 CURVE SMOOTH",
"498 349 OFFCURVE",
"513 337 OFFCURVE",
"537 337 CURVE SMOOTH",
"567 337 OFFCURVE",
"584 357 OFFCURVE",
"584 396 CURVE SMOOTH",
"584 452 OFFCURVE",
"550 487 OFFCURVE",
"497 487 CURVE SMOOTH",
"446 487 OFFCURVE",
"408 454 OFFCURVE",
"408 409 CURVE",
"452 377 LINE",
"452 407 OFFCURVE",
"469 430 OFFCURVE",
"492 430 CURVE SMOOTH"
);
},
{
closed = 1;
nodes = (
"363 -20 OFFCURVE",
"382 -41 OFFCURVE",
"382 -69 CURVE SMOOTH",
"382 -108 OFFCURVE",
"347 -127 OFFCURVE",
"263 -127 CURVE SMOOTH",
"173 -127 OFFCURVE",
"140 -106 OFFCURVE",
"140 -74 CURVE SMOOTH",
"140 -41 OFFCURVE",
"174 -20 OFFCURVE",
"219 -20 CURVE SMOOTH",
"312 -20 LINE SMOOTH"
);
},
{
closed = 1;
nodes = (
"71 172 OFFCURVE",
"34 130 OFFCURVE",
"34 76 CURVE SMOOTH",
"34 34 OFFCURVE",
"56 6 OFFCURVE",
"99 -4 CURVE",
"99 -8 LINE",
"45 -13 OFFCURVE",
"16 -47 OFFCURVE",
"16 -96 CURVE SMOOTH",
"16 -175 OFFCURVE",
"91 -216 OFFCURVE",
"252 -216 CURVE SMOOTH",
"434 -216 OFFCURVE",
"516 -167 OFFCURVE",
"516 -66 CURVE SMOOTH",
"516 18 OFFCURVE",
"461 73 OFFCURVE",
"369 73 CURVE SMOOTH",
"183 73 LINE SMOOTH",
"143 73 OFFCURVE",
"134 80 OFFCURVE",
"134 94 CURVE SMOOTH",
"134 114 OFFCURVE",
"153 130 OFFCURVE",
"263 130 CURVE",
"142 184 LINE"
);
}
);
};
layerId = "4355E1B8-19E6-44BD-A1D7-6E3C2DECA4C8";
name = Extended;
paths = (
{
closed = 1;
nodes = (
"429 130 OFFCURVE",
"492 190 OFFCURVE",
"492 295 CURVE SMOOTH",
"492 400 OFFCURVE",
"429 460 OFFCURVE",
"268 460 CURVE SMOOTH",
"109 460 OFFCURVE",
"45 400 OFFCURVE",
"45 296 CURVE SMOOTH",
"45 191 OFFCURVE",
"109 130 OFFCURVE",
"269 130 CURVE SMOOTH"
);
},
{
closed = 1;
nodes = (
"203 215 OFFCURVE",
"172 241 OFFCURVE",
"172 295 CURVE SMOOTH",
"172 349 OFFCURVE",
"202 375 OFFCURVE",
"268 375 CURVE SMOOTH",
"335 375 OFFCURVE",
"365 349 OFFCURVE",
"365 294 CURVE SMOOTH",
"365 240 OFFCURVE",
"335 215 OFFCURVE",
"269 215 CURVE SMOOTH"
);
},
{
closed = 1;
nodes = (
"517 430 OFFCURVE",
"526 423 OFFCURVE",
"526 412 CURVE SMOOTH",
"526 396 OFFCURVE",
"511 390 OFFCURVE",
"511 370 CURVE SMOOTH",
"511 349 OFFCURVE",
"526 337 OFFCURVE",
"551 337 CURVE SMOOTH",
"582 337 OFFCURVE",
"599 357 OFFCURVE",
"599 396 CURVE SMOOTH",
"599 452 OFFCURVE",
"564 487 OFFCURVE",
"509 487 CURVE SMOOTH",
"457 487 OFFCURVE",
"417 454 OFFCURVE",
"417 409 CURVE",
"462 377 LINE",
"462 407 OFFCURVE",
"480 430 OFFCURVE",
"504 430 CURVE SMOOTH"
);
},
{
closed = 1;
nodes = (
"375 -20 OFFCURVE",
"395 -41 OFFCURVE",
"395 -69 CURVE SMOOTH",
"395 -108 OFFCURVE",
"358 -127 OFFCURVE",
"270 -127 CURVE SMOOTH",
"175 -127 OFFCURVE",
"140 -106 OFFCURVE",
"140 -74 CURVE SMOOTH",
"140 -41 OFFCURVE",
"175 -20 OFFCURVE",
"222 -20 CURVE SMOOTH",
"322 -20 LINE SMOOTH"
);
},
{
closed = 1;
nodes = (
"73 172 OFFCURVE",
"35 130 OFFCURVE",
"35 76 CURVE SMOOTH",
"35 34 OFFCURVE",
"57 6 OFFCURVE",
"101 -4 CURVE",
"101 -8 LINE",
"46 -13 OFFCURVE",
"16 -47 OFFCURVE",
"16 -96 CURVE SMOOTH",
"16 -175 OFFCURVE",
"93 -216 OFFCURVE",
"259 -216 CURVE SMOOTH",
"445 -216 OFFCURVE",
"529 -167 OFFCURVE",
"529 -66 CURVE SMOOTH",
"529 18 OFFCURVE",
"473 73 OFFCURVE",
"378 73 CURVE SMOOTH",
"186 73 LINE SMOOTH",
"145 73 OFFCURVE",
"135 80 OFFCURVE",
"135 94 CURVE SMOOTH",
"135 114 OFFCURVE",
"155 130 OFFCURVE",
"266 130 CURVE",
"146 184 LINE"
);
}
);
width = 560;
},
{
background = {
paths = (
{
closed = 1;
nodes = (
"475 110 OFFCURVE",
"571 178 OFFCURVE",
"571 300 CURVE SMOOTH",
"571 418 OFFCURVE",
"481 478 OFFCURVE",
"303 478 CURVE SMOOTH",
"126 478 OFFCURVE",
"35 418 OFFCURVE",
"35 301 CURVE SMOOTH",
"35 179 OFFCURVE",
"132 110 OFFCURVE",
"304 110 CURVE SMOOTH"
);
},
{
closed = 1;
nodes = (
"271 240 OFFCURVE",
"252 258 OFFCURVE",
"252 289 CURVE SMOOTH",
"252 320 OFFCURVE",
"270 338 OFFCURVE",
"303 338 CURVE SMOOTH",
"336 338 OFFCURVE",
"354 321 OFFCURVE",
"354 289 CURVE SMOOTH",
"354 258 OFFCURVE",
"336 240 OFFCURVE",
"304 240 CURVE SMOOTH"
);
},
{
closed = 1;
nodes = (
"602 428 OFFCURVE",
"611 420 OFFCURVE",
"611 408 CURVE SMOOTH",
"611 394 OFFCURVE",
"597 387 OFFCURVE",
"597 368 CURVE SMOOTH",
"597 337 OFFCURVE",
"631 317 OFFCURVE",
"680 317 CURVE SMOOTH",
"742 317 OFFCURVE",
"775 350 OFFCURVE",
"775 407 CURVE SMOOTH",
"775 482 OFFCURVE",
"717 525 OFFCURVE",
"611 525 CURVE SMOOTH",
"522 525 OFFCURVE",
"466 495 OFFCURVE",
"449 437 CURVE",
"543 385 LINE",
"543 411 OFFCURVE",
"560 428 OFFCURVE",
"585 428 CURVE SMOOTH"
);
},
{
closed = 1;
nodes = (
"364 -44 OFFCURVE",
"373 -53 OFFCURVE",
"373 -74 CURVE SMOOTH",
"373 -102 OFFCURVE",
"357 -111 OFFCURVE",
"306 -111 CURVE SMOOTH",
"257 -111 OFFCURVE",
"241 -103 OFFCURVE",
"241 -78 CURVE SMOOTH",
"241 -58 OFFCURVE",
"252 -44 OFFCURVE",
"267 -44 CURVE SMOOTH",
"345 -44 LINE SMOOTH"
);
},
{
closed = 1;
nodes = (
"61 194 OFFCURVE",
"25 158 OFFCURVE",
"25 84 CURVE SMOOTH",
"25 22 OFFCURVE",
"50 -12 OFFCURVE",
"103 -24 CURVE",
"103 -28 LINE",
"40 -31 OFFCURVE",
"7 -57 OFFCURVE",
"7 -103 CURVE SMOOTH",
"7 -180 OFFCURVE",
"98 -216 OFFCURVE",
"291 -216 CURVE SMOOTH",
"511 -216 OFFCURVE",
"607 -169 OFFCURVE",
"607 -61 CURVE SMOOTH",
"607 24 OFFCURVE",
"548 81 OFFCURVE",
"460 81 CURVE SMOOTH",
"232 81 LINE SMOOTH",
"182 81 OFFCURVE",
"165 87 OFFCURVE",
"165 107 CURVE SMOOTH",
"165 126 OFFCURVE",
"182 135 OFFCURVE",
"221 135 CURVE",
"133 194 LINE"
);
}
);
};
layerId = "14C77FDB-037D-4842-9381-6D9ED15DD48C";
name = "Bold Extended";
paths = (
{
closed = 1;
nodes = (
"472 130 OFFCURVE",
"568 194 OFFCURVE",
"568 310 CURVE SMOOTH",
"568 421 OFFCURVE",
"478 478 OFFCURVE",
"300 478 CURVE SMOOTH",
"123 478 OFFCURVE",
"32 421 OFFCURVE",
"32 311 CURVE SMOOTH",
"32 195 OFFCURVE",
"129 130 OFFCURVE",
"301 130 CURVE SMOOTH"
);
},
{
closed = 1;
nodes = (
"268 250 OFFCURVE",
"249 268 OFFCURVE",
"249 299 CURVE SMOOTH",
"249 330 OFFCURVE",
"267 348 OFFCURVE",
"300 348 CURVE SMOOTH",
"333 348 OFFCURVE",
"351 331 OFFCURVE",
"351 299 CURVE SMOOTH",
"351 268 OFFCURVE",
"333 250 OFFCURVE",
"301 250 CURVE SMOOTH"
);
},
{
closed = 1;
nodes = (
"571 434 OFFCURVE",
"579 428 OFFCURVE",
"579 417 CURVE SMOOTH",
"579 403 OFFCURVE",
"566 395 OFFCURVE",
"566 378 CURVE SMOOTH",
"566 352 OFFCURVE",
"595 339 OFFCURVE",
"637 339 CURVE SMOOTH",
"690 339 OFFCURVE",
"719 367 OFFCURVE",
"719 416 CURVE SMOOTH",
"719 480 OFFCURVE",
"669 517 OFFCURVE",
"578 517 CURVE SMOOTH",
"502 517 OFFCURVE",
"454 492 OFFCURVE",
"439 442 CURVE",
"520 397 LINE",
"520 420 OFFCURVE",
"534 434 OFFCURVE",
"556 434 CURVE SMOOTH"
);
},
{
closed = 1;
nodes = (
"376 -45 OFFCURVE",
"390 -51 OFFCURVE",
"390 -68 CURVE SMOOTH",
"390 -88 OFFCURVE",
"370 -94 OFFCURVE",
"307 -94 CURVE SMOOTH",
"240 -94 OFFCURVE",
"218 -87 OFFCURVE",
"218 -70 CURVE SMOOTH",
"218 -54 OFFCURVE",
"237 -45 OFFCURVE",
"263 -45 CURVE SMOOTH",
"345 -45 LINE SMOOTH"
);
},
{
closed = 1;
nodes = (
"58 165 OFFCURVE",
"22 126 OFFCURVE",
"22 70 CURVE SMOOTH",
"22 28 OFFCURVE",
"46 -6 OFFCURVE",
"99 -15 CURVE",
"99 -19 LINE",
"36 -23 OFFCURVE",
"4 -58 OFFCURVE",
"4 -108 CURVE SMOOTH",
"4 -190 OFFCURVE",
"101 -226 OFFCURVE",
"308 -226 CURVE SMOOTH",
"528 -226 OFFCURVE",
"624 -161 OFFCURVE",
"624 -49 CURVE SMOOTH",
"624 39 OFFCURVE",
"565 88 OFFCURVE",
"477 88 CURVE SMOOTH",
"249 88 LINE SMOOTH",
"199 88 OFFCURVE",
"182 92 OFFCURVE",
"182 107 CURVE SMOOTH",
"182 122 OFFCURVE",
"198 129 OFFCURVE",
"301 130 CURVE",
"130 184 LINE"
);
}
);
width = 630;
}
);
unicode = 0067;
},
{
glyphname = h;
lastChange = "2015-03-30 14:43:23 +0000";
layers = (
{
background = {
paths = (
{
closed = 1;
nodes = (
"30 0 LINE",
"270 0 LINE",
"270 27 LINE",
"193 27 LINE SMOOTH",
"177 27 OFFCURVE",
"171 40 OFFCURVE",
"171 59 CURVE SMOOTH",
"171 288 LINE SMOOTH",
"171 384 OFFCURVE",
"249 422 OFFCURVE",
"332 422 CURVE SMOOTH",
"391 422 OFFCURVE",
"462 403 OFFCURVE",
"462 307 CURVE SMOOTH",
"462 59 LINE SMOOTH",
"462 37 OFFCURVE",
"455 27 OFFCURVE",
"437 27 CURVE SMOOTH",
"362 27 LINE",
"362 0 LINE",
"602 0 LINE",
"602 27 LINE",
"531 27 LINE SMOOTH",
"509 27 OFFCURVE",
"506 40 OFFCURVE",
"506 59 CURVE SMOOTH",
"506 308 LINE SMOOTH",
"506 421 OFFCURVE",
"431 460 OFFCURVE",
"342 460 CURVE SMOOTH",
"269 460 OFFCURVE",
"210 434 OFFCURVE",
"175 383 CURVE",
"171 383 LINE",
"171 665 LINE",
"30 665 LINE",
"30 638 LINE",
"92 638 LINE SMOOTH",
"121 638 OFFCURVE",
"127 625 OFFCURVE",
"127 597 CURVE SMOOTH",
"127 59 LINE SMOOTH",
"127 40 OFFCURVE",
"121 27 OFFCURVE",
"99 27 CURVE SMOOTH",
"30 27 LINE"
);
}
);
};
layerId = UUID0;
name = "Light Extended";
paths = (
{
closed = 1;
nodes = (
"30 0 LINE",
"270 0 LINE",
"270 27 LINE",
"193 27 LINE SMOOTH",
"178 27 OFFCURVE",
"171 38 OFFCURVE",
"171 59 CURVE SMOOTH",
"171 223 LINE SMOOTH",
"171 351 OFFCURVE",
"230 422 OFFCURVE",
"335 422 CURVE SMOOTH",
"420 422 OFFCURVE",
"462 374 OFFCURVE",
"462 277 CURVE SMOOTH",
"462 59 LINE SMOOTH",
"462 36 OFFCURVE",
"455 27 OFFCURVE",
"437 27 CURVE SMOOTH",
"362 27 LINE",
"362 0 LINE",
"602 0 LINE",
"602 27 LINE",
"531 27 LINE SMOOTH",
"513 27 OFFCURVE",
"506 35 OFFCURVE",
"506 59 CURVE SMOOTH",
"506 278 LINE SMOOTH",
"506 401 OFFCURVE",
"452 460 OFFCURVE",
"342 460 CURVE SMOOTH",
"264 460 OFFCURVE",
"210 430 OFFCURVE",
"175 368 CURVE",
"171 368 LINE",
"171 665 LINE",
"30 665 LINE",
"30 638 LINE",
"92 638 LINE SMOOTH",
"118 638 OFFCURVE",
"127 628 OFFCURVE",
"127 597 CURVE SMOOTH",
"127 59 LINE SMOOTH",
"127 37 OFFCURVE",
"118 27 OFFCURVE",
"99 27 CURVE SMOOTH",
"30 27 LINE"
);
}
);
width = 632;
},
{
background = {
paths = (
{
closed = 1;
nodes = (
"21 0 LINE",
"315 0 LINE",
"315 80 LINE",
"253 80 LINE SMOOTH",
"241 80 OFFCURVE",
"236 89 OFFCURVE",
"236 108 CURVE SMOOTH",
"236 227 LINE SMOOTH",
"236 315 OFFCURVE",
"277 365 OFFCURVE",
"348 365 CURVE SMOOTH",
"407 365 OFFCURVE",
"439 330 OFFCURVE",
"439 266 CURVE SMOOTH",
"439 107 LINE SMOOTH",
"439 89 OFFCURVE",
"433 80 OFFCURVE",
"419 80 CURVE SMOOTH",
"360 80 LINE",
"360 0 LINE",
"653 0 LINE",
"653 80 LINE",
"599 80 LINE SMOOTH",
"577 80 OFFCURVE",
"569 87 OFFCURVE",
"569 106 CURVE SMOOTH",
"569 296 LINE SMOOTH",
"569 400 OFFCURVE",
"508 460 OFFCURVE",
"403 460 CURVE SMOOTH",
"326 460 OFFCURVE",
"265 427 OFFCURVE",
"237 370 CURVE",
"233 370 LINE",
"233 665 LINE",
"21 665 LINE",
"21 585 LINE",
"71 585 LINE SMOOTH",
"97 585 OFFCURVE",
"106 575 OFFCURVE",
"106 544 CURVE SMOOTH",
"106 106 LINE SMOOTH",
"106 88 OFFCURVE",
"96 80 OFFCURVE",
"73 80 CURVE SMOOTH",
"21 80 LINE"
);
}
);
};
layerId = "4355E1B8-19E6-44BD-A1D7-6E3C2DECA4C8";
name = Extended;
paths = (
{
closed = 1;
nodes = (
"21 0 LINE",
"315 0 LINE",
"315 80 LINE",
"253 80 LINE SMOOTH",
"241 80 OFFCURVE",
"236 89 OFFCURVE",
"236 108 CURVE SMOOTH",
"236 234 LINE SMOOTH",
"236 311 OFFCURVE",
"280 365 OFFCURVE",
"354 365 CURVE SMOOTH",
"414 365 OFFCURVE",
"439 335 OFFCURVE",
"439 277 CURVE SMOOTH",
"439 107 LINE SMOOTH",
"439 89 OFFCURVE",
"433 80 OFFCURVE",
"419 80 CURVE SMOOTH",
"360 80 LINE",
"360 0 LINE",
"653 0 LINE",
"653 80 LINE",
"599 80 LINE SMOOTH",
"577 80 OFFCURVE",
"569 87 OFFCURVE",
"569 106 CURVE SMOOTH",
"569 296 LINE SMOOTH",
"569 400 OFFCURVE",
"508 460 OFFCURVE",
"401 460 CURVE SMOOTH",
"325 460 OFFCURVE",
"265 430 OFFCURVE",
"237 380 CURVE",
"233 380 LINE",
"233 665 LINE",
"21 665 LINE",
"21 585 LINE",
"71 585 LINE SMOOTH",
"97 585 OFFCURVE",
"106 575 OFFCURVE",
"106 544 CURVE SMOOTH",
"106 106 LINE SMOOTH",
"106 88 OFFCURVE",
"96 80 OFFCURVE",
"73 80 CURVE SMOOTH",
"21 80 LINE"
);
}
);
width = 677;
},
{
background = {
paths = (
{
closed = 1;
nodes = (
"5 0 LINE",
"369 0 LINE",
"369 142 LINE",
"341 142 LINE SMOOTH",
"322 142 OFFCURVE",
"316 148 OFFCURVE",
"316 165 CURVE SMOOTH",
"316 255 LINE SMOOTH",
"316 299 OFFCURVE",
"340 334 OFFCURVE",
"388 334 CURVE SMOOTH",
"426 334 OFFCURVE",
"446 312 OFFCURVE",
"446 271 CURVE SMOOTH",
"446 165 LINE SMOOTH",
"446 148 OFFCURVE",
"440 142 OFFCURVE",
"421 142 CURVE SMOOTH",
"393 142 LINE",
"393 0 LINE",
"757 0 LINE",
"757 142 LINE",
"702 142 LINE SMOOTH",
"682 142 OFFCURVE",
"676 149 OFFCURVE",
"676 177 CURVE SMOOTH",
"676 327 LINE SMOOTH",
"676 435 OFFCURVE",
"605 490 OFFCURVE",
"495 490 CURVE SMOOTH",
"426 490 OFFCURVE",
"367 468 OFFCURVE",
"320 413 CURVE",
"316 413 LINE",
"316 665 LINE",
"5 665 LINE",
"5 523 LINE",
"60 523 LINE SMOOTH",
"80 523 OFFCURVE",
"86 516 OFFCURVE",
"86 488 CURVE SMOOTH",
"86 177 LINE SMOOTH",
"86 149 OFFCURVE",
"80 142 OFFCURVE",
"60 142 CURVE SMOOTH",
"5 142 LINE"
);
}
);
};
layerId = "14C77FDB-037D-4842-9381-6D9ED15DD48C";
name = "Bold Extended";
paths = (
{
closed = 1;
nodes = (
"5 0 LINE",
"369 0 LINE",
"369 142 LINE",
"341 142 LINE SMOOTH",
"322 142 OFFCURVE",
"316 148 OFFCURVE",
"316 165 CURVE SMOOTH",
"316 258 LINE SMOOTH",
"316 305 OFFCURVE",
"344 334 OFFCURVE",
"390 334 CURVE SMOOTH",
"427 334 OFFCURVE",
"446 315 OFFCURVE",
"446 280 CURVE SMOOTH",
"446 165 LINE SMOOTH",
"446 148 OFFCURVE",
"440 142 OFFCURVE",
"421 142 CURVE SMOOTH",
"393 142 LINE",
"393 0 LINE",
"757 0 LINE",
"757 142 LINE",
"702 142 LINE SMOOTH",
"682 142 OFFCURVE",
"676 150 OFFCURVE",
"676 177 CURVE SMOOTH",
"676 317 LINE SMOOTH",
"676 427 OFFCURVE",
"610 490 OFFCURVE",
"495 490 CURVE SMOOTH",
"421 490 OFFCURVE",
"364 465 OFFCURVE",
"320 413 CURVE",
"316 413 LINE",
"316 665 LINE",
"5 665 LINE",
"5 523 LINE",
"60 523 LINE SMOOTH",
"80 523 OFFCURVE",
"86 515 OFFCURVE",
"86 488 CURVE SMOOTH",
"86 177 LINE SMOOTH",
"86 150 OFFCURVE",
"80 142 OFFCURVE",
"60 142 CURVE SMOOTH",
"5 142 LINE"
);
}
);
width = 762;
},
{
background = {
paths = (
{
closed = 1;
nodes = (
"-2 0 LINE",
"164 0 LINE",
"164 25 LINE",
"127 25 LINE SMOOTH",
"112 25 OFFCURVE",
"104 36 OFFCURVE",
"104 57 CURVE SMOOTH",
"104 259 LINE SMOOTH",
"104 353 OFFCURVE",
"146 425 OFFCURVE",
"202 425 CURVE SMOOTH",
"236 425 OFFCURVE",
"256 400 OFFCURVE",
"256 360 CURVE SMOOTH",
"256 57 LINE SMOOTH",
"256 34 OFFCURVE",
"249 25 OFFCURVE",
"231 25 CURVE SMOOTH",
"195 25 LINE",
"195 0 LINE",
"361 0 LINE",
"361 25 LINE",
"321 25 LINE SMOOTH",
"303 25 OFFCURVE",
"296 33 OFFCURVE",
"296 57 CURVE SMOOTH",
"296 363 LINE SMOOTH",
"296 424 OFFCURVE",
"263 460 OFFCURVE",
"209 460 CURVE SMOOTH",
"165 460 OFFCURVE",
"131 436 OFFCURVE",
"109 392 CURVE",
"105 392 LINE",
"105 665 LINE",
"-2 665 LINE",
"-2 640 LINE",
"29 640 LINE SMOOTH",
"55 640 OFFCURVE",
"64 630 OFFCURVE",
"64 599 CURVE SMOOTH",
"64 57 LINE SMOOTH",
"64 35 OFFCURVE",
"56 25 OFFCURVE",
"37 25 CURVE SMOOTH",
"-2 25 LINE"
);
}
);
};
layerId = "E9E6D55E-9446-45F2-B66C-3272698B0216";
name = "Light Condensed";
paths = (
{
closed = 1;
nodes = (
"0 0 LINE",
"166 0 LINE",
"166 25 LINE",
"133 25 LINE SMOOTH",
"113 25 OFFCURVE",
"106 35 OFFCURVE",
"106 57 CURVE SMOOTH",
"106 259 LINE SMOOTH",
"106 353 OFFCURVE",
"148 425 OFFCURVE",
"204 425 CURVE SMOOTH",
"238 425 OFFCURVE",
"258 400 OFFCURVE",
"258 360 CURVE SMOOTH",
"258 57 LINE SMOOTH",
"258 35 OFFCURVE",
"251 25 OFFCURVE",
"231 25 CURVE SMOOTH",
"198 25 LINE",
"198 0 LINE",
"364 0 LINE",
"364 25 LINE",
"325 25 LINE SMOOTH",
"305 25 OFFCURVE",
"298 35 OFFCURVE",
"298 57 CURVE SMOOTH",
"298 363 LINE SMOOTH",
"298 424 OFFCURVE",
"265 460 OFFCURVE",
"211 460 CURVE SMOOTH",
"167 460 OFFCURVE",
"132 436 OFFCURVE",
"110 392 CURVE",
"106 392 LINE",
"106 665 LINE",
"0 665 LINE",
"0 640 LINE",
"39 640 LINE SMOOTH",
"59 640 OFFCURVE",
"66 630 OFFCURVE",
"66 608 CURVE SMOOTH",
"66 57 LINE SMOOTH",
"66 35 OFFCURVE",
"59 25 OFFCURVE",
"39 25 CURVE SMOOTH",
"0 25 LINE"
);
}
);
width = 374;
},
{
background = {
paths = (
{
closed = 1;
nodes = (
"12 0 LINE",
"228 0 LINE",
"228 80 LINE",
"221 80 LINE SMOOTH",
"207 80 OFFCURVE",
"201 91 OFFCURVE",
"201 107 CURVE SMOOTH",
"201 296 LINE SMOOTH",
"201 332 OFFCURVE",
"209 365 OFFCURVE",
"238 365 CURVE SMOOTH",
"258 365 OFFCURVE",
"271 349 OFFCURVE",
"271 316 CURVE SMOOTH",
"271 107 LINE SMOOTH",
"271 91 OFFCURVE",
"265 80 OFFCURVE",
"251 80 CURVE SMOOTH",
"244 80 LINE",
"244 0 LINE",
"460 0 LINE",
"460 80 LINE",
"426 80 LINE SMOOTH",
"406 80 OFFCURVE",
"401 93 OFFCURVE",
"401 113 CURVE SMOOTH",
"401 344 LINE SMOOTH",
"401 409 OFFCURVE",
"369 460 OFFCURVE",
"303 460 CURVE SMOOTH",
"257 460 OFFCURVE",
"225 436 OFFCURVE",
"205 397 CURVE",
"201 397 LINE",
"201 665 LINE",
"12 665 LINE",
"12 585 LINE",
"46 585 LINE SMOOTH",
"66 585 OFFCURVE",
"71 572 OFFCURVE",
"71 552 CURVE SMOOTH",
"71 113 LINE SMOOTH",
"71 93 OFFCURVE",
"66 80 OFFCURVE",
"46 80 CURVE SMOOTH",
"12 80 LINE"
);
}
);
};
layerId = "B25F85BC-C782-4067-8484-07202F80B8CD";
name = Condensed;
paths = (
{
closed = 1;
nodes = (
"12 0 LINE",
"228 0 LINE",
"228 80 LINE",
"221 80 LINE SMOOTH",
"208 80 OFFCURVE",
"201 90 OFFCURVE",
"201 107 CURVE SMOOTH",
"201 269 LINE SMOOTH",
"201 315 OFFCURVE",
"215 338 OFFCURVE",
"242 338 CURVE SMOOTH",
"262 338 OFFCURVE",
"271 322 OFFCURVE",
"271 289 CURVE SMOOTH",
"271 107 LINE SMOOTH",
"271 90 OFFCURVE",
"264 80 OFFCURVE",
"251 80 CURVE SMOOTH",
"244 80 LINE",
"244 0 LINE",
"460 0 LINE",
"460 80 LINE",
"426 80 LINE SMOOTH",
"408 80 OFFCURVE",
"401 90 OFFCURVE",
"401 113 CURVE SMOOTH",
"401 344 LINE SMOOTH",
"401 415 OFFCURVE",
"364 460 OFFCURVE",
"305 460 CURVE SMOOTH",
"256 460 OFFCURVE",
"217 428 OFFCURVE",
"205 380 CURVE",
"201 380 LINE",
"201 665 LINE",
"12 665 LINE",
"12 585 LINE",
"46 585 LINE SMOOTH",
"64 585 OFFCURVE",
"71 575 OFFCURVE",
"71 552 CURVE SMOOTH",
"71 113 LINE SMOOTH",
"71 90 OFFCURVE",
"64 80 OFFCURVE",
"46 80 CURVE SMOOTH",
"12 80 LINE"
);
}
);
width = 478;
},
{
background = {
paths = (
{
closed = 1;
nodes = (
"6 0 LINE",
"238 0 LINE",
"238 108 LINE",
"234 108 LINE SMOOTH",
"226 108 OFFCURVE",
"224 113 OFFCURVE",
"224 123 CURVE SMOOTH",
"224 290 LINE SMOOTH",
"224 324 OFFCURVE",
"228 343 OFFCURVE",
"244 343 CURVE SMOOTH",
"260 343 OFFCURVE",
"264 324 OFFCURVE",
"264 290 CURVE SMOOTH",
"264 123 LINE SMOOTH",
"264 113 OFFCURVE",
"262 108 OFFCURVE",
"254 108 CURVE SMOOTH",
"250 108 LINE",
"250 0 LINE",
"482 0 LINE",
"482 108 LINE",
"470 108 LINE SMOOTH",
"450 108 OFFCURVE",
"440 119 OFFCURVE",
"440 139 CURVE SMOOTH",
"440 345 LINE SMOOTH",
"440 426 OFFCURVE",
"397 476 OFFCURVE",
"327 476 CURVE SMOOTH",
"285 476 OFFCURVE",
"254 459 OFFCURVE",
"228 420 CURVE",
"224 420 LINE",
"224 665 LINE",
"6 665 LINE",
"6 557 LINE",
"18 557 LINE SMOOTH",
"38 557 OFFCURVE",
"48 546 OFFCURVE",
"48 526 CURVE SMOOTH",
"48 139 LINE SMOOTH",
"48 119 OFFCURVE",
"38 108 OFFCURVE",
"18 108 CURVE SMOOTH",
"6 108 LINE"
);
}
);
};
layerId = "B817C739-5D48-43E8-AAEE-CE891513D7BC";
name = "Bold Condensed";
paths = (
{
closed = 1;
nodes = (
"6 0 LINE",
"238 0 LINE",
"238 108 LINE",
"234 108 LINE SMOOTH",
"227 108 OFFCURVE",
"224 112 OFFCURVE",
"224 123 CURVE SMOOTH",
"224 281 LINE SMOOTH",
"224 319 OFFCURVE",
"233 334 OFFCURVE",
"248 334 CURVE SMOOTH",
"259 334 OFFCURVE",
"264 327 OFFCURVE",
"264 312 CURVE SMOOTH",
"264 123 LINE SMOOTH",
"264 112 OFFCURVE",
"261 108 OFFCURVE",
"254 108 CURVE SMOOTH",
"250 108 LINE",
"250 0 LINE",
"482 0 LINE",
"482 108 LINE",
"470 108 LINE SMOOTH",
"450 108 OFFCURVE",
"440 119 OFFCURVE",
"440 139 CURVE SMOOTH",
"440 345 LINE SMOOTH",
"440 426 OFFCURVE",
"397 476 OFFCURVE",
"326 476 CURVE SMOOTH",
"284 476 OFFCURVE",
"248 457 OFFCURVE",
"228 413 CURVE",
"224 413 LINE",
"224 665 LINE",
"6 665 LINE",
"6 557 LINE",
"18 557 LINE SMOOTH",
"38 557 OFFCURVE",
"48 546 OFFCURVE",
"48 526 CURVE SMOOTH",
"48 139 LINE SMOOTH",
"48 119 OFFCURVE",
"38 108 OFFCURVE",
"18 108 CURVE SMOOTH",
"6 108 LINE"
);
}
);
width = 490;
}
);
rightMetricsKey = n;
unicode = 0068;
},
{
glyphname = i;
lastChange = "2015-03-30 14:43:23 +0000";
layers = (
{
layerId = UUID0;
name = "Light Extended";
paths = (
{
closed = 1;
nodes = (
"30 0 LINE",
"266 0 LINE",
"266 27 LINE",
"194 27 LINE SMOOTH",
"177 27 OFFCURVE",
"171 40 OFFCURVE",
"171 59 CURVE SMOOTH",
"171 450 LINE",
"32 450 LINE",
"32 423 LINE",
"92 423 LINE SMOOTH",
"121 423 OFFCURVE",
"127 410 OFFCURVE",
"127 382 CURVE SMOOTH",
"127 59 LINE SMOOTH",
"127 40 OFFCURVE",
"121 27 OFFCURVE",
"100 27 CURVE SMOOTH",
"30 27 LINE"
);
},
{
closed = 1;
nodes = (
"168 568 OFFCURVE",
"180 581 OFFCURVE",
"180 617 CURVE SMOOTH",
"180 653 OFFCURVE",
"168 666 OFFCURVE",
"146 666 CURVE SMOOTH",
"125 666 OFFCURVE",
"113 653 OFFCURVE",
"113 617 CURVE SMOOTH",
"113 581 OFFCURVE",
"125 568 OFFCURVE",
"147 568 CURVE SMOOTH"
);
}
);
width = 296;
},
{
layerId = "4355E1B8-19E6-44BD-A1D7-6E3C2DECA4C8";
name = Extended;
paths = (
{
closed = 1;
nodes = (
"24 0 LINE",
"323 0 LINE",
"323 80 LINE",
"262 80 LINE SMOOTH",
"245 80 OFFCURVE",
"239 93 OFFCURVE",
"239 112 CURVE SMOOTH",
"239 450 LINE",
"24 450 LINE",
"24 370 LINE",
"74 370 LINE SMOOTH",
"103 370 OFFCURVE",
"109 357 OFFCURVE",
"109 329 CURVE SMOOTH",
"109 112 LINE SMOOTH",
"109 93 OFFCURVE",
"103 80 OFFCURVE",
"82 80 CURVE SMOOTH",
"24 80 LINE"
);
},
{
closed = 1;
nodes = (
"222 517 OFFCURVE",
"249 539 OFFCURVE",
"249 594 CURVE SMOOTH",
"249 651 OFFCURVE",
"219 673 OFFCURVE",
"168 673 CURVE SMOOTH",
"118 673 OFFCURVE",
"87 651 OFFCURVE",
"87 595 CURVE SMOOTH",
"87 538 OFFCURVE",
"118 517 OFFCURVE",
"169 517 CURVE SMOOTH"
);
}
);
width = 347;
},
{
layerId = "14C77FDB-037D-4842-9381-6D9ED15DD48C";
name = "Bold Extended";
paths = (
{
closed = 1;
nodes = (
"5 0 LINE",
"397 0 LINE",
"397 142 LINE",
"342 142 LINE SMOOTH",
"322 142 OFFCURVE",
"316 149 OFFCURVE",
"316 177 CURVE SMOOTH",
"316 480 LINE",
"5 480 LINE",
"5 338 LINE",
"60 338 LINE SMOOTH",
"80 338 OFFCURVE",
"86 331 OFFCURVE",
"86 303 CURVE SMOOTH",
"86 177 LINE SMOOTH",
"86 149 OFFCURVE",
"80 142 OFFCURVE",
"60 142 CURVE SMOOTH",
"5 142 LINE"
);
},
{
closed = 1;
nodes = (
"293 512 OFFCURVE",
"330 547 OFFCURVE",
"330 614 CURVE SMOOTH",
"330 683 OFFCURVE",
"286 718 OFFCURVE",
"202 718 CURVE SMOOTH",
"119 718 OFFCURVE",
"72 683 OFFCURVE",
"72 615 CURVE SMOOTH",
"72 546 OFFCURVE",
"119 512 OFFCURVE",
"203 512 CURVE SMOOTH"
);
}
);
width = 402;
},
{
background = {
paths = (
{
closed = 1;
nodes = (
"10 0 LINE",
"182 0 LINE",
"182 25 LINE",
"139 25 LINE SMOOTH",
"122 25 OFFCURVE",
"116 38 OFFCURVE",
"116 57 CURVE SMOOTH",
"116 450 LINE",
"11 450 LINE",
"11 425 LINE",
"41 425 LINE SMOOTH",
"70 425 OFFCURVE",
"76 412 OFFCURVE",
"76 384 CURVE SMOOTH",
"76 57 LINE SMOOTH",
"76 38 OFFCURVE",
"70 25 OFFCURVE",
"49 25 CURVE SMOOTH",
"10 25 LINE"
);
},
{
closed = 1;
nodes = (
"114 579 OFFCURVE",
"125 592 OFFCURVE",
"125 627 CURVE SMOOTH",
"125 662 OFFCURVE",
"114 675 OFFCURVE",
"94 675 CURVE SMOOTH",
"74 675 OFFCURVE",
"63 662 OFFCURVE",
"63 627 CURVE SMOOTH",
"63 592 OFFCURVE",
"74 579 OFFCURVE",
"94 579 CURVE SMOOTH"
);
}
);
};
layerId = "E9E6D55E-9446-45F2-B66C-3272698B0216";
name = "Light Condensed";
paths = (
{
closed = 1;
nodes = (
"10 0 LINE",
"182 0 LINE",
"182 25 LINE",
"139 25 LINE SMOOTH",
"122 25 OFFCURVE",
"116 38 OFFCURVE",
"116 57 CURVE SMOOTH",
"116 450 LINE",
"11 450 LINE",
"11 425 LINE",
"41 425 LINE SMOOTH",
"70 425 OFFCURVE",
"76 412 OFFCURVE",
"76 384 CURVE SMOOTH",
"76 57 LINE SMOOTH",
"76 38 OFFCURVE",
"70 25 OFFCURVE",
"49 25 CURVE SMOOTH",
"10 25 LINE"
);
},
{
closed = 1;
nodes = (
"116 569 OFFCURVE",
"127 582 OFFCURVE",
"127 617 CURVE SMOOTH",
"127 652 OFFCURVE",
"116 665 OFFCURVE",
"96 665 CURVE SMOOTH",
"76 665 OFFCURVE",
"65 652 OFFCURVE",
"65 617 CURVE SMOOTH",
"65 582 OFFCURVE",
"76 569 OFFCURVE",
"96 569 CURVE SMOOTH"
);
}
);
width = 192;
},
{
background = {
paths = (
{
closed = 1;
nodes = (
"11 0 LINE",
"259 0 LINE",
"259 80 LINE",
"225 80 LINE SMOOTH",
"205 80 OFFCURVE",
"200 93 OFFCURVE",
"200 113 CURVE SMOOTH",
"200 450 LINE",
"11 450 LINE",
"11 370 LINE",
"45 370 LINE SMOOTH",
"65 370 OFFCURVE",
"70 357 OFFCURVE",
"70 337 CURVE SMOOTH",
"70 113 LINE SMOOTH",
"70 93 OFFCURVE",
"65 80 OFFCURVE",
"45 80 CURVE SMOOTH",
"11 80 LINE"
);
},
{
closed = 1;
nodes = (
"196 519 OFFCURVE",
"223 541 OFFCURVE",
"223 596 CURVE SMOOTH",
"223 653 OFFCURVE",
"193 675 OFFCURVE",
"142 675 CURVE SMOOTH",
"92 675 OFFCURVE",
"61 653 OFFCURVE",
"61 597 CURVE SMOOTH",
"61 540 OFFCURVE",
"92 519 OFFCURVE",
"143 519 CURVE SMOOTH"
);
}
);
};
layerId = "B25F85BC-C782-4067-8484-07202F80B8CD";
name = Condensed;
paths = (
{
closed = 1;
nodes = (
"18 0 LINE",
"266 0 LINE",
"266 80 LINE",
"232 80 LINE SMOOTH",
"212 80 OFFCURVE",
"207 93 OFFCURVE",
"207 113 CURVE SMOOTH",
"207 450 LINE",
"18 450 LINE",
"18 370 LINE",
"52 370 LINE SMOOTH",
"72 370 OFFCURVE",
"77 357 OFFCURVE",
"77 337 CURVE SMOOTH",
"77 113 LINE SMOOTH",
"77 93 OFFCURVE",
"72 80 OFFCURVE",
"52 80 CURVE SMOOTH",
"18 80 LINE"
);
},
{
closed = 1;
nodes = (
"196 519 OFFCURVE",
"223 541 OFFCURVE",
"223 596 CURVE SMOOTH",
"223 653 OFFCURVE",
"193 675 OFFCURVE",
"142 675 CURVE SMOOTH",
"92 675 OFFCURVE",
"61 653 OFFCURVE",
"61 597 CURVE SMOOTH",
"61 540 OFFCURVE",
"92 519 OFFCURVE",
"143 519 CURVE SMOOTH"
);
}
);
width = 284;
},
{
background = {
paths = (
{
closed = 1;
nodes = (
"8 0 LINE",
"268 0 LINE",
"268 108 LINE",
"256 108 LINE SMOOTH",
"236 108 OFFCURVE",
"226 119 OFFCURVE",
"226 139 CURVE SMOOTH",
"226 466 LINE",
"8 466 LINE",
"8 358 LINE",
"20 358 LINE SMOOTH",
"40 358 OFFCURVE",
"50 347 OFFCURVE",
"50 327 CURVE SMOOTH",
"50 139 LINE SMOOTH",
"50 119 OFFCURVE",
"40 108 OFFCURVE",
"20 108 CURVE SMOOTH",
"8 108 LINE"
);
},
{
closed = 1;
nodes = (
"202 511 OFFCURVE",
"237 543 OFFCURVE",
"237 603 CURVE SMOOTH",
"237 665 OFFCURVE",
"197 697 OFFCURVE",
"131 697 CURVE SMOOTH",
"66 697 OFFCURVE",
"25 665 OFFCURVE",
"25 604 CURVE SMOOTH",
"25 542 OFFCURVE",
"66 511 OFFCURVE",
"132 511 CURVE SMOOTH"
);
}
);
};
layerId = "B817C739-5D48-43E8-AAEE-CE891513D7BC";
name = "Bold Condensed";
paths = (
{
closed = 1;
nodes = (
"8 0 LINE",
"268 0 LINE",
"268 108 LINE",
"256 108 LINE SMOOTH",
"236 108 OFFCURVE",
"226 119 OFFCURVE",
"226 139 CURVE SMOOTH",
"226 466 LINE",
"8 466 LINE",
"8 358 LINE",
"20 358 LINE SMOOTH",
"40 358 OFFCURVE",
"50 347 OFFCURVE",
"50 327 CURVE SMOOTH",
"50 139 LINE SMOOTH",
"50 119 OFFCURVE",
"40 108 OFFCURVE",
"20 108 CURVE SMOOTH",
"8 108 LINE"
);
},
{
closed = 1;
nodes = (
"209 507 OFFCURVE",
"244 537 OFFCURVE",
"244 597 CURVE SMOOTH",
"244 659 OFFCURVE",
"204 689 OFFCURVE",
"138 689 CURVE SMOOTH",
"73 689 OFFCURVE",
"32 659 OFFCURVE",
"32 598 CURVE SMOOTH",
"32 536 OFFCURVE",
"73 507 OFFCURVE",
"139 507 CURVE SMOOTH"
);
}
);
width = 276;
}
);
leftMetricsKey = n;
rightMetricsKey = n;
unicode = 0069;
},
{
glyphname = j;
lastChange = "2015-03-30 14:47:10 +0000";
layers = (
{
layerId = "E9E6D55E-9446-45F2-B66C-3272698B0216";
name = "Light Condensed";
paths = (
{
closed = 1;
nodes = (
"73 -226 OFFCURVE",
"116 -186 OFFCURVE",
"116 -90 CURVE SMOOTH",
"116 450 LINE",
"11 450 LINE",
"11 425 LINE",
"41 425 LINE SMOOTH",
"70 425 OFFCURVE",
"76 412 OFFCURVE",
"76 384 CURVE SMOOTH",
"76 -91 LINE SMOOTH",
"76 -165 OFFCURVE",
"51 -195 OFFCURVE",
"15 -195 CURVE SMOOTH",
"-15 -195 OFFCURVE",
"-33 -175 OFFCURVE",
"-33 -151 CURVE SMOOTH",
"-33 -126 OFFCURVE",
"-12 -126 OFFCURVE",
"-12 -102 CURVE SMOOTH",
"-12 -84 OFFCURVE",
"-23 -71 OFFCURVE",
"-42 -71 CURVE SMOOTH",
"-66 -71 OFFCURVE",
"-79 -91 OFFCURVE",
"-79 -126 CURVE SMOOTH",
"-79 -185 OFFCURVE",
"-43 -226 OFFCURVE",
"15 -226 CURVE SMOOTH"
);
},
{
closed = 1;
nodes = (
"116 569 OFFCURVE",
"127 582 OFFCURVE",
"127 617 CURVE SMOOTH",
"127 652 OFFCURVE",
"116 665 OFFCURVE",
"96 665 CURVE SMOOTH",
"76 665 OFFCURVE",
"65 652 OFFCURVE",
"65 617 CURVE SMOOTH",
"65 582 OFFCURVE",
"76 569 OFFCURVE",
"96 569 CURVE SMOOTH"
);
}
);
width = 178;
},
{
layerId = "B25F85BC-C782-4067-8484-07202F80B8CD";
name = Condensed;
paths = (
{
closed = 1;
nodes = (
"147 -226 OFFCURVE",
"204 -165 OFFCURVE",
"204 -51 CURVE SMOOTH",
"204 450 LINE",
"15 450 LINE",
"15 370 LINE",
"46 370 LINE SMOOTH",
"64 370 OFFCURVE",
"74 361 OFFCURVE",
"74 343 CURVE SMOOTH",
"74 -76 LINE SMOOTH",
"74 -124 OFFCURVE",
"61 -150 OFFCURVE",
"38 -150 CURVE SMOOTH",
"24 -150 OFFCURVE",
"15 -141 OFFCURVE",
"15 -129 CURVE SMOOTH",
"15 -113 OFFCURVE",
"30 -104 OFFCURVE",
"30 -81 CURVE SMOOTH",
"30 -53 OFFCURVE",
"7 -34 OFFCURVE",
"-27 -34 CURVE SMOOTH",
"-69 -34 OFFCURVE",
"-95 -64 OFFCURVE",
"-95 -114 CURVE SMOOTH",
"-95 -184 OFFCURVE",
"-44 -226 OFFCURVE",
"43 -226 CURVE SMOOTH"
);
},
{
closed = 1;
nodes = (
"193 519 OFFCURVE",
"220 541 OFFCURVE",
"220 596 CURVE SMOOTH",
"220 653 OFFCURVE",
"190 675 OFFCURVE",
"139 675 CURVE SMOOTH",
"89 675 OFFCURVE",
"58 653 OFFCURVE",
"58 597 CURVE SMOOTH",
"58 540 OFFCURVE",
"89 519 OFFCURVE",
"140 519 CURVE SMOOTH"
);
}
);
width = 242;
},
{
layerId = "B817C739-5D48-43E8-AAEE-CE891513D7BC";
name = "Bold Condensed";
paths = (
{
closed = 1;
nodes = (
"158 -226 OFFCURVE",
"227 -166 OFFCURVE",
"227 -51 CURVE SMOOTH",
"227 466 LINE",
"9 466 LINE",
"9 358 LINE",
"21 358 LINE SMOOTH",
"39 358 OFFCURVE",
"51 348 OFFCURVE",
"51 330 CURVE SMOOTH",
"51 -96 LINE SMOOTH",
"51 -126 OFFCURVE",
"42 -140 OFFCURVE",
"24 -140 CURVE SMOOTH",
"11 -140 OFFCURVE",
"2 -133 OFFCURVE",
"2 -121 CURVE SMOOTH",
"2 -106 OFFCURVE",
"17 -104 OFFCURVE",
"17 -81 CURVE SMOOTH",
"17 -49 OFFCURVE",
"-6 -29 OFFCURVE",
"-60 -29 CURVE SMOOTH",
"-119 -29 OFFCURVE",
"-150 -62 OFFCURVE",
"-150 -113 CURVE SMOOTH",
"-150 -183 OFFCURVE",
"-83 -226 OFFCURVE",
"27 -226 CURVE SMOOTH"
);
},
{
closed = 1;
nodes = (
"210 507 OFFCURVE",
"245 537 OFFCURVE",
"245 597 CURVE SMOOTH",
"245 659 OFFCURVE",
"205 689 OFFCURVE",
"139 689 CURVE SMOOTH",
"74 689 OFFCURVE",
"33 659 OFFCURVE",
"33 598 CURVE SMOOTH",
"33 536 OFFCURVE",
"74 507 OFFCURVE",
"140 507 CURVE SMOOTH"
);
}
);
width = 264;
},
{
layerId = UUID0;
name = "Light Extended";
paths = (
{
closed = 1;
nodes = (
"122 -226 OFFCURVE",
"175 -159 OFFCURVE",
"175 -31 CURVE SMOOTH",
"175 450 LINE",
"12 450 LINE",
"12 423 LINE",
"102 423 LINE SMOOTH",
"124 423 OFFCURVE",
"135 412 OFFCURVE",
"135 391 CURVE SMOOTH",
"135 -31 LINE SMOOTH",
"135 -141 OFFCURVE",
"96 -195 OFFCURVE",
"17 -195 CURVE SMOOTH",
"-31 -195 OFFCURVE",
"-64 -174 OFFCURVE",
"-64 -142 CURVE SMOOTH",
"-64 -116 OFFCURVE",
"-40 -114 OFFCURVE",
"-40 -88 CURVE SMOOTH",
"-40 -69 OFFCURVE",
"-54 -55 OFFCURVE",
"-72 -55 CURVE SMOOTH",
"-95 -55 OFFCURVE",
"-110 -78 OFFCURVE",
"-110 -115 CURVE SMOOTH",
"-110 -184 OFFCURVE",
"-61 -226 OFFCURVE",
"20 -226 CURVE SMOOTH"
);
},
{
closed = 1;
nodes = (
"169 569 OFFCURVE",
"180 582 OFFCURVE",
"180 617 CURVE SMOOTH",
"180 652 OFFCURVE",
"169 665 OFFCURVE",
"149 665 CURVE SMOOTH",
"129 665 OFFCURVE",
"118 652 OFFCURVE",
"118 617 CURVE SMOOTH",
"118 582 OFFCURVE",
"129 569 OFFCURVE",
"149 569 CURVE SMOOTH"
);
}
);
width = 256;
},
{
layerId = "4355E1B8-19E6-44BD-A1D7-6E3C2DECA4C8";
name = Extended;
paths = (
{
closed = 1;
nodes = (
"167 -225 OFFCURVE",
"236 -161 OFFCURVE",
"236 -40 CURVE SMOOTH",
"236 450 LINE",
"-8 450 LINE",
"-8 370 LINE",
"72 370 LINE SMOOTH",
"96 370 OFFCURVE",
"106 361 OFFCURVE",
"106 334 CURVE SMOOTH",
"106 -65 LINE SMOOTH",
"106 -119 OFFCURVE",
"81 -149 OFFCURVE",
"40 -149 CURVE SMOOTH",
"8 -149 OFFCURVE",
"-13 -140 OFFCURVE",
"-13 -128 CURVE SMOOTH",
"-13 -112 OFFCURVE",
"2 -103 OFFCURVE",
"2 -80 CURVE SMOOTH",
"2 -52 OFFCURVE",
"-21 -33 OFFCURVE",
"-55 -33 CURVE SMOOTH",
"-97 -33 OFFCURVE",
"-123 -63 OFFCURVE",
"-123 -113 CURVE SMOOTH",
"-123 -183 OFFCURVE",
"-60 -225 OFFCURVE",
"45 -225 CURVE SMOOTH"
);
},
{
closed = 1;
nodes = (
"219 517 OFFCURVE",
"246 539 OFFCURVE",
"246 594 CURVE SMOOTH",
"246 651 OFFCURVE",
"216 673 OFFCURVE",
"165 673 CURVE SMOOTH",
"115 673 OFFCURVE",
"84 651 OFFCURVE",
"84 595 CURVE SMOOTH",
"84 538 OFFCURVE",
"115 517 OFFCURVE",
"166 517 CURVE SMOOTH"
);
}
);
width = 300;
},
{
layerId = "14C77FDB-037D-4842-9381-6D9ED15DD48C";
name = "Bold Extended";
paths = (
{
closed = 1;
nodes = (
"228 -226 OFFCURVE",
"316 -162 OFFCURVE",
"316 -26 CURVE SMOOTH",
"316 480 LINE",
"5 480 LINE",
"5 338 LINE",
"58 338 LINE SMOOTH",
"78 338 OFFCURVE",
"86 330 OFFCURVE",
"86 311 CURVE SMOOTH",
"86 -51 LINE SMOOTH",
"86 -96 OFFCURVE",
"70 -115 OFFCURVE",
"34 -115 CURVE SMOOTH",
"11 -115 OFFCURVE",
"-3 -107 OFFCURVE",
"-3 -95 CURVE SMOOTH",
"-3 -83 OFFCURVE",
"12 -75 OFFCURVE",
"12 -53 CURVE SMOOTH",
"12 -21 OFFCURVE",
"-22 1 OFFCURVE",
"-73 1 CURVE SMOOTH",
"-142 1 OFFCURVE",
"-185 -38 OFFCURVE",
"-185 -101 CURVE SMOOTH",
"-185 -184 OFFCURVE",
"-110 -226 OFFCURVE",
"41 -226 CURVE SMOOTH"
);
},
{
closed = 1;
nodes = (
"293 512 OFFCURVE",
"330 547 OFFCURVE",
"330 614 CURVE SMOOTH",
"330 683 OFFCURVE",
"286 718 OFFCURVE",
"202 718 CURVE SMOOTH",
"119 718 OFFCURVE",
"72 683 OFFCURVE",
"72 615 CURVE SMOOTH",
"72 546 OFFCURVE",
"119 512 OFFCURVE",
"203 512 CURVE SMOOTH"
);
}
);
width = 335;
}
);
unicode = 006A;
},
{
glyphname = k;
lastChange = "2015-03-30 02:12:17 +0000";
layers = (
{
layerId = "E9E6D55E-9446-45F2-B66C-3272698B0216";
name = "Light Condensed";
paths = (
{
closed = 1;
nodes = (
"0 665 LINE",
"0 640 LINE",
"39 640 LINE SMOOTH",
"59 640 OFFCURVE",
"66 630 OFFCURVE",
"66 608 CURVE SMOOTH",
"66 57 LINE SMOOTH",
"66 35 OFFCURVE",
"59 25 OFFCURVE",
"39 25 CURVE SMOOTH",
"0 25 LINE",
"0 0 LINE",
"166 0 LINE",
"166 25 LINE",
"133 25 LINE SMOOTH",
"113 25 OFFCURVE",
"106 35 OFFCURVE",
"106 57 CURVE SMOOTH",
"106 665 LINE"
);
},
{
closed = 1;
nodes = (
"294 407 LINE SMOOTH",
"306 422 OFFCURVE",
"315 425 OFFCURVE",
"328 425 CURVE SMOOTH",
"349 425 LINE",
"349 450 LINE",
"198 450 LINE",
"198 425 LINE",
"232 425 LINE SMOOTH",
"243 425 OFFCURVE",
"249 421 OFFCURVE",
"249 414 CURVE SMOOTH",
"249 409 OFFCURVE",
"246 404 OFFCURVE",
"241 397 CURVE",
"79 191 LINE",
"92 154 LINE"
);
},
{
closed = 1;
nodes = (
"259 49 LINE",
"261 45 OFFCURVE",
"262 41 OFFCURVE",
"262 38 CURVE SMOOTH",
"262 31 OFFCURVE",
"257 25 OFFCURVE",
"245 25 CURVE SMOOTH",
"198 25 LINE",
"198 0 LINE",
"364 0 LINE",
"364 25 LINE",
"341 25 LINE SMOOTH",
"328 25 OFFCURVE",
"313 29 OFFCURVE",
"307 43 CURVE SMOOTH",
"197 306 LINE",
"168 265 LINE"
);
}
);
width = 362;
},
{
layerId = "B25F85BC-C782-4067-8484-07202F80B8CD";
name = Condensed;
paths = (
{
closed = 1;
nodes = (
"12 665 LINE",
"12 585 LINE",
"44 585 LINE SMOOTH",
"64 585 OFFCURVE",
"71 575 OFFCURVE",
"71 553 CURVE SMOOTH",
"71 112 LINE SMOOTH",
"71 90 OFFCURVE",
"64 80 OFFCURVE",
"44 80 CURVE SMOOTH",
"12 80 LINE",
"12 0 LINE",
"228 0 LINE",
"228 80 LINE",
"220 80 LINE SMOOTH",
"208 80 OFFCURVE",
"201 90 OFFCURVE",
"201 105 CURVE SMOOTH",
"201 665 LINE"
);
},
{
closed = 1;
nodes = (
"390 352 LINE SMOOTH",
"402 364 OFFCURVE",
"411 370 OFFCURVE",
"424 370 CURVE SMOOTH",
"445 370 LINE",
"445 450 LINE",
"220 450 LINE",
"220 370 LINE",
"254 370 LINE SMOOTH",
"265 370 OFFCURVE",
"270 364 OFFCURVE",
"270 357 CURVE SMOOTH",
"270 352 OFFCURVE",
"268 346 OFFCURVE",
"263 342 CURVE",
"101 191 LINE",
"188 154 LINE"
);
},
{
closed = 1;
nodes = (
"268 104 LINE",
"270 100 OFFCURVE",
"271 96 OFFCURVE",
"271 93 CURVE SMOOTH",
"271 86 OFFCURVE",
"266 80 OFFCURVE",
"254 80 CURVE SMOOTH",
"244 80 LINE",
"244 0 LINE",
"460 0 LINE",
"460 80 LINE",
"443 80 LINE SMOOTH",
"425 80 OFFCURVE",
"417 83 OFFCURVE",
"412 95 CURVE SMOOTH",
"315 326 LINE",
"217 233 LINE"
);
}
);
width = 462;
},
{
layerId = "B817C739-5D48-43E8-AAEE-CE891513D7BC";
name = "Bold Condensed";
paths = (
{
closed = 1;
nodes = (
"6 665 LINE",
"6 557 LINE",
"19 557 LINE SMOOTH",
"39 557 OFFCURVE",
"48 546 OFFCURVE",
"48 524 CURVE SMOOTH",
"48 141 LINE SMOOTH",
"48 119 OFFCURVE",
"39 108 OFFCURVE",
"19 108 CURVE SMOOTH",
"6 108 LINE",
"6 0 LINE",
"238 0 LINE",
"238 108 LINE",
"233 108 LINE SMOOTH",
"227 108 OFFCURVE",
"224 113 OFFCURVE",
"224 123 CURVE SMOOTH",
"224 665 LINE"
);
},
{
closed = 1;
nodes = (
"430 342 LINE SMOOTH",
"444 354 OFFCURVE",
"455 360 OFFCURVE",
"468 360 CURVE SMOOTH",
"478 360 LINE",
"478 466 LINE",
"248 466 LINE",
"248 360 LINE",
"254 360 LINE SMOOTH",
"264 360 OFFCURVE",
"270 356 OFFCURVE",
"270 347 CURVE SMOOTH",
"270 341 OFFCURVE",
"267 335 OFFCURVE",
"263 332 CURVE",
"105 191 LINE",
"211 144 LINE"
);
},
{
closed = 1;
nodes = (
"265 132 LINE SMOOTH",
"267 128 OFFCURVE",
"268 125 OFFCURVE",
"268 122 CURVE SMOOTH",
"268 114 OFFCURVE",
"261 108 OFFCURVE",
"254 108 CURVE SMOOTH",
"250 108 LINE",
"250 0 LINE",
"482 0 LINE",
"482 108 LINE",
"474 108 LINE SMOOTH",
"455 108 OFFCURVE",
"448 112 OFFCURVE",
"443 123 CURVE SMOOTH",
"346 326 LINE",
"217 233 LINE"
);
}
);
width = 488;
},
{
layerId = UUID0;
name = "Light Extended";
paths = (
{
closed = 1;
nodes = (
"30 665 LINE",
"30 638 LINE",
"96 638 LINE SMOOTH",
"116 638 OFFCURVE",
"127 626 OFFCURVE",
"127 604 CURVE SMOOTH",
"127 59 LINE SMOOTH",
"127 37 OFFCURVE",
"118 27 OFFCURVE",
"98 27 CURVE SMOOTH",
"30 27 LINE",
"30 0 LINE",
"269 0 LINE",
"269 27 LINE",
"197 27 LINE SMOOTH",
"178 27 OFFCURVE",
"171 36 OFFCURVE",
"171 59 CURVE SMOOTH",
"171 665 LINE"
);
},
{
closed = 1;
nodes = (
"464 405 LINE SMOOTH",
"480 417 OFFCURVE",
"498 423 OFFCURVE",
"516 423 CURVE SMOOTH",
"561 423 LINE",
"561 450 LINE",
"332 450 LINE",
"332 423 LINE",
"383 423 LINE SMOOTH",
"393 423 OFFCURVE",
"401 418 OFFCURVE",
"401 412 CURVE SMOOTH",
"401 408 OFFCURVE",
"397 403 OFFCURVE",
"393 398 CURVE",
"137 191 LINE",
"150 154 LINE"
);
},
{
closed = 1;
nodes = (
"424 53 LINE",
"426 50 OFFCURVE",
"428 47 OFFCURVE",
"428 43 CURVE SMOOTH",
"428 33 OFFCURVE",
"421 27 OFFCURVE",
"410 27 CURVE SMOOTH",
"342 27 LINE",
"342 0 LINE",
"582 0 LINE",
"582 27 LINE",
"535 27 LINE SMOOTH",
"513 27 OFFCURVE",
"499 31 OFFCURVE",
"491 41 CURVE SMOOTH",
"288 296 LINE",
"259 255 LINE"
);
}
);
width = 581;
},
{
layerId = "4355E1B8-19E6-44BD-A1D7-6E3C2DECA4C8";
name = Extended;
paths = (
{
closed = 1;
nodes = (
"21 665 LINE",
"21 585 LINE",
"76 585 LINE SMOOTH",
"96 585 OFFCURVE",
"103 575 OFFCURVE",
"103 553 CURVE SMOOTH",
"103 112 LINE SMOOTH",
"103 90 OFFCURVE",
"96 80 OFFCURVE",
"76 80 CURVE SMOOTH",
"21 80 LINE",
"21 0 LINE",
"315 0 LINE",
"315 80 LINE",
"252 80 LINE SMOOTH",
"240 80 OFFCURVE",
"233 90 OFFCURVE",
"233 105 CURVE SMOOTH",
"233 665 LINE"
);
},
{
closed = 1;
nodes = (
"542 358 LINE SMOOTH",
"557 367 OFFCURVE",
"565 370 OFFCURVE",
"581 370 CURVE SMOOTH",
"626 370 LINE",
"626 450 LINE",
"311 450 LINE",
"311 370 LINE",
"365 370 LINE SMOOTH",
"376 370 OFFCURVE",
"382 363 OFFCURVE",
"382 355 CURVE SMOOTH",
"382 350 OFFCURVE",
"378 345 OFFCURVE",
"374 342 CURVE",
"132 191 LINE",
"219 154 LINE"
);
},
{
closed = 1;
nodes = (
"405 104 LINE SMOOTH",
"408 100 OFFCURVE",
"409 97 OFFCURVE",
"409 94 CURVE SMOOTH",
"409 86 OFFCURVE",
"400 80 OFFCURVE",
"391 80 CURVE SMOOTH",
"350 80 LINE",
"350 0 LINE",
"641 0 LINE",
"641 80 LINE",
"607 80 LINE SMOOTH",
"589 80 OFFCURVE",
"577 84 OFFCURVE",
"569 95 CURVE SMOOTH",
"412 316 LINE",
"314 223 LINE"
);
}
);
width = 651;
},
{
layerId = "14C77FDB-037D-4842-9381-6D9ED15DD48C";
name = "Bold Extended";
paths = (
{
closed = 1;
nodes = (
"5 665 LINE",
"5 523 LINE",
"59 523 LINE SMOOTH",
"80 523 OFFCURVE",
"86 512 OFFCURVE",
"86 492 CURVE SMOOTH",
"86 170 LINE SMOOTH",
"86 153 OFFCURVE",
"80 142 OFFCURVE",
"61 142 CURVE SMOOTH",
"5 142 LINE",
"5 0 LINE",
"363 0 LINE",
"363 142 LINE",
"338 142 LINE SMOOTH",
"323 142 OFFCURVE",
"316 148 OFFCURVE",
"316 166 CURVE SMOOTH",
"316 665 LINE"
);
},
{
closed = 1;
nodes = (
"683 330 LINE SMOOTH",
"701 337 OFFCURVE",
"706 340 OFFCURVE",
"722 340 CURVE SMOOTH",
"740 340 LINE",
"740 480 LINE",
"353 480 LINE",
"353 340 LINE",
"389 340 LINE SMOOTH",
"400 340 OFFCURVE",
"403 335 OFFCURVE",
"403 331 CURVE SMOOTH",
"403 327 OFFCURVE",
"399 323 OFFCURVE",
"393 321 CURVE SMOOTH",
"190 251 LINE",
"296 174 LINE"
);
},
{
closed = 1;
nodes = (
"427 166 LINE",
"429 162 OFFCURVE",
"430 159 OFFCURVE",
"430 156 CURVE SMOOTH",
"430 148 OFFCURVE",
"423 142 OFFCURVE",
"416 142 CURVE SMOOTH",
"387 142 LINE",
"387 0 LINE",
"746 0 LINE",
"746 142 LINE",
"708 142 LINE SMOOTH",
"689 142 OFFCURVE",
"682 145 OFFCURVE",
"677 157 CURVE",
"580 326 LINE",
"379 233 LINE"
);
}
);
width = 751;
}
);
leftMetricsKey = h;
unicode = 006B;
},
{
glyphname = l;
lastChange = "2015-03-30 14:43:23 +0000";
layers = (
{
layerId = "E9E6D55E-9446-45F2-B66C-3272698B0216";
name = "Light Condensed";
paths = (
{
closed = 1;
nodes = (
"172 0 LINE",
"172 25 LINE",
"129 25 LINE SMOOTH",
"112 25 OFFCURVE",
"106 38 OFFCURVE",
"106 57 CURVE SMOOTH",
"106 665 LINE",
"1 665 LINE",
"1 640 LINE",
"31 640 LINE SMOOTH",
"60 640 OFFCURVE",
"66 627 OFFCURVE",
"66 599 CURVE SMOOTH",
"66 57 LINE SMOOTH",
"66 38 OFFCURVE",
"60 25 OFFCURVE",
"39 25 CURVE SMOOTH",
"0 25 LINE",
"0 0 LINE"
);
}
);
width = 180;
},
{
layerId = "B25F85BC-C782-4067-8484-07202F80B8CD";
name = Condensed;
paths = (
{
closed = 1;
nodes = (
"260 0 LINE",
"260 80 LINE",
"226 80 LINE SMOOTH",
"206 80 OFFCURVE",
"201 93 OFFCURVE",
"201 113 CURVE SMOOTH",
"201 665 LINE",
"12 665 LINE",
"12 585 LINE",
"46 585 LINE SMOOTH",
"66 585 OFFCURVE",
"71 572 OFFCURVE",
"71 552 CURVE SMOOTH",
"71 113 LINE SMOOTH",
"71 93 OFFCURVE",
"66 80 OFFCURVE",
"46 80 CURVE SMOOTH",
"12 80 LINE",
"12 0 LINE"
);
}
);
width = 276;
},
{
layerId = "B817C739-5D48-43E8-AAEE-CE891513D7BC";
name = "Bold Condensed";
paths = (
{
closed = 1;
nodes = (
"266 0 LINE",
"266 108 LINE",
"254 108 LINE SMOOTH",
"234 108 OFFCURVE",
"224 119 OFFCURVE",
"224 139 CURVE SMOOTH",
"224 665 LINE",
"6 665 LINE",
"6 557 LINE",
"18 557 LINE SMOOTH",
"38 557 OFFCURVE",
"48 546 OFFCURVE",
"48 526 CURVE SMOOTH",
"48 139 LINE SMOOTH",
"48 119 OFFCURVE",
"38 108 OFFCURVE",
"18 108 CURVE SMOOTH",
"6 108 LINE",
"6 0 LINE"
);
}
);
width = 272;
},
{
layerId = UUID0;
name = "Light Extended";
paths = (
{
closed = 1;
nodes = (
"266 0 LINE",
"266 27 LINE",
"194 27 LINE SMOOTH",
"177 27 OFFCURVE",
"171 40 OFFCURVE",
"171 59 CURVE SMOOTH",
"171 665 LINE",
"31 665 LINE",
"31 640 LINE",
"92 640 LINE SMOOTH",
"121 640 OFFCURVE",
"127 627 OFFCURVE",
"127 599 CURVE SMOOTH",
"127 59 LINE SMOOTH",
"127 40 OFFCURVE",
"121 27 OFFCURVE",
"100 27 CURVE SMOOTH",
"30 27 LINE",
"30 0 LINE"
);
}
);
width = 294;
},
{
layerId = "4355E1B8-19E6-44BD-A1D7-6E3C2DECA4C8";
name = Extended;
paths = (
{
closed = 1;
nodes = (
"320 0 LINE",
"320 80 LINE",
"259 80 LINE SMOOTH",
"242 80 OFFCURVE",
"236 93 OFFCURVE",
"236 112 CURVE SMOOTH",
"236 665 LINE",
"21 665 LINE",
"21 585 LINE",
"71 585 LINE SMOOTH",
"100 585 OFFCURVE",
"106 572 OFFCURVE",
"106 544 CURVE SMOOTH",
"106 112 LINE SMOOTH",
"106 93 OFFCURVE",
"100 80 OFFCURVE",
"79 80 CURVE SMOOTH",
"21 80 LINE",
"21 0 LINE"
);
}
);
width = 342;
},
{
layerId = "14C77FDB-037D-4842-9381-6D9ED15DD48C";
name = "Bold Extended";
paths = (
{
closed = 1;
nodes = (
"397 0 LINE",
"397 142 LINE",
"342 142 LINE SMOOTH",
"322 142 OFFCURVE",
"316 149 OFFCURVE",
"316 177 CURVE SMOOTH",
"316 665 LINE",
"5 665 LINE",
"5 523 LINE",
"60 523 LINE SMOOTH",
"80 523 OFFCURVE",
"86 516 OFFCURVE",
"86 488 CURVE SMOOTH",
"86 177 LINE SMOOTH",
"86 149 OFFCURVE",
"80 142 OFFCURVE",
"60 142 CURVE SMOOTH",
"5 142 LINE",
"5 0 LINE"
);
}
);
width = 400;
}
);
leftMetricsKey = h;
rightMetricsKey = "=n-2";
unicode = 006C;
},
{
glyphname = m;
lastChange = "2015-03-25 19:56:23 +0000";
layers = (
{
layerId = "E9E6D55E-9446-45F2-B66C-3272698B0216";
name = "Light Condensed";
paths = (
{
closed = 1;
nodes = (
"176 0 LINE",
"176 25 LINE",
"143 25 LINE SMOOTH",
"123 25 OFFCURVE",
"116 35 OFFCURVE",
"116 57 CURVE SMOOTH",
"116 259 LINE SMOOTH",
"116 353 OFFCURVE",
"153 425 OFFCURVE",
"206 425 CURVE SMOOTH",
"237 425 OFFCURVE",
"258 400 OFFCURVE",
"258 360 CURVE SMOOTH",
"258 57 LINE SMOOTH",
"258 35 OFFCURVE",
"252 25 OFFCURVE",
"231 25 CURVE SMOOTH",
"208 25 LINE",
"208 0 LINE",
"354 0 LINE",
"354 25 LINE",
"325 25 LINE SMOOTH",
"304 25 OFFCURVE",
"298 35 OFFCURVE",
"298 57 CURVE SMOOTH",
"298 266 LINE SMOOTH",
"298 356 OFFCURVE",
"332 425 OFFCURVE",
"384 425 CURVE SMOOTH",
"415 425 OFFCURVE",
"436 400 OFFCURVE",
"436 360 CURVE SMOOTH",
"436 57 LINE SMOOTH",
"436 35 OFFCURVE",
"430 25 OFFCURVE",
"409 25 CURVE SMOOTH",
"386 25 LINE",
"386 0 LINE",
"532 0 LINE",
"532 25 LINE",
"503 25 LINE SMOOTH",
"482 25 OFFCURVE",
"476 35 OFFCURVE",
"476 57 CURVE SMOOTH",
"476 363 LINE SMOOTH",
"476 424 OFFCURVE",
"442 460 OFFCURVE",
"390 460 CURVE SMOOTH",
"348 460 OFFCURVE",
"319 436 OFFCURVE",
"299 392 CURVE",
"295 392 LINE",
"287 432 OFFCURVE",
"257 460 OFFCURVE",
"212 460 CURVE SMOOTH",
"172 460 OFFCURVE",
"141 438 OFFCURVE",
"120 392 CURVE",
"116 392 LINE",
"116 450 LINE",
"10 450 LINE",
"10 425 LINE",
"49 425 LINE SMOOTH",
"69 425 OFFCURVE",
"76 415 OFFCURVE",
"76 393 CURVE SMOOTH",
"76 57 LINE SMOOTH",
"76 35 OFFCURVE",
"69 25 OFFCURVE",
"49 25 CURVE SMOOTH",
"10 25 LINE",
"10 0 LINE"
);
}
);
width = 542;
},
{
layerId = "B25F85BC-C782-4067-8484-07202F80B8CD";
name = Condensed;
paths = (
{
closed = 1;
nodes = (
"232 0 LINE",
"232 80 LINE",
"225 80 LINE SMOOTH",
"212 80 OFFCURVE",
"205 90 OFFCURVE",
"205 107 CURVE SMOOTH",
"205 269 LINE SMOOTH",
"205 315 OFFCURVE",
"219 338 OFFCURVE",
"246 338 CURVE SMOOTH",
"265 338 OFFCURVE",
"275 322 OFFCURVE",
"275 289 CURVE SMOOTH",
"275 107 LINE SMOOTH",
"275 90 OFFCURVE",
"268 80 OFFCURVE",
"255 80 CURVE SMOOTH",
"248 80 LINE",
"248 0 LINE",
"432 0 LINE",
"432 80 LINE",
"423 80 LINE SMOOTH",
"412 80 OFFCURVE",
"405 90 OFFCURVE",
"405 107 CURVE SMOOTH",
"405 269 LINE SMOOTH",
"405 315 OFFCURVE",
"419 338 OFFCURVE",
"446 338 CURVE SMOOTH",
"465 338 OFFCURVE",
"475 322 OFFCURVE",
"475 289 CURVE SMOOTH",
"475 107 LINE SMOOTH",
"475 90 OFFCURVE",
"468 80 OFFCURVE",
"455 80 CURVE SMOOTH",
"448 80 LINE",
"448 0 LINE",
"664 0 LINE",
"664 80 LINE",
"630 80 LINE SMOOTH",
"612 80 OFFCURVE",
"605 90 OFFCURVE",
"605 113 CURVE SMOOTH",
"605 344 LINE SMOOTH",
"605 415 OFFCURVE",
"568 460 OFFCURVE",
"509 460 CURVE SMOOTH",
"460 460 OFFCURVE",
"417 428 OFFCURVE",
"405 380 CURVE",
"401.428 380 LINE",
"390.834 429.862 OFFCURVE",
"357.284 460 OFFCURVE",
"309 460 CURVE SMOOTH",
"260 460 OFFCURVE",
"221 428 OFFCURVE",
"209 380 CURVE",
"205 380 LINE",
"205 450 LINE",
"16 450 LINE",
"16 370 LINE",
"50 370 LINE SMOOTH",
"68 370 OFFCURVE",
"75 360 OFFCURVE",
"75 337 CURVE SMOOTH",
"75 113 LINE SMOOTH",
"75 90 OFFCURVE",
"68 80 OFFCURVE",
"50 80 CURVE SMOOTH",
"16 80 LINE",
"16 0 LINE"
);
}
);
width = 680;
},
{
layerId = "B817C739-5D48-43E8-AAEE-CE891513D7BC";
name = "Bold Condensed";
paths = (
{
closed = 1;
nodes = (
"238 0 LINE",
"238 108 LINE",
"234 108 LINE SMOOTH",
"227 108 OFFCURVE",
"224 112 OFFCURVE",
"224 123 CURVE SMOOTH",
"224 261 LINE SMOOTH",
"224 315 OFFCURVE",
"230 334 OFFCURVE",
"247 334 CURVE SMOOTH",
"260 334 OFFCURVE",
"264 324 OFFCURVE",
"264 292 CURVE SMOOTH",
"264 123 LINE SMOOTH",
"264 112 OFFCURVE",
"261 108 OFFCURVE",
"254 108 CURVE SMOOTH",
"250 108 LINE",
"250 0 LINE",
"454 0 LINE",
"454 108 LINE",
"450 108 LINE SMOOTH",
"443 108 OFFCURVE",
"440 112 OFFCURVE",
"440 121 CURVE SMOOTH",
"440 276 LINE SMOOTH",
"440 318 OFFCURVE",
"447 334 OFFCURVE",
"463 334 CURVE SMOOTH",
"476 334 OFFCURVE",
"480 324 OFFCURVE",
"480 292 CURVE SMOOTH",
"480 123 LINE SMOOTH",
"480 112 OFFCURVE",
"477 108 OFFCURVE",
"470 108 CURVE SMOOTH",
"466 108 LINE",
"466 0 LINE",
"698 0 LINE",
"698 108 LINE",
"686 108 LINE SMOOTH",
"666 108 OFFCURVE",
"656 119 OFFCURVE",
"656 139 CURVE SMOOTH",
"656 345 LINE SMOOTH",
"656 427 OFFCURVE",
"613 476 OFFCURVE",
"542 476 CURVE SMOOTH",
"492 476 OFFCURVE",
"457 452 OFFCURVE",
"435 403 CURVE",
"431 403 LINE",
"415 449 OFFCURVE",
"378 476 OFFCURVE",
"326 476 CURVE SMOOTH",
"280 476 OFFCURVE",
"248 455 OFFCURVE",
"228 413 CURVE",
"224 413 LINE",
"224 466 LINE",
"6 466 LINE",
"6 358 LINE",
"18 358 LINE SMOOTH",
"38 358 OFFCURVE",
"48 347 OFFCURVE",
"48 327 CURVE SMOOTH",
"48 139 LINE SMOOTH",
"48 119 OFFCURVE",
"38 108 OFFCURVE",
"18 108 CURVE SMOOTH",
"6 108 LINE",
"6 0 LINE"
);
}
);
width = 704;
},
{
layerId = UUID0;
name = "Light Extended";
paths = (
{
closed = 1;
nodes = (
"274 0 LINE",
"274 27 LINE",
"197 27 LINE SMOOTH",
"182 27 OFFCURVE",
"175 38 OFFCURVE",
"175 59 CURVE SMOOTH",
"175 223 LINE SMOOTH",
"175 351 OFFCURVE",
"230 422 OFFCURVE",
"328 422 CURVE SMOOTH",
"405 422 OFFCURVE",
"446 378 OFFCURVE",
"446 297 CURVE SMOOTH",
"446 59 LINE SMOOTH",
"446 36 OFFCURVE",
"439 27 OFFCURVE",
"421 27 CURVE SMOOTH",
"346 27 LINE",
"346 0 LINE",
"586 0 LINE",
"586 27 LINE",
"515 27 LINE SMOOTH",
"497 27 OFFCURVE",
"490 35 OFFCURVE",
"490 59 CURVE SMOOTH",
"490 261 LINE SMOOTH",
"490 362 OFFCURVE",
"546 422 OFFCURVE",
"640 422 CURVE SMOOTH",
"722 422 OFFCURVE",
"761 376 OFFCURVE",
"761 277 CURVE SMOOTH",
"761 59 LINE SMOOTH",
"761 36 OFFCURVE",
"754 27 OFFCURVE",
"736 27 CURVE SMOOTH",
"661 27 LINE",
"661 0 LINE",
"901 0 LINE",
"901 27 LINE",
"830 27 LINE SMOOTH",
"812 27 OFFCURVE",
"805 35 OFFCURVE",
"805 59 CURVE SMOOTH",
"805 278 LINE SMOOTH",
"805 401 OFFCURVE",
"755 460 OFFCURVE",
"649 460 CURVE SMOOTH",
"573 460 OFFCURVE",
"519 430 OFFCURVE",
"485 368 CURVE",
"481 368 LINE",
"462 429 OFFCURVE",
"414 460 OFFCURVE",
"338 460 CURVE SMOOTH",
"262 460 OFFCURVE",
"212 431 OFFCURVE",
"179 368 CURVE",
"175 368 LINE",
"175 450 LINE",
"34 450 LINE",
"34 423 LINE",
"96 423 LINE SMOOTH",
"122 423 OFFCURVE",
"131 413 OFFCURVE",
"131 382 CURVE SMOOTH",
"131 59 LINE SMOOTH",
"131 37 OFFCURVE",
"122 27 OFFCURVE",
"103 27 CURVE SMOOTH",
"34 27 LINE",
"34 0 LINE"
);
}
);
width = 935;
},
{
layerId = "4355E1B8-19E6-44BD-A1D7-6E3C2DECA4C8";
name = Extended;
paths = (
{
closed = 1;
nodes = (
"309 0 LINE",
"309 80 LINE",
"252 80 LINE SMOOTH",
"240 80 OFFCURVE",
"235 89 OFFCURVE",
"235 108 CURVE SMOOTH",
"235 234 LINE SMOOTH",
"235 316 OFFCURVE",
"278 365 OFFCURVE",
"350 365 CURVE SMOOTH",
"404 365 OFFCURVE",
"428 338 OFFCURVE",
"428 277 CURVE SMOOTH",
"428 107 LINE SMOOTH",
"428 89 OFFCURVE",
"422 80 OFFCURVE",
"408 80 CURVE SMOOTH",
"354 80 LINE",
"354 0 LINE",
"642 0 LINE",
"642 80 LINE",
"588 80 LINE SMOOTH",
"566 80 OFFCURVE",
"558 87 OFFCURVE",
"558 106 CURVE SMOOTH",
"558 234 LINE SMOOTH",
"558 316 OFFCURVE",
"601 365 OFFCURVE",
"673 365 CURVE SMOOTH",
"727 365 OFFCURVE",
"751 338 OFFCURVE",
"751 277 CURVE SMOOTH",
"751 107 LINE SMOOTH",
"751 89 OFFCURVE",
"745 80 OFFCURVE",
"731 80 CURVE SMOOTH",
"677 80 LINE",
"677 0 LINE",
"965 0 LINE",
"965 80 LINE",
"911 80 LINE SMOOTH",
"889 80 OFFCURVE",
"881 87 OFFCURVE",
"881 106 CURVE SMOOTH",
"881 296 LINE SMOOTH",
"881 402 OFFCURVE",
"823 460 OFFCURVE",
"718 460 CURVE SMOOTH",
"641 460 OFFCURVE",
"580 428 OFFCURVE",
"550 372 CURVE",
"545 372 LINE",
"521 430 OFFCURVE",
"470 460 OFFCURVE",
"394 460 CURVE SMOOTH",
"320 460 OFFCURVE",
"264 432 OFFCURVE",
"236 380 CURVE",
"232 380 LINE",
"232 450 LINE",
"20 450 LINE",
"20 370 LINE",
"70 370 LINE SMOOTH",
"96 370 OFFCURVE",
"105 360 OFFCURVE",
"105 329 CURVE SMOOTH",
"105 106 LINE SMOOTH",
"105 88 OFFCURVE",
"95 80 OFFCURVE",
"72 80 CURVE SMOOTH",
"20 80 LINE",
"20 0 LINE"
);
}
);
width = 985;
},
{
layerId = "14C77FDB-037D-4842-9381-6D9ED15DD48C";
name = "Bold Extended";
paths = (
{
closed = 1;
nodes = (
"364 0 LINE",
"364 142 LINE",
"341 142 LINE SMOOTH",
"322 142 OFFCURVE",
"316 148 OFFCURVE",
"316 165 CURVE SMOOTH",
"316 258 LINE SMOOTH",
"316 307 OFFCURVE",
"341 334 OFFCURVE",
"385 334 CURVE SMOOTH",
"420 334 OFFCURVE",
"436 317 OFFCURVE",
"436 280 CURVE SMOOTH",
"436 165 LINE SMOOTH",
"436 148 OFFCURVE",
"430 142 OFFCURVE",
"411 142 CURVE SMOOTH",
"389 142 LINE",
"389 0 LINE",
"714 0 LINE",
"714 142 LINE",
"692 142 LINE SMOOTH",
"672 142 OFFCURVE",
"666 150 OFFCURVE",
"666 177 CURVE SMOOTH",
"666 265 LINE SMOOTH",
"666 308 OFFCURVE",
"691 334 OFFCURVE",
"735 334 CURVE SMOOTH",
"770 334 OFFCURVE",
"786 317 OFFCURVE",
"786 280 CURVE SMOOTH",
"786 165 LINE SMOOTH",
"786 148 OFFCURVE",
"780 142 OFFCURVE",
"761 142 CURVE SMOOTH",
"739 142 LINE",
"739 0 LINE",
"1097 0 LINE",
"1097 142 LINE",
"1042 142 LINE SMOOTH",
"1022 142 OFFCURVE",
"1016 150 OFFCURVE",
"1016 177 CURVE SMOOTH",
"1016 317 LINE SMOOTH",
"1016 429 OFFCURVE",
"953 490 OFFCURVE",
"839 490 CURVE SMOOTH",
"764 490 OFFCURVE",
"714 465 OFFCURVE",
"666 403 CURVE",
"662 403 LINE",
"643 459 OFFCURVE",
"584 490 OFFCURVE",
"496 490 CURVE SMOOTH",
"418 490 OFFCURVE",
"364 466 OFFCURVE",
"320 413 CURVE",
"316 413 LINE",
"316 480 LINE",
"5 480 LINE",
"5 338 LINE",
"60 338 LINE SMOOTH",
"80 338 OFFCURVE",
"86 330 OFFCURVE",
"86 303 CURVE SMOOTH",
"86 177 LINE SMOOTH",
"86 150 OFFCURVE",
"80 142 OFFCURVE",
"60 142 CURVE SMOOTH",
"5 142 LINE",
"5 0 LINE"
);
}
);
width = 1102;
}
);
unicode = 006D;
},
{
glyphname = n;
lastChange = "2015-03-30 14:43:15 +0000";
layers = (
{
background = {
paths = (
{
closed = 1;
nodes = (
"30 0 LINE",
"270 0 LINE",
"270 27 LINE",
"193 27 LINE SMOOTH",
"178 27 OFFCURVE",
"171 38 OFFCURVE",
"171 59 CURVE SMOOTH",
"171 238 LINE SMOOTH",
"171 352 OFFCURVE",
"233 422 OFFCURVE",
"335 422 CURVE SMOOTH",
"420 422 OFFCURVE",
"462 374 OFFCURVE",
"462 277 CURVE SMOOTH",
"462 59 LINE SMOOTH",
"462 36 OFFCURVE",
"455 27 OFFCURVE",
"437 27 CURVE SMOOTH",
"362 27 LINE",
"362 0 LINE",
"602 0 LINE",
"602 27 LINE",
"531 27 LINE SMOOTH",
"513 27 OFFCURVE",
"506 35 OFFCURVE",
"506 59 CURVE SMOOTH",
"506 278 LINE SMOOTH",
"506 401 OFFCURVE",
"452 460 OFFCURVE",
"342 460 CURVE SMOOTH",
"265 460 OFFCURVE",
"211 431 OFFCURVE",
"175 368 CURVE",
"171 368 LINE",
"171 450 LINE",
"30 450 LINE",
"30 423 LINE",
"92 423 LINE SMOOTH",
"118 423 OFFCURVE",
"127 413 OFFCURVE",
"127 382 CURVE SMOOTH",
"127 59 LINE SMOOTH",
"127 37 OFFCURVE",
"118 27 OFFCURVE",
"99 27 CURVE SMOOTH",
"30 27 LINE"
);
}
);
};
layerId = UUID0;
name = "Light Extended";
paths = (
{
closed = 1;
nodes = (
"30 0 LINE",
"270 0 LINE",
"270 27 LINE",
"193 27 LINE SMOOTH",
"178 27 OFFCURVE",
"171 38 OFFCURVE",
"171 59 CURVE SMOOTH",
"171 223 LINE SMOOTH",
"171 351 OFFCURVE",
"230 422 OFFCURVE",
"335 422 CURVE SMOOTH",
"420 422 OFFCURVE",
"462 374 OFFCURVE",
"462 277 CURVE SMOOTH",
"462 59 LINE SMOOTH",
"462 36 OFFCURVE",
"455 27 OFFCURVE",
"437 27 CURVE SMOOTH",
"362 27 LINE",
"362 0 LINE",
"602 0 LINE",
"602 27 LINE",
"531 27 LINE SMOOTH",
"513 27 OFFCURVE",
"506 35 OFFCURVE",
"506 59 CURVE SMOOTH",
"506 278 LINE SMOOTH",
"506 401 OFFCURVE",
"452 460 OFFCURVE",
"342 460 CURVE SMOOTH",
"264 460 OFFCURVE",
"210 430 OFFCURVE",
"175 368 CURVE",
"171 368 LINE",
"171 450 LINE",
"30 450 LINE",
"30 423 LINE",
"92 423 LINE SMOOTH",
"118 423 OFFCURVE",
"127 413 OFFCURVE",
"127 382 CURVE SMOOTH",
"127 59 LINE SMOOTH",
"127 37 OFFCURVE",
"118 27 OFFCURVE",
"99 27 CURVE SMOOTH",
"30 27 LINE"
);
}
);
width = 632;
},
{
background = {
paths = (
{
closed = 1;
nodes = (
"24 0 LINE",
"318 0 LINE",
"318 80 LINE",
"256 80 LINE SMOOTH",
"244 80 OFFCURVE",
"239 89 OFFCURVE",
"239 108 CURVE SMOOTH",
"239 245 LINE SMOOTH",
"239 319 OFFCURVE",
"282 365 OFFCURVE",
"349 365 CURVE SMOOTH",
"409 365 OFFCURVE",
"442 329 OFFCURVE",
"442 261 CURVE SMOOTH",
"442 107 LINE SMOOTH",
"442 89 OFFCURVE",
"436 80 OFFCURVE",
"422 80 CURVE SMOOTH",
"363 80 LINE",
"363 0 LINE",
"656 0 LINE",
"656 80 LINE",
"602 80 LINE SMOOTH",
"580 80 OFFCURVE",
"572 87 OFFCURVE",
"572 106 CURVE SMOOTH",
"572 296 LINE SMOOTH",
"572 400 OFFCURVE",
"511 460 OFFCURVE",
"404 460 CURVE SMOOTH",
"328 460 OFFCURVE",
"268 430 OFFCURVE",
"240 380 CURVE",
"236 380 LINE",
"236 450 LINE",
"24 450 LINE",
"24 370 LINE",
"74 370 LINE SMOOTH",
"100 370 OFFCURVE",
"109 360 OFFCURVE",
"109 329 CURVE SMOOTH",
"109 106 LINE SMOOTH",
"109 88 OFFCURVE",
"99 80 OFFCURVE",
"76 80 CURVE SMOOTH",
"24 80 LINE"
);
}
);
};
layerId = "4355E1B8-19E6-44BD-A1D7-6E3C2DECA4C8";
name = Extended;
paths = (
{
closed = 1;
nodes = (
"24 0 LINE",
"318 0 LINE",
"318 80 LINE",
"256 80 LINE SMOOTH",
"244 80 OFFCURVE",
"239 89 OFFCURVE",
"239 108 CURVE SMOOTH",
"239 234 LINE SMOOTH",
"239 311 OFFCURVE",
"283 365 OFFCURVE",
"357 365 CURVE SMOOTH",
"417 365 OFFCURVE",
"442 335 OFFCURVE",
"442 277 CURVE SMOOTH",
"442 107 LINE SMOOTH",
"442 89 OFFCURVE",
"436 80 OFFCURVE",
"422 80 CURVE SMOOTH",
"363 80 LINE",
"363 0 LINE",
"656 0 LINE",
"656 80 LINE",
"602 80 LINE SMOOTH",
"580 80 OFFCURVE",
"572 87 OFFCURVE",
"572 106 CURVE SMOOTH",
"572 296 LINE SMOOTH",
"572 400 OFFCURVE",
"511 460 OFFCURVE",
"404 460 CURVE SMOOTH",
"328 460 OFFCURVE",
"268 430 OFFCURVE",
"240 380 CURVE",
"236 380 LINE",
"236 450 LINE",
"24 450 LINE",
"24 370 LINE",
"74 370 LINE SMOOTH",
"100 370 OFFCURVE",
"109 360 OFFCURVE",
"109 329 CURVE SMOOTH",
"109 106 LINE SMOOTH",
"109 88 OFFCURVE",
"99 80 OFFCURVE",
"76 80 CURVE SMOOTH",
"24 80 LINE"
);
}
);
width = 680;
},
{
background = {
paths = (
{
closed = 1;
nodes = (
"5 0 LINE",
"369 0 LINE",
"369 142 LINE",
"341 142 LINE SMOOTH",
"322 142 OFFCURVE",
"316 148 OFFCURVE",
"316 165 CURVE SMOOTH",
"316 255 LINE SMOOTH",
"316 299 OFFCURVE",
"340 334 OFFCURVE",
"388 334 CURVE SMOOTH",
"426 334 OFFCURVE",
"446 312 OFFCURVE",
"446 271 CURVE SMOOTH",
"446 165 LINE SMOOTH",
"446 148 OFFCURVE",
"440 142 OFFCURVE",
"421 142 CURVE SMOOTH",
"393 142 LINE",
"393 0 LINE",
"757 0 LINE",
"757 142 LINE",
"702 142 LINE SMOOTH",
"682 142 OFFCURVE",
"676 149 OFFCURVE",
"676 177 CURVE SMOOTH",
"676 327 LINE SMOOTH",
"676 435 OFFCURVE",
"605 490 OFFCURVE",
"495 490 CURVE SMOOTH",
"426 490 OFFCURVE",
"367 468 OFFCURVE",
"320 413 CURVE",
"316 413 LINE",
"316 480 LINE",
"5 480 LINE",
"5 338 LINE",
"60 338 LINE SMOOTH",
"80 338 OFFCURVE",
"86 331 OFFCURVE",
"86 303 CURVE SMOOTH",
"86 177 LINE SMOOTH",
"86 149 OFFCURVE",
"80 142 OFFCURVE",
"60 142 CURVE SMOOTH",
"5 142 LINE"
);
}
);
};
layerId = "14C77FDB-037D-4842-9381-6D9ED15DD48C";
name = "Bold Extended";
paths = (
{
closed = 1;
nodes = (
"5 0 LINE",
"369 0 LINE",
"369 142 LINE",
"341 142 LINE SMOOTH",
"322 142 OFFCURVE",
"316 148 OFFCURVE",
"316 165 CURVE SMOOTH",
"316 258 LINE SMOOTH",
"316 305 OFFCURVE",
"344 334 OFFCURVE",
"390 334 CURVE SMOOTH",
"427 334 OFFCURVE",
"446 315 OFFCURVE",
"446 280 CURVE SMOOTH",
"446 165 LINE SMOOTH",
"446 148 OFFCURVE",
"440 142 OFFCURVE",
"421 142 CURVE SMOOTH",
"393 142 LINE",
"393 0 LINE",
"757 0 LINE",
"757 142 LINE",
"702 142 LINE SMOOTH",
"682 142 OFFCURVE",
"676 150 OFFCURVE",
"676 177 CURVE SMOOTH",
"676 317 LINE SMOOTH",
"676 427 OFFCURVE",
"610 490 OFFCURVE",
"495 490 CURVE SMOOTH",
"421 490 OFFCURVE",
"364 465 OFFCURVE",
"320 413 CURVE",
"316 413 LINE",
"316 480 LINE",
"5 480 LINE",
"5 338 LINE",
"60 338 LINE SMOOTH",
"80 338 OFFCURVE",
"86 330 OFFCURVE",
"86 303 CURVE SMOOTH",
"86 177 LINE SMOOTH",
"86 150 OFFCURVE",
"80 142 OFFCURVE",
"60 142 CURVE SMOOTH",
"5 142 LINE"
);
}
);
width = 762;
},
{
background = {
paths = (
{
closed = 1;
nodes = (
"10 0 LINE",
"176 0 LINE",
"176 25 LINE",
"143 25 LINE SMOOTH",
"123 25 OFFCURVE",
"116 35 OFFCURVE",
"116 57 CURVE SMOOTH",
"116 259 LINE SMOOTH",
"116 353 OFFCURVE",
"158 425 OFFCURVE",
"214 425 CURVE SMOOTH",
"248 425 OFFCURVE",
"268 400 OFFCURVE",
"268 360 CURVE SMOOTH",
"268 57 LINE SMOOTH",
"268 35 OFFCURVE",
"261 25 OFFCURVE",
"241 25 CURVE SMOOTH",
"208 25 LINE",
"208 0 LINE",
"374 0 LINE",
"374 25 LINE",
"335 25 LINE SMOOTH",
"315 25 OFFCURVE",
"308 35 OFFCURVE",
"308 57 CURVE SMOOTH",
"308 363 LINE SMOOTH",
"308 424 OFFCURVE",
"275 460 OFFCURVE",
"221 460 CURVE SMOOTH",
"177 460 OFFCURVE",
"142 436 OFFCURVE",
"120 392 CURVE",
"116 392 LINE",
"116 450 LINE",
"10 450 LINE",
"10 425 LINE",
"49 425 LINE SMOOTH",
"69 425 OFFCURVE",
"76 415 OFFCURVE",
"76 393 CURVE SMOOTH",
"76 57 LINE SMOOTH",
"76 35 OFFCURVE",
"69 25 OFFCURVE",
"49 25 CURVE SMOOTH",
"10 25 LINE"
);
}
);
};
layerId = "E9E6D55E-9446-45F2-B66C-3272698B0216";
name = "Light Condensed";
paths = (
{
closed = 1;
nodes = (
"10 0 LINE",
"176 0 LINE",
"176 25 LINE",
"143 25 LINE SMOOTH",
"123 25 OFFCURVE",
"116 35 OFFCURVE",
"116 57 CURVE SMOOTH",
"116 259 LINE SMOOTH",
"116 353 OFFCURVE",
"158 425 OFFCURVE",
"214 425 CURVE SMOOTH",
"248 425 OFFCURVE",
"268 400 OFFCURVE",
"268 360 CURVE SMOOTH",
"268 57 LINE SMOOTH",
"268 35 OFFCURVE",
"261 25 OFFCURVE",
"241 25 CURVE SMOOTH",
"208 25 LINE",
"208 0 LINE",
"374 0 LINE",
"374 25 LINE",
"335 25 LINE SMOOTH",
"315 25 OFFCURVE",
"308 35 OFFCURVE",
"308 57 CURVE SMOOTH",
"308 363 LINE SMOOTH",
"308 424 OFFCURVE",
"275 460 OFFCURVE",
"221 460 CURVE SMOOTH",
"177 460 OFFCURVE",
"142 435 OFFCURVE",
"120 391 CURVE",
"116 391 LINE",
"116 450 LINE",
"10 450 LINE",
"10 425 LINE",
"49 425 LINE SMOOTH",
"69 425 OFFCURVE",
"76 415 OFFCURVE",
"76 393 CURVE SMOOTH",
"76 57 LINE SMOOTH",
"76 35 OFFCURVE",
"69 25 OFFCURVE",
"49 25 CURVE SMOOTH",
"10 25 LINE"
);
}
);
width = 384;
},
{
background = {
paths = (
{
closed = 1;
nodes = (
"18 0 LINE",
"234 0 LINE",
"234 80 LINE",
"227 80 LINE SMOOTH",
"213 80 OFFCURVE",
"207 91 OFFCURVE",
"207 107 CURVE SMOOTH",
"207 296 LINE SMOOTH",
"207 332 OFFCURVE",
"215 365 OFFCURVE",
"244 365 CURVE SMOOTH",
"264 365 OFFCURVE",
"277 349 OFFCURVE",
"277 316 CURVE SMOOTH",
"277 107 LINE SMOOTH",
"277 91 OFFCURVE",
"271 80 OFFCURVE",
"257 80 CURVE SMOOTH",
"250 80 LINE",
"250 0 LINE",
"466 0 LINE",
"466 80 LINE",
"432 80 LINE SMOOTH",
"412 80 OFFCURVE",
"407 93 OFFCURVE",
"407 113 CURVE SMOOTH",
"407 344 LINE SMOOTH",
"407 409 OFFCURVE",
"375 460 OFFCURVE",
"309 460 CURVE SMOOTH",
"263 460 OFFCURVE",
"231 436 OFFCURVE",
"211 397 CURVE",
"207 397 LINE",
"207 450 LINE",
"18 450 LINE",
"18 370 LINE",
"52 370 LINE SMOOTH",
"72 370 OFFCURVE",
"77 357 OFFCURVE",
"77 337 CURVE SMOOTH",
"77 113 LINE SMOOTH",
"77 93 OFFCURVE",
"72 80 OFFCURVE",
"52 80 CURVE SMOOTH",
"18 80 LINE"
);
}
);
};
layerId = "B25F85BC-C782-4067-8484-07202F80B8CD";
name = Condensed;
paths = (
{
closed = 1;
nodes = (
"18 0 LINE",
"234 0 LINE",
"234 80 LINE",
"227 80 LINE SMOOTH",
"214 80 OFFCURVE",
"207 90 OFFCURVE",
"207 107 CURVE SMOOTH",
"207 269 LINE SMOOTH",
"207 315 OFFCURVE",
"221 338 OFFCURVE",
"248 338 CURVE SMOOTH",
"267 338 OFFCURVE",
"277 322 OFFCURVE",
"277 289 CURVE SMOOTH",
"277 107 LINE SMOOTH",
"277 90 OFFCURVE",
"270 80 OFFCURVE",
"257 80 CURVE SMOOTH",
"250 80 LINE",
"250 0 LINE",
"466 0 LINE",
"466 80 LINE",
"432 80 LINE SMOOTH",
"414 80 OFFCURVE",
"407 90 OFFCURVE",
"407 113 CURVE SMOOTH",
"407 344 LINE SMOOTH",
"407 415 OFFCURVE",
"370 460 OFFCURVE",
"311 460 CURVE SMOOTH",
"262 460 OFFCURVE",
"223 428 OFFCURVE",
"211 380 CURVE",
"207 380 LINE",
"207 450 LINE",
"18 450 LINE",
"18 370 LINE",
"52 370 LINE SMOOTH",
"70 370 OFFCURVE",
"77 360 OFFCURVE",
"77 337 CURVE SMOOTH",
"77 113 LINE SMOOTH",
"77 90 OFFCURVE",
"70 80 OFFCURVE",
"52 80 CURVE SMOOTH",
"18 80 LINE"
);
}
);
width = 484;
},
{
background = {
paths = (
{
closed = 1;
nodes = (
"8 0 LINE",
"240 0 LINE",
"240 108 LINE",
"236 108 LINE SMOOTH",
"228 108 OFFCURVE",
"226 113 OFFCURVE",
"226 123 CURVE SMOOTH",
"226 290 LINE SMOOTH",
"226 324 OFFCURVE",
"230 343 OFFCURVE",
"246 343 CURVE SMOOTH",
"262 343 OFFCURVE",
"266 324 OFFCURVE",
"266 290 CURVE SMOOTH",
"266 123 LINE SMOOTH",
"266 113 OFFCURVE",
"264 108 OFFCURVE",
"256 108 CURVE SMOOTH",
"252 108 LINE",
"252 0 LINE",
"484 0 LINE",
"484 108 LINE",
"472 108 LINE SMOOTH",
"452 108 OFFCURVE",
"442 119 OFFCURVE",
"442 139 CURVE SMOOTH",
"442 345 LINE SMOOTH",
"442 423 OFFCURVE",
"402 476 OFFCURVE",
"330 476 CURVE SMOOTH",
"283 476 OFFCURVE",
"255 456 OFFCURVE",
"230 420 CURVE",
"226 420 LINE",
"226 466 LINE",
"8 466 LINE",
"8 358 LINE",
"20 358 LINE SMOOTH",
"40 358 OFFCURVE",
"50 347 OFFCURVE",
"50 327 CURVE SMOOTH",
"50 139 LINE SMOOTH",
"50 119 OFFCURVE",
"40 108 OFFCURVE",
"20 108 CURVE SMOOTH",
"8 108 LINE"
);
}
);
};
layerId = "B817C739-5D48-43E8-AAEE-CE891513D7BC";
name = "Bold Condensed";
paths = (
{
closed = 1;
nodes = (
"8 0 LINE",
"240 0 LINE",
"240 108 LINE",
"236 108 LINE SMOOTH",
"229 108 OFFCURVE",
"226 112 OFFCURVE",
"226 123 CURVE SMOOTH",
"226 261 LINE SMOOTH",
"226 316 OFFCURVE",
"232 334 OFFCURVE",
"249 334 CURVE SMOOTH",
"262 334 OFFCURVE",
"266 324 OFFCURVE",
"266 292 CURVE SMOOTH",
"266 123 LINE SMOOTH",
"266 112 OFFCURVE",
"263 108 OFFCURVE",
"256 108 CURVE SMOOTH",
"252 108 LINE",
"252 0 LINE",
"484 0 LINE",
"484 108 LINE",
"472 108 LINE SMOOTH",
"452 108 OFFCURVE",
"442 119 OFFCURVE",
"442 139 CURVE SMOOTH",
"442 345 LINE SMOOTH",
"442 426 OFFCURVE",
"399 476 OFFCURVE",
"329 476 CURVE SMOOTH",
"283 476 OFFCURVE",
"251 456 OFFCURVE",
"230 413 CURVE",
"226 413 LINE",
"226 466 LINE",
"8 466 LINE",
"8 358 LINE",
"20 358 LINE SMOOTH",
"40 358 OFFCURVE",
"50 347 OFFCURVE",
"50 327 CURVE SMOOTH",
"50 139 LINE SMOOTH",
"50 119 OFFCURVE",
"40 108 OFFCURVE",
"20 108 CURVE SMOOTH",
"8 108 LINE"
);
}
);
width = 492;
}
);
unicode = 006E;
},
{
glyphname = o;
lastChange = "2015-03-30 14:51:22 +0000";
layers = (
{
guideLines = (
{
angle = 90;
position = "{99, 224}";
},
{
position = "{266, 224}";
},
{
angle = 90;
position = "{437, 224}";
}
);
layerId = UUID0;
name = "Light Extended";
paths = (
{
closed = 1;
nodes = (
"393 -10 OFFCURVE",
"483 73 OFFCURVE",
"483 223 CURVE SMOOTH",
"483 373 OFFCURVE",
"392 460 OFFCURVE",
"268 460 CURVE SMOOTH",
"143 460 OFFCURVE",
"53 374 OFFCURVE",
"53 224 CURVE SMOOTH",
"53 74 OFFCURVE",
"144 -10 OFFCURVE",
"268 -10 CURVE SMOOTH"
);
},
{
closed = 1;
nodes = (
"163 28 OFFCURVE",
"99 83 OFFCURVE",
"99 224 CURVE SMOOTH",
"99 365 OFFCURVE",
"163 422 OFFCURVE",
"268 422 CURVE SMOOTH",
"371 422 OFFCURVE",
"437 365 OFFCURVE",
"437 224 CURVE SMOOTH",
"437 83 OFFCURVE",
"371 28 OFFCURVE",
"268 28 CURVE SMOOTH"
);
}
);
width = 536;
},
{
layerId = "4355E1B8-19E6-44BD-A1D7-6E3C2DECA4C8";
name = Extended;
paths = (
{
closed = 1;
nodes = (
"469 -10 OFFCURVE",
"552 87 OFFCURVE",
"552 225 CURVE SMOOTH",
"552 363 OFFCURVE",
"470 460 OFFCURVE",
"298 460 CURVE SMOOTH",
"126 460 OFFCURVE",
"44 363 OFFCURVE",
"44 225 CURVE SMOOTH",
"44 87 OFFCURVE",
"125 -10 OFFCURVE",
"297 -10 CURVE SMOOTH"
);
},
{
closed = 1;
nodes = (
"215 85 OFFCURVE",
"183 140 OFFCURVE",
"183 224 CURVE SMOOTH",
"183 309 OFFCURVE",
"215 365 OFFCURVE",
"298 365 CURVE SMOOTH",
"380 365 OFFCURVE",
"412 309 OFFCURVE",
"412 224 CURVE SMOOTH",
"412 140 OFFCURVE",
"380 85 OFFCURVE",
"298 85 CURVE SMOOTH"
);
}
);
width = 596;
},
{
background = {
paths = (
{
closed = 1;
nodes = (
"519 -10 OFFCURVE",
"642 62 OFFCURVE",
"642 242 CURVE SMOOTH",
"642 422 OFFCURVE",
"518 493 OFFCURVE",
"325 493 CURVE SMOOTH",
"132 493 OFFCURVE",
"8 422 OFFCURVE",
"8 242 CURVE SMOOTH",
"8 62 OFFCURVE",
"131 -10 OFFCURVE",
"325 -10 CURVE SMOOTH"
);
},
{
closed = 1;
nodes = (
"289 155 OFFCURVE",
"258 163 OFFCURVE",
"258 238 CURVE SMOOTH",
"258 309 OFFCURVE",
"286 328 OFFCURVE",
"325 328 CURVE SMOOTH",
"364 328 OFFCURVE",
"392 309 OFFCURVE",
"392 238 CURVE SMOOTH",
"392 163 OFFCURVE",
"361 155 OFFCURVE",
"325 155 CURVE SMOOTH"
);
}
);
};
layerId = "14C77FDB-037D-4842-9381-6D9ED15DD48C";
name = "Bold Extended";
paths = (
{
closed = 1;
nodes = (
"517 -10 OFFCURVE",
"632 60 OFFCURVE",
"632 240 CURVE SMOOTH",
"632 420 OFFCURVE",
"517 490 OFFCURVE",
"325 490 CURVE SMOOTH",
"133 490 OFFCURVE",
"18 420 OFFCURVE",
"18 240 CURVE SMOOTH",
"18 60 OFFCURVE",
"133 -10 OFFCURVE",
"325 -10 CURVE SMOOTH"
);
},
{
closed = 1;
nodes = (
"285 154 OFFCURVE",
"258 167 OFFCURVE",
"258 237 CURVE SMOOTH",
"258 307 OFFCURVE",
"285 326 OFFCURVE",
"325 326 CURVE SMOOTH",
"365 326 OFFCURVE",
"392 307 OFFCURVE",
"392 237 CURVE SMOOTH",
"392 167 OFFCURVE",
"365 154 OFFCURVE",
"325 154 CURVE SMOOTH"
);
}
);
width = 650;
},
{
background = {
paths = (
{
closed = 1;
nodes = (
"260 -12 OFFCURVE",
"314 75 OFFCURVE",
"314 225 CURVE SMOOTH",
"314 375 OFFCURVE",
"260 462 OFFCURVE",
"175 462 CURVE SMOOTH",
"91 462 OFFCURVE",
"38 375 OFFCURVE",
"38 225 CURVE SMOOTH",
"38 75 OFFCURVE",
"91 -12 OFFCURVE",
"175 -12 CURVE SMOOTH"
);
},
{
closed = 1;
nodes = (
"109 23 OFFCURVE",
"83 80 OFFCURVE",
"83 224 CURVE SMOOTH",
"83 368 OFFCURVE",
"109 427 OFFCURVE",
"175 427 CURVE SMOOTH",
"242 427 OFFCURVE",
"270 368 OFFCURVE",
"270 224 CURVE SMOOTH",
"270 80 OFFCURVE",
"242 23 OFFCURVE",
"175 23 CURVE SMOOTH"
);
}
);
};
layerId = "E9E6D55E-9446-45F2-B66C-3272698B0216";
name = "Light Condensed";
paths = (
{
closed = 1;
nodes = (
"262 -10 OFFCURVE",
"314 75 OFFCURVE",
"314 225 CURVE SMOOTH",
"314 375 OFFCURVE",
"262 460 OFFCURVE",
"176 460 CURVE SMOOTH",
"90 460 OFFCURVE",
"38 375 OFFCURVE",
"38 225 CURVE SMOOTH",
"38 75 OFFCURVE",
"90 -10 OFFCURVE",
"176 -10 CURVE SMOOTH"
);
},
{
closed = 1;
nodes = (
"117 25 OFFCURVE",
"82 79 OFFCURVE",
"82 225 CURVE SMOOTH",
"82 371 OFFCURVE",
"117 425 OFFCURVE",
"176 425 CURVE SMOOTH",
"236 425 OFFCURVE",
"270 371 OFFCURVE",
"270 225 CURVE SMOOTH",
"270 79 OFFCURVE",
"236 25 OFFCURVE",
"176 25 CURVE SMOOTH"
);
}
);
width = 352;
},
{
layerId = "B25F85BC-C782-4067-8484-07202F80B8CD";
name = Condensed;
paths = (
{
closed = 1;
nodes = (
"336 -10 OFFCURVE",
"396 73 OFFCURVE",
"396 225 CURVE SMOOTH",
"396 377 OFFCURVE",
"336 460 OFFCURVE",
"209 460 CURVE SMOOTH",
"82 460 OFFCURVE",
"22 377 OFFCURVE",
"22 225 CURVE SMOOTH",
"22 73 OFFCURVE",
"82 -10 OFFCURVE",
"207 -10 CURVE SMOOTH"
);
},
{
closed = 1;
nodes = (
"175 85 OFFCURVE",
"164 126 OFFCURVE",
"164 224 CURVE SMOOTH",
"164 323 OFFCURVE",
"175 365 OFFCURVE",
"209 365 CURVE SMOOTH",
"243 365 OFFCURVE",
"254 323 OFFCURVE",
"254 224 CURVE SMOOTH",
"254 126 OFFCURVE",
"243 85 OFFCURVE",
"209 85 CURVE SMOOTH"
);
}
);
width = 418;
},
{
background = {
paths = (
{
closed = 1;
nodes = (
"365 -12 OFFCURVE",
"433 71 OFFCURVE",
"433 233 CURVE SMOOTH",
"433 394 OFFCURVE",
"365 478 OFFCURVE",
"220 478 CURVE SMOOTH",
"74 478 OFFCURVE",
"7 394 OFFCURVE",
"7 233 CURVE SMOOTH",
"7 71 OFFCURVE",
"74 -12 OFFCURVE",
"219 -12 CURVE SMOOTH"
);
},
{
closed = 1;
nodes = (
"201 121 OFFCURVE",
"197 141 OFFCURVE",
"197 233 CURVE SMOOTH",
"197 325 OFFCURVE",
"201 344 OFFCURVE",
"221 344 CURVE SMOOTH",
"240 344 OFFCURVE",
"243 326 OFFCURVE",
"243 233 CURVE SMOOTH",
"243 140 OFFCURVE",
"240 121 OFFCURVE",
"221 121 CURVE SMOOTH"
);
}
);
};
layerId = "B817C739-5D48-43E8-AAEE-CE891513D7BC";
name = "Bold Condensed";
paths = (
{
closed = 1;
nodes = (
"365 -12 OFFCURVE",
"434 71 OFFCURVE",
"434 233 CURVE SMOOTH",
"434 394 OFFCURVE",
"365 478 OFFCURVE",
"220 478 CURVE SMOOTH",
"74 478 OFFCURVE",
"6 394 OFFCURVE",
"6 233 CURVE SMOOTH",
"6 71 OFFCURVE",
"74 -12 OFFCURVE",
"220 -12 CURVE SMOOTH"
);
},
{
closed = 1;
nodes = (
"201 121 OFFCURVE",
"196 141 OFFCURVE",
"196 233 CURVE SMOOTH",
"196 325 OFFCURVE",
"200 344 OFFCURVE",
"220 344 CURVE SMOOTH",
"240 344 OFFCURVE",
"244 325 OFFCURVE",
"244 233 CURVE SMOOTH",
"244 141 OFFCURVE",
"241 121 OFFCURVE",
"220 121 CURVE SMOOTH"
);
}
);
width = 440;
}
);
unicode = 006F;
},
{
glyphname = p;
lastChange = "2015-03-30 14:51:28 +0000";
layers = (
{
layerId = "E9E6D55E-9446-45F2-B66C-3272698B0216";
name = "Light Condensed";
paths = (
{
closed = 1;
nodes = (
"187 -216 LINE",
"187 -191 LINE",
"131 -191 LINE SMOOTH",
"114 -191 OFFCURVE",
"108 -178 OFFCURVE",
"108 -159 CURVE SMOOTH",
"108 50 LINE",
"112 50 LINE",
"138 5 OFFCURVE",
"160 -10 OFFCURVE",
"201 -10 CURVE SMOOTH",
"284 -10 OFFCURVE",
"323 65 OFFCURVE",
"323 225 CURVE SMOOTH",
"323 379 OFFCURVE",
"281 460 OFFCURVE",
"206 460 CURVE SMOOTH",
"171 460 OFFCURVE",
"134 445 OFFCURVE",
"112 389 CURVE",
"108 389 LINE",
"108 450 LINE",
"2 450 LINE",
"2 425 LINE",
"41 425 LINE SMOOTH",
"61 425 OFFCURVE",
"68 415 OFFCURVE",
"68 393 CURVE SMOOTH",
"68 -159 LINE SMOOTH",
"68 -178 OFFCURVE",
"62 -191 OFFCURVE",
"41 -191 CURVE SMOOTH",
"2 -191 LINE",
"2 -216 LINE"
);
},
{
closed = 1;
nodes = (
"150 25 OFFCURVE",
"109 68 OFFCURVE",
"109 225 CURVE SMOOTH",
"109 373 OFFCURVE",
"155 425 OFFCURVE",
"197 425 CURVE SMOOTH",
"253 425 OFFCURVE",
"279 362 OFFCURVE",
"279 226 CURVE SMOOTH",
"279 90 OFFCURVE",
"253 25 OFFCURVE",
"197 25 CURVE SMOOTH"
);
}
);
width = 359;
},
{
layerId = "B25F85BC-C782-4067-8484-07202F80B8CD";
name = Condensed;
paths = (
{
closed = 1;
nodes = (
"283 -216 LINE",
"283 -136 LINE",
"220 -136 LINE SMOOTH",
"205 -136 OFFCURVE",
"197 -125 OFFCURVE",
"197 -104 CURVE SMOOTH",
"197 50 LINE",
"201 50 LINE",
"229 6 OFFCURVE",
"254 -10 OFFCURVE",
"297 -10 CURVE SMOOTH",
"389 -10 OFFCURVE",
"432 63 OFFCURVE",
"432 222 CURVE SMOOTH",
"432 382 OFFCURVE",
"389 460 OFFCURVE",
"303 460 CURVE SMOOTH",
"258 460 OFFCURVE",
"221 438 OFFCURVE",
"201 400 CURVE",
"197 400 LINE",
"197 450 LINE",
"2 450 LINE",
"2 370 LINE",
"40 370 LINE SMOOTH",
"59 370 OFFCURVE",
"67 361 OFFCURVE",
"67 338 CURVE SMOOTH",
"67 -104 LINE SMOOTH",
"67 -126 OFFCURVE",
"59 -136 OFFCURVE",
"40 -136 CURVE SMOOTH",
"8 -136 LINE",
"8 -216 LINE"
);
},
{
closed = 1;
nodes = (
"212 85 OFFCURVE",
"197 131 OFFCURVE",
"197 225 CURVE SMOOTH",
"197 319 OFFCURVE",
"212 365 OFFCURVE",
"243 365 CURVE SMOOTH",
"272 365 OFFCURVE",
"285 322 OFFCURVE",
"285 224 CURVE SMOOTH",
"285 127 OFFCURVE",
"272 85 OFFCURVE",
"243 85 CURVE SMOOTH"
);
}
);
width = 452;
},
{
layerId = "B817C739-5D48-43E8-AAEE-CE891513D7BC";
name = "Bold Condensed";
paths = (
{
closed = 1;
nodes = (
"309 -216 LINE",
"309 -108 LINE",
"236 -108 LINE SMOOTH",
"221 -108 OFFCURVE",
"213 -97 OFFCURVE",
"213 -76 CURVE SMOOTH",
"213 53 LINE",
"217 53 LINE",
"236 7 OFFCURVE",
"278 -12 OFFCURVE",
"324 -12 CURVE SMOOTH",
"416 -12 OFFCURVE",
"460 64 OFFCURVE",
"460 229 CURVE SMOOTH",
"460 400 OFFCURVE",
"413 478 OFFCURVE",
"318 478 CURVE SMOOTH",
"272 478 OFFCURVE",
"234 460 OFFCURVE",
"217 423 CURVE",
"213 423 LINE",
"213 466 LINE",
"-4 466 LINE",
"-4 358 LINE",
"10 358 LINE SMOOTH",
"29 358 OFFCURVE",
"37 349 OFFCURVE",
"37 326 CURVE SMOOTH",
"37 -76 LINE SMOOTH",
"37 -98 OFFCURVE",
"29 -108 OFFCURVE",
"10 -108 CURVE SMOOTH",
"-3 -108 LINE",
"-3 -216 LINE"
);
},
{
closed = 1;
nodes = (
"220 120 OFFCURVE",
"213 151 OFFCURVE",
"213 233 CURVE SMOOTH",
"213 315 OFFCURVE",
"220 345 OFFCURVE",
"238 345 CURVE SMOOTH",
"256 345 OFFCURVE",
"262 319 OFFCURVE",
"262 235 CURVE SMOOTH",
"262 149 OFFCURVE",
"256 120 OFFCURVE",
"238 120 CURVE SMOOTH"
);
}
);
width = 464;
},
{
layerId = UUID0;
name = "Light Extended";
paths = (
{
closed = 1;
nodes = (
"291 -216 LINE",
"291 -189 LINE",
"197 -189 LINE SMOOTH",
"180 -189 OFFCURVE",
"174 -176 OFFCURVE",
"174 -157 CURVE SMOOTH",
"174 70 LINE",
"178 70 LINE",
"223 15 OFFCURVE",
"268 -10 OFFCURVE",
"340 -10 CURVE SMOOTH",
"466 -10 OFFCURVE",
"542 65 OFFCURVE",
"542 225 CURVE SMOOTH",
"542 383 OFFCURVE",
"467 460 OFFCURVE",
"342 460 CURVE SMOOTH",
"264 460 OFFCURVE",
"212 430 OFFCURVE",
"178 369 CURVE",
"174 369 LINE",
"174 450 LINE",
"34 450 LINE",
"34 423 LINE",
"103 423 LINE SMOOTH",
"123 423 OFFCURVE",
"130 413 OFFCURVE",
"130 391 CURVE SMOOTH",
"130 -157 LINE SMOOTH",
"130 -176 OFFCURVE",
"124 -189 OFFCURVE",
"103 -189 CURVE SMOOTH",
"34 -189 LINE",
"34 -216 LINE"
);
},
{
closed = 1;
nodes = (
"256 28 OFFCURVE",
"175 71 OFFCURVE",
"175 224 CURVE SMOOTH",
"175 371 OFFCURVE",
"250 422 OFFCURVE",
"342 422 CURVE SMOOTH",
"445 422 OFFCURVE",
"493 358 OFFCURVE",
"493 228 CURVE SMOOTH",
"493 92 OFFCURVE",
"440 28 OFFCURVE",
"339 28 CURVE SMOOTH"
);
}
);
width = 593;
},
{
layerId = "4355E1B8-19E6-44BD-A1D7-6E3C2DECA4C8";
name = Extended;
paths = (
{
closed = 1;
nodes = (
"303 -216 LINE",
"303 -136 LINE",
"240 -136 LINE SMOOTH",
"225 -136 OFFCURVE",
"217 -125 OFFCURVE",
"217 -104 CURVE SMOOTH",
"217 80 LINE",
"221 80 LINE",
"257 15 OFFCURVE",
"310 -10 OFFCURVE",
"393 -10 CURVE SMOOTH",
"502 -10 OFFCURVE",
"588 70 OFFCURVE",
"588 222 CURVE SMOOTH",
"588 382 OFFCURVE",
"506 460 OFFCURVE",
"383 460 CURVE SMOOTH",
"303 460 OFFCURVE",
"253 430 OFFCURVE",
"221 380 CURVE",
"217 380 LINE",
"217 450 LINE",
"3 450 LINE",
"3 370 LINE",
"60 370 LINE SMOOTH",
"79 370 OFFCURVE",
"87 361 OFFCURVE",
"87 338 CURVE SMOOTH",
"87 -104 LINE SMOOTH",
"87 -126 OFFCURVE",
"79 -136 OFFCURVE",
"60 -136 CURVE SMOOTH",
"9 -136 LINE",
"9 -216 LINE"
);
},
{
closed = 1;
nodes = (
"263 85 OFFCURVE",
"217 138 OFFCURVE",
"217 226 CURVE SMOOTH",
"217 313 OFFCURVE",
"261 365 OFFCURVE",
"335 365 CURVE SMOOTH",
"406 365 OFFCURVE",
"445 315 OFFCURVE",
"445 223 CURVE SMOOTH",
"445 133 OFFCURVE",
"408 85 OFFCURVE",
"338 85 CURVE SMOOTH"
);
}
);
width = 630;
},
{
layerId = "14C77FDB-037D-4842-9381-6D9ED15DD48C";
name = "Bold Extended";
paths = (
{
closed = 1;
nodes = (
"413 -216 LINE",
"413 -74 LINE",
"340 -74 LINE SMOOTH",
"325 -74 OFFCURVE",
"317 -63 OFFCURVE",
"317 -42 CURVE SMOOTH",
"317 83 LINE",
"321 83 LINE",
"351 22 OFFCURVE",
"409 -10 OFFCURVE",
"491 -10 CURVE SMOOTH",
"627 -10 OFFCURVE",
"701 78 OFFCURVE",
"701 240 CURVE SMOOTH",
"701 402 OFFCURVE",
"627 490 OFFCURVE",
"491 490 CURVE SMOOTH",
"410 490 OFFCURVE",
"355 460 OFFCURVE",
"321 397 CURVE",
"317 397 LINE",
"317 480 LINE",
"5 480 LINE",
"5 338 LINE",
"60 338 LINE SMOOTH",
"79 338 OFFCURVE",
"87 329 OFFCURVE",
"87 306 CURVE SMOOTH",
"87 -42 LINE SMOOTH",
"87 -64 OFFCURVE",
"79 -74 OFFCURVE",
"60 -74 CURVE SMOOTH",
"6 -74 LINE",
"6 -216 LINE"
);
},
{
closed = 1;
nodes = (
"342 158 OFFCURVE",
"317 188 OFFCURVE",
"317 240 CURVE SMOOTH",
"317 293 OFFCURVE",
"342 325 OFFCURVE",
"384 325 CURVE SMOOTH",
"426 325 OFFCURVE",
"453 292 OFFCURVE",
"453 240 CURVE SMOOTH",
"453 189 OFFCURVE",
"427 158 OFFCURVE",
"384 158 CURVE SMOOTH"
);
}
);
width = 717;
}
);
rightMetricsKey = b;
unicode = 0070;
},
{
glyphname = q;
lastChange = "2015-03-30 14:51:28 +0000";
layers = (
{
layerId = "E9E6D55E-9446-45F2-B66C-3272698B0216";
name = "Light Condensed";
paths = (
{
closed = 1;
nodes = (
"357 -216 LINE",
"357 -191 LINE",
"318 -191 LINE SMOOTH",
"299 -191 OFFCURVE",
"291 -181 OFFCURVE",
"291 -159 CURVE SMOOTH",
"291 393 LINE SMOOTH",
"291 415 OFFCURVE",
"298 425 OFFCURVE",
"318 425 CURVE SMOOTH",
"357 425 LINE",
"357 450 LINE",
"251 450 LINE",
"251 400 LINE",
"247 400 LINE",
"224 442 OFFCURVE",
"197 460 OFFCURVE",
"158 460 CURVE SMOOTH",
"76 460 OFFCURVE",
"36 385 OFFCURVE",
"36 228 CURVE SMOOTH",
"36 70 OFFCURVE",
"77 -10 OFFCURVE",
"154 -10 CURVE SMOOTH",
"198 -10 OFFCURVE",
"229 16 OFFCURVE",
"247 61 CURVE",
"251 61 LINE",
"251 -159 LINE SMOOTH",
"251 -180 OFFCURVE",
"243 -191 OFFCURVE",
"228 -191 CURVE SMOOTH",
"172 -191 LINE",
"172 -216 LINE"
);
},
{
closed = 1;
nodes = (
"106 25 OFFCURVE",
"80 90 OFFCURVE",
"80 225 CURVE SMOOTH",
"80 360 OFFCURVE",
"106 425 OFFCURVE",
"162 425 CURVE SMOOTH",
"220 425 OFFCURVE",
"250 355 OFFCURVE",
"250 231 CURVE SMOOTH",
"250 100 OFFCURVE",
"217 25 OFFCURVE",
"160 25 CURVE SMOOTH"
);
}
);
width = 359;
},
{
layerId = "B25F85BC-C782-4067-8484-07202F80B8CD";
name = Condensed;
paths = (
{
closed = 1;
nodes = (
"445 -216 LINE",
"445 -136 LINE",
"413 -136 LINE SMOOTH",
"394 -136 OFFCURVE",
"386 -126 OFFCURVE",
"386 -104 CURVE SMOOTH",
"386 338 LINE SMOOTH",
"386 360 OFFCURVE",
"392 370 OFFCURVE",
"413 370 CURVE SMOOTH",
"445 370 LINE",
"445 450 LINE",
"256 450 LINE",
"256 400 LINE",
"252 400 LINE",
"228 443 OFFCURVE",
"199 460 OFFCURVE",
"156 460 CURVE SMOOTH",
"63 460 OFFCURVE",
"20 382 OFFCURVE",
"20 228 CURVE SMOOTH",
"20 71 OFFCURVE",
"65 -10 OFFCURVE",
"152 -10 CURVE SMOOTH",
"202 -10 OFFCURVE",
"234 17 OFFCURVE",
"252 61 CURVE",
"256 61 LINE",
"256 -104 LINE SMOOTH",
"256 -125 OFFCURVE",
"248 -136 OFFCURVE",
"233 -136 CURVE SMOOTH",
"177 -136 LINE",
"177 -216 LINE"
);
},
{
closed = 1;
nodes = (
"185 85 OFFCURVE",
"168 112 OFFCURVE",
"168 226 CURVE SMOOTH",
"168 326 OFFCURVE",
"181 365 OFFCURVE",
"211 365 CURVE SMOOTH",
"240 365 OFFCURVE",
"256 327 OFFCURVE",
"256 225 CURVE SMOOTH",
"256 116 OFFCURVE",
"238 85 OFFCURVE",
"211 85 CURVE SMOOTH"
);
}
);
width = 445;
},
{
layerId = "B817C739-5D48-43E8-AAEE-CE891513D7BC";
name = "Bold Condensed";
paths = (
{
closed = 1;
nodes = (
"465 -216 LINE",
"465 -108 LINE",
"454 -108 LINE SMOOTH",
"435 -108 OFFCURVE",
"427 -98 OFFCURVE",
"427 -76 CURVE SMOOTH",
"427 326 LINE SMOOTH",
"427 349 OFFCURVE",
"434 358 OFFCURVE",
"454 358 CURVE SMOOTH",
"465 358 LINE",
"465 466 LINE",
"251 466 LINE",
"251 422 LINE",
"247 422 LINE",
"223 463 OFFCURVE",
"200 478 OFFCURVE",
"156 478 CURVE SMOOTH",
"52 478 OFFCURVE",
"4 399 OFFCURVE",
"4 229 CURVE SMOOTH",
"4 66 OFFCURVE",
"48 -12 OFFCURVE",
"140 -12 CURVE SMOOTH",
"190 -12 OFFCURVE",
"228 11 OFFCURVE",
"247 53 CURVE",
"251 53 LINE",
"251 -76 LINE SMOOTH",
"251 -97 OFFCURVE",
"243 -108 OFFCURVE",
"228 -108 CURVE SMOOTH",
"172 -108 LINE",
"172 -216 LINE"
);
},
{
closed = 1;
nodes = (
"209 120 OFFCURVE",
"202 151 OFFCURVE",
"202 233 CURVE SMOOTH",
"202 315 OFFCURVE",
"209 345 OFFCURVE",
"227 345 CURVE SMOOTH",
"245 345 OFFCURVE",
"251 319 OFFCURVE",
"251 235 CURVE SMOOTH",
"251 149 OFFCURVE",
"245 120 OFFCURVE",
"227 120 CURVE SMOOTH"
);
}
);
width = 467;
},
{
layerId = UUID0;
name = "Light Extended";
paths = (
{
closed = 1;
nodes = (
"559 -216 LINE",
"559 -189 LINE",
"490 -189 LINE SMOOTH",
"469 -189 OFFCURVE",
"463 -176 OFFCURVE",
"463 -157 CURVE SMOOTH",
"463 391 LINE SMOOTH",
"463 413 OFFCURVE",
"470 423 OFFCURVE",
"490 423 CURVE SMOOTH",
"559 423 LINE",
"559 450 LINE",
"419 450 LINE",
"419 369 LINE",
"415 369 LINE",
"381 430 OFFCURVE",
"329 460 OFFCURVE",
"251 460 CURVE SMOOTH",
"126 460 OFFCURVE",
"51 383 OFFCURVE",
"51 225 CURVE SMOOTH",
"51 65 OFFCURVE",
"127 -10 OFFCURVE",
"253 -10 CURVE SMOOTH",
"325 -10 OFFCURVE",
"370 15 OFFCURVE",
"415 70 CURVE",
"419 70 LINE",
"419 -157 LINE SMOOTH",
"419 -176 OFFCURVE",
"413 -189 OFFCURVE",
"396 -189 CURVE SMOOTH",
"302 -189 LINE",
"302 -216 LINE"
);
},
{
closed = 1;
nodes = (
"153 28 OFFCURVE",
"100 92 OFFCURVE",
"100 228 CURVE SMOOTH",
"100 358 OFFCURVE",
"148 422 OFFCURVE",
"251 422 CURVE SMOOTH",
"343 422 OFFCURVE",
"418 371 OFFCURVE",
"418 224 CURVE SMOOTH",
"418 71 OFFCURVE",
"337 28 OFFCURVE",
"254 28 CURVE SMOOTH"
);
}
);
width = 585;
},
{
layerId = "4355E1B8-19E6-44BD-A1D7-6E3C2DECA4C8";
name = Extended;
paths = (
{
closed = 1;
nodes = (
"602 -216 LINE",
"602 -136 LINE",
"570 -136 LINE SMOOTH",
"551 -136 OFFCURVE",
"543 -126 OFFCURVE",
"543 -104 CURVE SMOOTH",
"543 338 LINE SMOOTH",
"543 360 OFFCURVE",
"549 370 OFFCURVE",
"570 370 CURVE SMOOTH",
"602 370 LINE",
"602 450 LINE",
"413 450 LINE",
"413 380 LINE",
"409 380 LINE",
"370 442 OFFCURVE",
"320 460 OFFCURVE",
"249 460 CURVE SMOOTH",
"125 460 OFFCURVE",
"42 382 OFFCURVE",
"42 228 CURVE SMOOTH",
"42 71 OFFCURVE",
"119 -10 OFFCURVE",
"250 -10 CURVE SMOOTH",
"330 -10 OFFCURVE",
"382 31 OFFCURVE",
"409 81 CURVE",
"413 81 LINE",
"413 -104 LINE SMOOTH",
"413 -125 OFFCURVE",
"405 -136 OFFCURVE",
"390 -136 CURVE SMOOTH",
"334 -136 LINE",
"334 -216 LINE"
);
},
{
closed = 1;
nodes = (
"231 85 OFFCURVE",
"185 117 OFFCURVE",
"185 223 CURVE SMOOTH",
"185 331 OFFCURVE",
"233 365 OFFCURVE",
"301 365 CURVE SMOOTH",
"363 365 OFFCURVE",
"413 317 OFFCURVE",
"413 227 CURVE SMOOTH",
"413 127 OFFCURVE",
"355 85 OFFCURVE",
"298 85 CURVE SMOOTH"
);
}
);
width = 616;
},
{
layerId = "14C77FDB-037D-4842-9381-6D9ED15DD48C";
name = "Bold Extended";
paths = (
{
closed = 1;
nodes = (
"711 -216 LINE",
"711 -74 LINE",
"657 -74 LINE SMOOTH",
"638 -74 OFFCURVE",
"630 -64 OFFCURVE",
"630 -42 CURVE SMOOTH",
"630 306 LINE SMOOTH",
"630 329 OFFCURVE",
"636 338 OFFCURVE",
"657 338 CURVE SMOOTH",
"711 338 LINE",
"711 480 LINE",
"400 480 LINE",
"400 398 LINE",
"396 398 LINE",
"360 460 OFFCURVE",
"305 490 OFFCURVE",
"231 490 CURVE SMOOTH",
"93 490 OFFCURVE",
"16 408 OFFCURVE",
"16 239 CURVE SMOOTH",
"16 77 OFFCURVE",
"90 -10 OFFCURVE",
"228 -10 CURVE SMOOTH",
"306 -10 OFFCURVE",
"363 24 OFFCURVE",
"396 84 CURVE",
"400 84 LINE",
"400 -42 LINE SMOOTH",
"400 -63 OFFCURVE",
"392 -74 OFFCURVE",
"377 -74 CURVE SMOOTH",
"321 -74 LINE",
"321 -216 LINE"
);
},
{
closed = 1;
nodes = (
"292 158 OFFCURVE",
"264 188 OFFCURVE",
"264 240 CURVE SMOOTH",
"264 292 OFFCURVE",
"292 325 OFFCURVE",
"332 325 CURVE SMOOTH",
"378 325 OFFCURVE",
"400 290 OFFCURVE",
"400 240 CURVE SMOOTH",
"400 190 OFFCURVE",
"378 158 OFFCURVE",
"332 158 CURVE SMOOTH"
);
}
);
width = 716;
}
);
leftMetricsKey = d;
unicode = 0071;
},
{
glyphname = r;
lastChange = "2015-03-30 14:45:42 +0000";
layers = (
{
background = {
paths = (
{
closed = 1;
nodes = (
"170 460 OFFCURVE",
"145 437 OFFCURVE",
"125 402 CURVE",
"121 402 LINE",
"121 450 LINE",
"10 450 LINE",
"10 425 LINE",
"54 425 LINE SMOOTH",
"74 425 OFFCURVE",
"81 415 OFFCURVE",
"81 393 CURVE SMOOTH",
"81 57 LINE SMOOTH",
"81 35 OFFCURVE",
"74 25 OFFCURVE",
"54 25 CURVE SMOOTH",
"10 25 LINE",
"10 0 LINE",
"205 0 LINE",
"205 25 LINE",
"148 25 LINE SMOOTH",
"128 25 OFFCURVE",
"121 35 OFFCURVE",
"121 57 CURVE SMOOTH",
"121 279 LINE SMOOTH",
"121 362 OFFCURVE",
"155 425 OFFCURVE",
"203 425 CURVE SMOOTH",
"230 425 OFFCURVE",
"248 407 OFFCURVE",
"248 384 CURVE SMOOTH",
"248 359 OFFCURVE",
"227 355 OFFCURVE",
"227 331 CURVE SMOOTH",
"227 314 OFFCURVE",
"238 301 OFFCURVE",
"257 301 CURVE SMOOTH",
"281 301 OFFCURVE",
"294 323 OFFCURVE",
"294 359 CURVE SMOOTH",
"294 416 OFFCURVE",
"262 460 OFFCURVE",
"207 460 CURVE SMOOTH"
);
}
);
};
layerId = "E9E6D55E-9446-45F2-B66C-3272698B0216";
name = "Light Condensed";
paths = (
{
closed = 1;
nodes = (
"168 460 OFFCURVE",
"140 437 OFFCURVE",
"120 402 CURVE",
"116 402 LINE",
"116 450 LINE",
"10 450 LINE",
"10 425 LINE",
"49 425 LINE SMOOTH",
"69 425 OFFCURVE",
"76 415 OFFCURVE",
"76 393 CURVE SMOOTH",
"76 57 LINE SMOOTH",
"76 35 OFFCURVE",
"69 25 OFFCURVE",
"49 25 CURVE SMOOTH",
"10 25 LINE",
"10 0 LINE",
"196 0 LINE",
"196 25 LINE",
"143 25 LINE SMOOTH",
"123 25 OFFCURVE",
"116 35 OFFCURVE",
"116 57 CURVE SMOOTH",
"116 279 LINE SMOOTH",
"116 362 OFFCURVE",
"152 425 OFFCURVE",
"203 425 CURVE SMOOTH",
"230 425 OFFCURVE",
"248 407 OFFCURVE",
"248 384 CURVE SMOOTH",
"248 359 OFFCURVE",
"227 355 OFFCURVE",
"227 331 CURVE SMOOTH",
"227 314 OFFCURVE",
"238 301 OFFCURVE",
"257 301 CURVE SMOOTH",
"281 301 OFFCURVE",
"294 323 OFFCURVE",
"294 359 CURVE SMOOTH",
"294 416 OFFCURVE",
"262 460 OFFCURVE",
"207 460 CURVE SMOOTH"
);
}
);
width = 306;
},
{
layerId = "B25F85BC-C782-4067-8484-07202F80B8CD";
name = Condensed;
paths = (
{
closed = 1;
nodes = (
"250 460 OFFCURVE",
"221 426 OFFCURVE",
"211 389 CURVE",
"207 389 LINE",
"207 450 LINE",
"18 450 LINE",
"18 370 LINE",
"50 370 LINE SMOOTH",
"70 370 OFFCURVE",
"77 360 OFFCURVE",
"77 338 CURVE SMOOTH",
"77 112 LINE SMOOTH",
"77 90 OFFCURVE",
"70 80 OFFCURVE",
"50 80 CURVE SMOOTH",
"18 80 LINE",
"18 0 LINE",
"297 0 LINE",
"297 80 LINE",
"234 80 LINE SMOOTH",
"214 80 OFFCURVE",
"207 90 OFFCURVE",
"207 112 CURVE SMOOTH",
"207 259 LINE SMOOTH",
"207 321 OFFCURVE",
"225 380 OFFCURVE",
"269 380 CURVE SMOOTH",
"284 380 OFFCURVE",
"293 373 OFFCURVE",
"293 361 CURVE SMOOTH",
"293 339 OFFCURVE",
"263 337 OFFCURVE",
"263 301 CURVE SMOOTH",
"263 265 OFFCURVE",
"293 250 OFFCURVE",
"326 250 CURVE SMOOTH",
"370 250 OFFCURVE",
"406 278 OFFCURVE",
"406 349 CURVE SMOOTH",
"406 421 OFFCURVE",
"368 460 OFFCURVE",
"307 460 CURVE SMOOTH"
);
}
);
width = 408;
},
{
layerId = "B817C739-5D48-43E8-AAEE-CE891513D7BC";
name = "Bold Condensed";
paths = (
{
closed = 1;
nodes = (
"282 476 OFFCURVE",
"251 456 OFFCURVE",
"230 413 CURVE",
"226 413 LINE",
"226 466 LINE",
"8 466 LINE",
"8 358 LINE",
"19 358 LINE SMOOTH",
"41 358 OFFCURVE",
"50 348 OFFCURVE",
"50 323 CURVE SMOOTH",
"50 144 LINE SMOOTH",
"50 118 OFFCURVE",
"41 108 OFFCURVE",
"19 108 CURVE SMOOTH",
"8 108 LINE",
"8 0 LINE",
"316 0 LINE",
"316 108 LINE",
"258 108 LINE SMOOTH",
"235 108 OFFCURVE",
"226 119 OFFCURVE",
"226 144 CURVE SMOOTH",
"226 292 LINE SMOOTH",
"226 337 OFFCURVE",
"236 356 OFFCURVE",
"260 356 CURVE SMOOTH",
"274 356 OFFCURVE",
"282 349 OFFCURVE",
"282 337 CURVE SMOOTH",
"282 320 OFFCURVE",
"267 323 OFFCURVE",
"267 291 CURVE SMOOTH",
"267 261 OFFCURVE",
"295 240 OFFCURVE",
"342 240 CURVE SMOOTH",
"404 240 OFFCURVE",
"435 275 OFFCURVE",
"435 347 CURVE SMOOTH",
"435 429 OFFCURVE",
"395 476 OFFCURVE",
"327 476 CURVE SMOOTH"
);
}
);
width = 436;
},
{
layerId = UUID0;
name = "Light Extended";
paths = (
{
closed = 1;
nodes = (
"262 460 OFFCURVE",
"210 424 OFFCURVE",
"175 363 CURVE",
"171 363 LINE",
"171 450 LINE",
"30 450 LINE",
"30 423 LINE",
"97 423 LINE SMOOTH",
"116 423 OFFCURVE",
"127 411 OFFCURVE",
"127 388 CURVE SMOOTH",
"127 59 LINE SMOOTH",
"127 37 OFFCURVE",
"119 27 OFFCURVE",
"99 27 CURVE SMOOTH",
"30 27 LINE",
"30 0 LINE",
"270 0 LINE",
"270 27 LINE",
"198 27 LINE SMOOTH",
"179 27 OFFCURVE",
"171 36 OFFCURVE",
"171 59 CURVE SMOOTH",
"171 227 LINE SMOOTH",
"171 341 OFFCURVE",
"234 422 OFFCURVE",
"335 422 CURVE SMOOTH",
"388 422 OFFCURVE",
"427 400 OFFCURVE",
"427 369 CURVE SMOOTH",
"427 345 OFFCURVE",
"403 333 OFFCURVE",
"403 309 CURVE SMOOTH",
"403 291 OFFCURVE",
"416 278 OFFCURVE",
"435 278 CURVE SMOOTH",
"461 278 OFFCURVE",
"476 302 OFFCURVE",
"476 342 CURVE SMOOTH",
"476 416 OFFCURVE",
"423 460 OFFCURVE",
"338 460 CURVE SMOOTH"
);
}
);
width = 491;
},
{
layerId = "4355E1B8-19E6-44BD-A1D7-6E3C2DECA4C8";
name = Extended;
paths = (
{
closed = 1;
nodes = (
"304 460 OFFCURVE",
"255 430 OFFCURVE",
"240 379 CURVE",
"236 379 LINE",
"236 450 LINE",
"24 450 LINE",
"24 370 LINE",
"72 370 LINE SMOOTH",
"101 370 OFFCURVE",
"109 361 OFFCURVE",
"109 329 CURVE SMOOTH",
"109 112 LINE SMOOTH",
"109 89 OFFCURVE",
"101 80 OFFCURVE",
"82 80 CURVE SMOOTH",
"24 80 LINE",
"24 0 LINE",
"329 0 LINE",
"329 80 LINE",
"266 80 LINE SMOOTH",
"247 80 OFFCURVE",
"239 89 OFFCURVE",
"239 112 CURVE SMOOTH",
"239 239 LINE SMOOTH",
"239 329 OFFCURVE",
"276 380 OFFCURVE",
"342 380 CURVE SMOOTH",
"370 380 OFFCURVE",
"385 370 OFFCURVE",
"385 352 CURVE SMOOTH",
"385 325 OFFCURVE",
"355 320 OFFCURVE",
"355 284 CURVE SMOOTH",
"355 251 OFFCURVE",
"379 230 OFFCURVE",
"416 230 CURVE SMOOTH",
"467 230 OFFCURVE",
"498 270 OFFCURVE",
"498 335 CURVE SMOOTH",
"498 415 OFFCURVE",
"452 460 OFFCURVE",
"371 460 CURVE SMOOTH"
);
}
);
width = 508;
},
{
layerId = "14C77FDB-037D-4842-9381-6D9ED15DD48C";
name = "Bold Extended";
paths = (
{
closed = 1;
nodes = (
"396 490 OFFCURVE",
"348 460 OFFCURVE",
"320 413 CURVE",
"316 413 LINE",
"316 480 LINE",
"5 480 LINE",
"5 338 LINE",
"61 338 LINE SMOOTH",
"79 338 OFFCURVE",
"86 330 OFFCURVE",
"86 310 CURVE SMOOTH",
"86 173 LINE SMOOTH",
"86 151 OFFCURVE",
"79 142 OFFCURVE",
"61 142 CURVE SMOOTH",
"5 142 LINE",
"5 0 LINE",
"426 0 LINE",
"426 142 LINE",
"339 142 LINE SMOOTH",
"324 142 OFFCURVE",
"316 149 OFFCURVE",
"316 163 CURVE SMOOTH",
"316 257 LINE SMOOTH",
"316 308 OFFCURVE",
"334 334 OFFCURVE",
"369 334 CURVE SMOOTH",
"400 334 OFFCURVE",
"419 323 OFFCURVE",
"419 305 CURVE SMOOTH",
"419 284 OFFCURVE",
"394 287 OFFCURVE",
"394 250 CURVE SMOOTH",
"394 204 OFFCURVE",
"431 178 OFFCURVE",
"494 178 CURVE SMOOTH",
"581 178 OFFCURVE",
"632 229 OFFCURVE",
"632 317 CURVE SMOOTH",
"632 420 OFFCURVE",
"562 490 OFFCURVE",
"461 490 CURVE SMOOTH"
);
}
);
width = 632;
}
);
leftMetricsKey = n;
unicode = 0072;
},
{
glyphname = s;
lastChange = "2015-03-30 14:45:50 +0000";
layers = (
{
background = {
paths = (
{
closed = 1;
nodes = (
"351 -10 OFFCURVE",
"418 31 OFFCURVE",
"418 109 CURVE SMOOTH",
"418 277 OFFCURVE",
"107 234 OFFCURVE",
"107 354 CURVE SMOOTH",
"107 401 OFFCURVE",
"156 427 OFFCURVE",
"219 427 CURVE SMOOTH",
"303 427 OFFCURVE",
"359 381 OFFCURVE",
"371 266 CURVE",
"401 266 LINE",
"401 450 LINE",
"370 450 LINE",
"365 397 LINE",
"361 397 LINE",
"332 440 OFFCURVE",
"284 460 OFFCURVE",
"217 460 CURVE SMOOTH",
"121 460 OFFCURVE",
"66 419 OFFCURVE",
"66 348 CURVE SMOOTH",
"66 181 OFFCURVE",
"375 237 OFFCURVE",
"375 103 CURVE SMOOTH",
"375 53 OFFCURVE",
"332 23 OFFCURVE",
"255 23 CURVE SMOOTH",
"166 23 OFFCURVE",
"101 64 OFFCURVE",
"83 194 CURVE",
"55 194 LINE",
"55 0 LINE",
"84 0 LINE",
"90 64 LINE",
"94 64 LINE",
"129 12 OFFCURVE",
"185 -10 OFFCURVE",
"255 -10 CURVE SMOOTH"
);
}
);
};
layerId = UUID0;
name = "Light Extended";
paths = (
{
closed = 1;
nodes = (
"351 -10 OFFCURVE",
"418 31 OFFCURVE",
"418 109 CURVE SMOOTH",
"418 277 OFFCURVE",
"107 234 OFFCURVE",
"107 354 CURVE SMOOTH",
"107 401 OFFCURVE",
"149 427 OFFCURVE",
"219 427 CURVE SMOOTH",
"303 427 OFFCURVE",
"359 381 OFFCURVE",
"371 266 CURVE",
"401 266 LINE",
"401 450 LINE",
"370 450 LINE",
"365 397 LINE",
"361 397 LINE",
"332 440 OFFCURVE",
"284 460 OFFCURVE",
"217 460 CURVE SMOOTH",
"121 460 OFFCURVE",
"66 419 OFFCURVE",
"66 348 CURVE SMOOTH",
"66 181 OFFCURVE",
"375 237 OFFCURVE",
"375 103 CURVE SMOOTH",
"375 53 OFFCURVE",
"332 23 OFFCURVE",
"255 23 CURVE SMOOTH",
"166 23 OFFCURVE",
"101 64 OFFCURVE",
"83 194 CURVE",
"55 194 LINE",
"55 0 LINE",
"84 0 LINE",
"90 64 LINE",
"94 64 LINE",
"129 12 OFFCURVE",
"185 -10 OFFCURVE",
"255 -10 CURVE SMOOTH"
);
}
);
width = 472;
},
{
background = {
paths = (
{
closed = 1;
nodes = (
"403 -10 OFFCURVE",
"472 41 OFFCURVE",
"472 125 CURVE SMOOTH",
"472 298 OFFCURVE",
"180 255 OFFCURVE",
"180 349 CURVE SMOOTH",
"180 377 OFFCURVE",
"206 394 OFFCURVE",
"248 394 CURVE SMOOTH",
"312 394 OFFCURVE",
"354 358 OFFCURVE",
"378 284 CURVE",
"448 284 LINE",
"448 450 LINE",
"379 450 LINE",
"374 405 LINE",
"370 405 LINE",
"342 442 OFFCURVE",
"295 460 OFFCURVE",
"225 460 CURVE SMOOTH",
"113 460 OFFCURVE",
"47 413 OFFCURVE",
"47 335 CURVE SMOOTH",
"47 169 OFFCURVE",
"339 215 OFFCURVE",
"339 115 CURVE SMOOTH",
"339 83 OFFCURVE",
"311 65 OFFCURVE",
"261 65 CURVE SMOOTH",
"189 65 OFFCURVE",
"137 103 OFFCURVE",
"114 175 CURVE",
"35 175 LINE",
"35 0 LINE",
"110 0 LINE",
"119 54 LINE",
"123 54 LINE",
"160 11 OFFCURVE",
"215 -10 OFFCURVE",
"289 -10 CURVE SMOOTH"
);
}
);
};
layerId = "4355E1B8-19E6-44BD-A1D7-6E3C2DECA4C8";
name = Extended;
paths = (
{
closed = 1;
nodes = (
"404 -10 OFFCURVE",
"473 41 OFFCURVE",
"473 125 CURVE",
"473 295 OFFCURVE",
"195 261 OFFCURVE",
"195 345 CURVE",
"195 369 OFFCURVE",
"218 384 OFFCURVE",
"254 384 CURVE",
"314 384 OFFCURVE",
"353 351 OFFCURVE",
"376 284 CURVE SMOOTH",
"449 284 LINE SMOOTH",
"449 450 LINE SMOOTH",
"380 450 LINE SMOOTH",
"375 408 LINE SMOOTH",
"371 408 LINE SMOOTH",
"343 443 OFFCURVE",
"296 460 OFFCURVE",
"226 460 CURVE",
"114 460 OFFCURVE",
"48 413 OFFCURVE",
"48 335 CURVE",
"48 162 OFFCURVE",
"324 199 OFFCURVE",
"324 119 CURVE",
"324 91 OFFCURVE",
"300 75 OFFCURVE",
"256 75 CURVE",
"187 75 OFFCURVE",
"137 110 OFFCURVE",
"115 175 CURVE SMOOTH",
"36 175 LINE SMOOTH",
"36 0 LINE SMOOTH",
"111 0 LINE SMOOTH",
"120 50 LINE SMOOTH",
"124 50 LINE SMOOTH",
"161 10 OFFCURVE",
"216 -10 OFFCURVE",
"290 -10 CURVE"
);
}
);
width = 506;
},
{
background = {
paths = (
{
closed = 1;
nodes = (
"491 -10 OFFCURVE",
"570 47 OFFCURVE",
"570 130 CURVE SMOOTH",
"570 280 OFFCURVE",
"315 286 OFFCURVE",
"315 347 CURVE SMOOTH",
"315 360 OFFCURVE",
"327 368 OFFCURVE",
"347 368 CURVE SMOOTH",
"379 368 OFFCURVE",
"404 347 OFFCURVE",
"422 304 CURVE",
"564 304 LINE",
"564 480 LINE",
"420 480 LINE",
"410 444 LINE",
"404 444 LINE",
"369 475 OFFCURVE",
"317 490 OFFCURVE",
"247 490 CURVE SMOOTH",
"105 490 OFFCURVE",
"39 426 OFFCURVE",
"39 338 CURVE SMOOTH",
"39 163 OFFCURVE",
"288 204 OFFCURVE",
"288 136 CURVE SMOOTH",
"288 121 OFFCURVE",
"278 113 OFFCURVE",
"256 113 CURVE SMOOTH",
"223 113 OFFCURVE",
"197 128 OFFCURVE",
"175 157 CURVE",
"24 157 LINE",
"24 0 LINE",
"182 0 LINE",
"193 39 LINE",
"197 39 LINE",
"232 10 OFFCURVE",
"305 -10 OFFCURVE",
"374 -10 CURVE SMOOTH"
);
}
);
};
layerId = "14C77FDB-037D-4842-9381-6D9ED15DD48C";
name = "Bold Extended";
paths = (
{
closed = 1;
nodes = (
"469 -10 OFFCURVE",
"570 30 OFFCURVE",
"570 130 CURVE SMOOTH",
"570 290 OFFCURVE",
"315 289 OFFCURVE",
"315 340 CURVE SMOOTH",
"315 352 OFFCURVE",
"329 364 OFFCURVE",
"349 364 CURVE SMOOTH",
"381 364 OFFCURVE",
"404 347 OFFCURVE",
"422 304 CURVE",
"564 304 LINE",
"564 480 LINE",
"420 480 LINE",
"410 444 LINE",
"404 444 LINE",
"370 475 OFFCURVE",
"326 490 OFFCURVE",
"262 490 CURVE SMOOTH",
"117 490 OFFCURVE",
"39 412 OFFCURVE",
"39 320 CURVE SMOOTH",
"39 155 OFFCURVE",
"278 196 OFFCURVE",
"278 133 CURVE SMOOTH",
"278 120 OFFCURVE",
"268 111 OFFCURVE",
"246 111 CURVE SMOOTH",
"216 111 OFFCURVE",
"197 128 OFFCURVE",
"175 157 CURVE",
"24 157 LINE",
"24 0 LINE",
"182 0 LINE",
"193 39 LINE",
"197 39 LINE",
"232 10 OFFCURVE",
"283 -10 OFFCURVE",
"360 -10 CURVE SMOOTH"
);
}
);
width = 594;
},
{
background = {
paths = (
{
closed = 1;
nodes = (
"229 -10 OFFCURVE",
"276 36 OFFCURVE",
"276 109 CURVE SMOOTH",
"276 258 OFFCURVE",
"79 243 OFFCURVE",
"79 362 CURVE SMOOTH",
"79 407 OFFCURVE",
"109 429 OFFCURVE",
"143 429 CURVE SMOOTH",
"188 429 OFFCURVE",
"222 393 OFFCURVE",
"226 286 CURVE",
"253 286 LINE",
"253 450 LINE",
"236 450 LINE",
"230 408 LINE",
"226 408 LINE",
"205 443 OFFCURVE",
"177 460 OFFCURVE",
"143 460 CURVE SMOOTH",
"88 460 OFFCURVE",
"42 414 OFFCURVE",
"42 345 CURVE SMOOTH",
"42 203 OFFCURVE",
"238 216 OFFCURVE",
"238 97 CURVE SMOOTH",
"238 60 OFFCURVE",
"219 21 OFFCURVE",
"170 21 CURVE SMOOTH",
"114 21 OFFCURVE",
"72 75 OFFCURVE",
"68 174 CURVE",
"42 174 LINE",
"42 0 LINE",
"65 0 LINE",
"70 54 LINE",
"74 54 LINE",
"96 10 OFFCURVE",
"131 -10 OFFCURVE",
"170 -10 CURVE SMOOTH"
);
}
);
};
layerId = "E9E6D55E-9446-45F2-B66C-3272698B0216";
name = "Light Condensed";
paths = (
{
closed = 1;
nodes = (
"233 -10 OFFCURVE",
"274 36 OFFCURVE",
"274 109 CURVE SMOOTH",
"274 260 OFFCURVE",
"78 235 OFFCURVE",
"78 352 CURVE SMOOTH",
"78 389 OFFCURVE",
"97 427 OFFCURVE",
"138 427 CURVE SMOOTH",
"181 427 OFFCURVE",
"216 386 OFFCURVE",
"229 286 CURVE",
"257 286 LINE",
"257 450 LINE",
"230 450 LINE",
"226 408 LINE",
"222 408 LINE",
"207 441 OFFCURVE",
"177 460 OFFCURVE",
"139 460 CURVE SMOOTH",
"84 460 OFFCURVE",
"40 418 OFFCURVE",
"40 340 CURVE SMOOTH",
"40 198 OFFCURVE",
"238 218 OFFCURVE",
"238 97 CURVE SMOOTH",
"238 60 OFFCURVE",
"216 23 OFFCURVE",
"170 23 CURVE SMOOTH",
"121 23 OFFCURVE",
"80 75 OFFCURVE",
"66 174 CURVE",
"40 174 LINE",
"40 0 LINE",
"67 0 LINE",
"71 54 LINE",
"75 54 LINE",
"97 10 OFFCURVE",
"129 -10 OFFCURVE",
"168 -10 CURVE SMOOTH"
);
}
);
width = 310;
},
{
layerId = "B25F85BC-C782-4067-8484-07202F80B8CD";
name = Condensed;
paths = (
{
closed = 1;
nodes = (
"300 -10 OFFCURVE",
"347 40 OFFCURVE",
"347 117 CURVE SMOOTH",
"347 270 OFFCURVE",
"164 280 OFFCURVE",
"164 354 CURVE SMOOTH",
"164 376 OFFCURVE",
"180 390 OFFCURVE",
"200 390 CURVE SMOOTH",
"231 390 OFFCURVE",
"249 359 OFFCURVE",
"256 298 CURVE",
"330 298 LINE",
"330 450 LINE",
"270 450 LINE",
"264 413 LINE",
"260 413 LINE",
"242 443 OFFCURVE",
"207 460 OFFCURVE",
"166 460 CURVE SMOOTH",
"93 460 OFFCURVE",
"38 405 OFFCURVE",
"38 330 CURVE SMOOTH",
"38 197 OFFCURVE",
"211 179 OFFCURVE",
"211 112 CURVE SMOOTH",
"211 92 OFFCURVE",
"195 77 OFFCURVE",
"172 77 CURVE SMOOTH",
"135 77 OFFCURVE",
"112 114 OFFCURVE",
"104 172 CURVE",
"26 172 LINE",
"26 0 LINE",
"97 0 LINE",
"102 49 LINE",
"106 49 LINE",
"135 10 OFFCURVE",
"174 -10 OFFCURVE",
"223 -10 CURVE SMOOTH"
);
}
);
width = 368;
},
{
background = {
paths = (
{
closed = 1;
nodes = (
"330 -12 OFFCURVE",
"384 42 OFFCURVE",
"384 122 CURVE SMOOTH",
"384 273 OFFCURVE",
"195 283 OFFCURVE",
"195 340 CURVE SMOOTH",
"195 354 OFFCURVE",
"207 363 OFFCURVE",
"223 363 CURVE SMOOTH",
"248 363 OFFCURVE",
"264 341 OFFCURVE",
"275 297 CURVE",
"370 297 LINE",
"370 466 LINE",
"270 466 LINE",
"261 424 LINE",
"257 424 LINE",
"233 459 OFFCURVE",
"199 478 OFFCURVE",
"156 478 CURVE SMOOTH",
"77 478 OFFCURVE",
"20 416 OFFCURVE",
"20 330 CURVE SMOOTH",
"20 180 OFFCURVE",
"195 183 OFFCURVE",
"195 127 CURVE SMOOTH",
"195 112 OFFCURVE",
"183 101 OFFCURVE",
"167 101 CURVE SMOOTH",
"142 101 OFFCURVE",
"122 128 OFFCURVE",
"113 171 CURVE",
"15 171 LINE",
"15 0 LINE",
"124 0 LINE",
"132 39 LINE",
"136 39 LINE",
"161 6 OFFCURVE",
"202 -12 OFFCURVE",
"249 -12 CURVE SMOOTH"
);
}
);
};
layerId = "B817C739-5D48-43E8-AAEE-CE891513D7BC";
name = "Bold Condensed";
paths = (
{
closed = 1;
nodes = (
"330 -12 OFFCURVE",
"384 42 OFFCURVE",
"384 122 CURVE SMOOTH",
"384 273 OFFCURVE",
"195 288 OFFCURVE",
"195 345 CURVE SMOOTH",
"195 359 OFFCURVE",
"206 368 OFFCURVE",
"223 368 CURVE SMOOTH",
"248 368 OFFCURVE",
"264 348 OFFCURVE",
"275 304 CURVE",
"370 304 LINE",
"370 466 LINE",
"270 466 LINE",
"261 434 LINE",
"257 434 LINE",
"233 463 OFFCURVE",
"198 478 OFFCURVE",
"158 478 CURVE SMOOTH",
"78 478 OFFCURVE",
"20 418 OFFCURVE",
"20 337 CURVE SMOOTH",
"20 197 OFFCURVE",
"195 193 OFFCURVE",
"195 139 CURVE SMOOTH",
"195 124 OFFCURVE",
"183 113 OFFCURVE",
"166 113 CURVE SMOOTH",
"142 113 OFFCURVE",
"122 135 OFFCURVE",
"113 171 CURVE",
"15 171 LINE",
"15 0 LINE",
"124 0 LINE",
"132 39 LINE",
"136 39 LINE",
"160 6 OFFCURVE",
"201 -12 OFFCURVE",
"249 -12 CURVE SMOOTH"
);
}
);
width = 392;
}
);
unicode = 0073;
},
{
glyphname = t;
lastChange = "2015-03-29 17:40:14 +0000";
layers = (
{
background = {
paths = (
{
closed = 1;
nodes = (
"108 450 LINE",
"195 450 LINE",
"195 420 LINE",
"108 420 LINE",
"108 75 LINE SMOOTH",
"108 36 OFFCURVE",
"121 21 OFFCURVE",
"139 21 CURVE SMOOTH",
"157 21 OFFCURVE",
"170 36 OFFCURVE",
"170 75 CURVE SMOOTH",
"170 146 LINE",
"205 146 LINE",
"205 76 LINE SMOOTH",
"205 15 OFFCURVE",
"179 -10 OFFCURVE",
"139 -10 CURVE SMOOTH",
"99 -10 OFFCURVE",
"68 15 OFFCURVE",
"68 76 CURVE SMOOTH",
"68 420 LINE",
"13 420 LINE",
"13 450 LINE",
"65 450 OFFCURVE",
"83 493 OFFCURVE",
"83 583 CURVE",
"108 583 LINE"
);
}
);
};
layerId = "E9E6D55E-9446-45F2-B66C-3272698B0216";
name = "Light Condensed";
paths = (
{
closed = 1;
nodes = (
"98 450 LINE",
"196 450 LINE",
"196 420 LINE",
"98 420 LINE",
"98 82 LINE SMOOTH",
"98 33 OFFCURVE",
"117 24 OFFCURVE",
"136 24 CURVE SMOOTH",
"158 24 OFFCURVE",
"190 36 OFFCURVE",
"190 107 CURVE SMOOTH",
"190 146 LINE",
"225 146 LINE",
"225 102 LINE SMOOTH",
"225 15 OFFCURVE",
"183 -10 OFFCURVE",
"137 -10 CURVE SMOOTH",
"91 -10 OFFCURVE",
"58 15 OFFCURVE",
"58 76 CURVE SMOOTH",
"58 420 LINE",
"0 420 LINE",
"0 450 LINE",
"52 450 OFFCURVE",
"73 493 OFFCURVE",
"73 583 CURVE",
"98 583 LINE"
);
}
);
width = 240;
},
{
layerId = "B25F85BC-C782-4067-8484-07202F80B8CD";
name = Condensed;
paths = (
{
closed = 1;
nodes = (
"186 450 LINE",
"307 450 LINE",
"307 370 LINE",
"186 370 LINE",
"186 110 LINE SMOOTH",
"186 89 OFFCURVE",
"193 81 OFFCURVE",
"212 81 CURVE SMOOTH",
"221 81 OFFCURVE",
"238 88 OFFCURVE",
"238 110 CURVE SMOOTH",
"238 196 LINE",
"333 196 LINE",
"333 136 LINE SMOOTH",
"333 30 OFFCURVE",
"269 -10 OFFCURVE",
"193 -10 CURVE SMOOTH",
"113 -10 OFFCURVE",
"56 24 OFFCURVE",
"56 106 CURVE SMOOTH",
"56 370 LINE",
"-3 370 LINE",
"-3 450 LINE",
"73 450 OFFCURVE",
"91 483 OFFCURVE",
"91 583 CURVE",
"186 583 LINE"
);
}
);
width = 346;
},
{
layerId = "B817C739-5D48-43E8-AAEE-CE891513D7BC";
name = "Bold Condensed";
paths = (
{
closed = 1;
nodes = (
"212 466 LINE",
"353 466 LINE",
"353 358 LINE",
"212 358 LINE",
"212 140 LINE SMOOTH",
"212 120 OFFCURVE",
"215 111 OFFCURVE",
"227 111 CURVE SMOOTH",
"239 111 OFFCURVE",
"244 119 OFFCURVE",
"244 140 CURVE SMOOTH",
"244 196 LINE",
"359 196 LINE",
"359 136 LINE SMOOTH",
"359 31 OFFCURVE",
"298 -12 OFFCURVE",
"200 -12 CURVE SMOOTH",
"100 -12 OFFCURVE",
"36 33 OFFCURVE",
"36 136 CURVE SMOOTH",
"36 358 LINE",
"-6 358 LINE",
"-6 466 LINE",
"61 466 OFFCURVE",
"81 499 OFFCURVE",
"91 599 CURVE",
"212 599 LINE"
);
}
);
width = 371;
},
{
layerId = UUID0;
name = "Light Extended";
paths = (
{
closed = 1;
nodes = (
"125 450 LINE",
"266 450 LINE",
"266 417 LINE",
"125 417 LINE",
"125 75 LINE SMOOTH",
"125 36 OFFCURVE",
"147 21 OFFCURVE",
"183 21 CURVE SMOOTH",
"219 21 OFFCURVE",
"241 36 OFFCURVE",
"241 75 CURVE SMOOTH",
"241 146 LINE",
"276 146 LINE",
"276 76 LINE SMOOTH",
"276 15 OFFCURVE",
"241 -10 OFFCURVE",
"183 -10 CURVE SMOOTH",
"125 -10 OFFCURVE",
"85 15 OFFCURVE",
"85 76 CURVE SMOOTH",
"85 417 LINE",
"0 417 LINE",
"0 450 LINE",
"73 450 OFFCURVE",
"100 473 OFFCURVE",
"100 583 CURVE",
"125 583 LINE"
);
}
);
width = 296;
},
{
layerId = "4355E1B8-19E6-44BD-A1D7-6E3C2DECA4C8";
name = Extended;
paths = (
{
closed = 1;
nodes = (
"232 450 LINE",
"378 450 LINE",
"378 370 LINE",
"232 370 LINE",
"232 140 LINE SMOOTH",
"232 95 OFFCURVE",
"242 81 OFFCURVE",
"272 81 CURVE SMOOTH",
"302 81 OFFCURVE",
"313 96 OFFCURVE",
"313 140 CURVE SMOOTH",
"313 196 LINE",
"408 196 LINE",
"408 136 LINE SMOOTH",
"408 37 OFFCURVE",
"359 -10 OFFCURVE",
"258 -10 CURVE SMOOTH",
"154 -10 OFFCURVE",
"102 39 OFFCURVE",
"102 136 CURVE SMOOTH",
"102 370 LINE",
"17 370 LINE",
"17 450 LINE",
"106 450 OFFCURVE",
"137 484 OFFCURVE",
"137 583 CURVE",
"232 583 LINE"
);
}
);
width = 443;
},
{
layerId = "14C77FDB-037D-4842-9381-6D9ED15DD48C";
name = "Bold Extended";
paths = (
{
closed = 1;
nodes = (
"306 480 LINE",
"507 480 LINE",
"507 338 LINE",
"306 338 LINE",
"306 200 LINE SMOOTH",
"306 156 OFFCURVE",
"317 142 OFFCURVE",
"352 142 CURVE SMOOTH",
"384 142 OFFCURVE",
"398 158 OFFCURVE",
"398 200 CURVE SMOOTH",
"398 256 LINE",
"513 256 LINE",
"513 196 LINE SMOOTH",
"513 51 OFFCURVE",
"444 -10 OFFCURVE",
"282 -10 CURVE SMOOTH",
"141 -10 OFFCURVE",
"76 48 OFFCURVE",
"76 176 CURVE SMOOTH",
"76 338 LINE",
"-5 338 LINE",
"-5 480 LINE",
"87 480 OFFCURVE",
"116 513 OFFCURVE",
"131 633 CURVE",
"306 633 LINE"
);
}
);
width = 523;
}
);
unicode = 0074;
},
{
glyphname = u;
lastChange = "2015-03-30 14:47:54 +0000";
layers = (
{
layerId = "E9E6D55E-9446-45F2-B66C-3272698B0216";
name = "Light Condensed";
paths = (
{
closed = 1;
nodes = (
"194 425 LINE",
"227 425 LINE SMOOTH",
"247 425 OFFCURVE",
"254 415 OFFCURVE",
"254 393 CURVE SMOOTH",
"254 191 LINE SMOOTH",
"254 97 OFFCURVE",
"217 25 OFFCURVE",
"161 25 CURVE SMOOTH",
"127 25 OFFCURVE",
"107 50 OFFCURVE",
"107 90 CURVE SMOOTH",
"107 450 LINE",
"1 450 LINE",
"1 425 LINE",
"40 425 LINE SMOOTH",
"60 425 OFFCURVE",
"67 415 OFFCURVE",
"67 393 CURVE SMOOTH",
"67 87 LINE SMOOTH",
"67 26 OFFCURVE",
"100 -10 OFFCURVE",
"154 -10 CURVE SMOOTH",
"198 -10 OFFCURVE",
"228 14 OFFCURVE",
"250 58 CURVE",
"254 58 LINE",
"254 0 LINE",
"360 0 LINE",
"360 25 LINE",
"321 25 LINE SMOOTH",
"301 25 OFFCURVE",
"294 35 OFFCURVE",
"294 57 CURVE SMOOTH",
"294 450 LINE",
"194 450 LINE"
);
}
);
width = 364;
},
{
layerId = "B25F85BC-C782-4067-8484-07202F80B8CD";
name = Condensed;
paths = (
{
closed = 1;
nodes = (
"216 370 LINE",
"232 370 LINE SMOOTH",
"253 370 OFFCURVE",
"259 360 OFFCURVE",
"259 338 CURVE SMOOTH",
"259 176 LINE SMOOTH",
"259 138 OFFCURVE",
"249 112 OFFCURVE",
"220 112 CURVE SMOOTH",
"198 112 OFFCURVE",
"189 128 OFFCURVE",
"189 167 CURVE SMOOTH",
"189 450 LINE",
"0 450 LINE",
"0 370 LINE",
"32 370 LINE SMOOTH",
"52 370 OFFCURVE",
"59 360 OFFCURVE",
"59 338 CURVE SMOOTH",
"59 102 LINE SMOOTH",
"59 41 OFFCURVE",
"94 -10 OFFCURVE",
"157 -10 CURVE SMOOTH",
"209 -10 OFFCURVE",
"246 25 OFFCURVE",
"255 70 CURVE",
"259 70 LINE",
"259 0 LINE",
"448 0 LINE",
"448 80 LINE",
"416 80 LINE SMOOTH",
"395 80 OFFCURVE",
"389 90 OFFCURVE",
"389 112 CURVE SMOOTH",
"389 450 LINE",
"216 450 LINE"
);
}
);
width = 442;
},
{
layerId = "B817C739-5D48-43E8-AAEE-CE891513D7BC";
name = "Bold Condensed";
paths = (
{
closed = 1;
nodes = (
"233 358 LINE",
"248 358 LINE SMOOTH",
"253 358 OFFCURVE",
"257 353 OFFCURVE",
"257 346 CURVE SMOOTH",
"257 186 LINE SMOOTH",
"257 151 OFFCURVE",
"249 132 OFFCURVE",
"234 132 CURVE SMOOTH",
"222 132 OFFCURVE",
"217 143 OFFCURVE",
"217 167 CURVE SMOOTH",
"217 466 LINE",
"-1 466 LINE",
"-1 358 LINE",
"14 358 LINE SMOOTH",
"33 358 OFFCURVE",
"41 349 OFFCURVE",
"41 326 CURVE SMOOTH",
"41 112 LINE SMOOTH",
"41 40 OFFCURVE",
"87 -10 OFFCURVE",
"154 -10 CURVE SMOOTH",
"200 -10 OFFCURVE",
"236 13 OFFCURVE",
"253 53 CURVE",
"257 53 LINE",
"257 0 LINE",
"475 0 LINE",
"475 108 LINE",
"464 108 LINE SMOOTH",
"443 108 OFFCURVE",
"433 118 OFFCURVE",
"433 140 CURVE SMOOTH",
"433 466 LINE",
"233 466 LINE"
);
}
);
width = 476;
},
{
layerId = UUID0;
name = "Light Extended";
paths = (
{
closed = 1;
nodes = (
"319 421 LINE",
"382 421 LINE SMOOTH",
"403 421 OFFCURVE",
"409 411 OFFCURVE",
"409 389 CURVE SMOOTH",
"409 211 LINE SMOOTH",
"409 105 OFFCURVE",
"347 28 OFFCURVE",
"248 28 CURVE SMOOTH",
"169 28 OFFCURVE",
"126 78 OFFCURVE",
"126 160 CURVE SMOOTH",
"126 450 LINE",
"-14 450 LINE",
"-14 421 LINE",
"55 421 LINE SMOOTH",
"75 421 OFFCURVE",
"82 411 OFFCURVE",
"82 389 CURVE SMOOTH",
"82 157 LINE SMOOTH",
"82 54 OFFCURVE",
"141 -10 OFFCURVE",
"243 -10 CURVE SMOOTH",
"314 -10 OFFCURVE",
"369 21 OFFCURVE",
"405 78 CURVE",
"409 78 LINE",
"409 0 LINE",
"550 0 LINE",
"550 27 LINE",
"480 27 LINE SMOOTH",
"460 27 OFFCURVE",
"453 37 OFFCURVE",
"453 59 CURVE SMOOTH",
"453 450 LINE",
"319 450 LINE"
);
}
);
width = 552;
},
{
layerId = "4355E1B8-19E6-44BD-A1D7-6E3C2DECA4C8";
name = Extended;
paths = (
{
closed = 1;
nodes = (
"323 370 LINE",
"379 370 LINE SMOOTH",
"400 370 OFFCURVE",
"406 360 OFFCURVE",
"406 338 CURVE SMOOTH",
"406 201 LINE SMOOTH",
"406 126 OFFCURVE",
"364 85 OFFCURVE",
"290 85 CURVE SMOOTH",
"234 85 OFFCURVE",
"206 114 OFFCURVE",
"206 167 CURVE SMOOTH",
"206 450 LINE",
"-8 450 LINE",
"-8 370 LINE",
"49 370 LINE SMOOTH",
"69 370 OFFCURVE",
"76 362 OFFCURVE",
"76 342 CURVE SMOOTH",
"76 147 LINE SMOOTH",
"76 54 OFFCURVE",
"137 -10 OFFCURVE",
"242 -10 CURVE SMOOTH",
"324 -10 OFFCURVE",
"387 25 OFFCURVE",
"402 70 CURVE",
"406 70 LINE",
"406 0 LINE",
"595 0 LINE",
"595 80 LINE",
"563 80 LINE SMOOTH",
"542 80 OFFCURVE",
"536 90 OFFCURVE",
"536 112 CURVE SMOOTH",
"536 450 LINE",
"323 450 LINE"
);
}
);
width = 612;
},
{
layerId = "14C77FDB-037D-4842-9381-6D9ED15DD48C";
name = "Bold Extended";
paths = (
{
closed = 1;
nodes = (
"368 338 LINE",
"422 338 LINE SMOOTH",
"429 338 OFFCURVE",
"431 335 OFFCURVE",
"431 326 CURVE SMOOTH",
"431 227 LINE SMOOTH",
"431 174 OFFCURVE",
"408 146 OFFCURVE",
"365 146 CURVE SMOOTH",
"328 146 OFFCURVE",
"311 165 OFFCURVE",
"311 206 CURVE SMOOTH",
"311 480 LINE",
"0 480 LINE",
"0 338 LINE",
"54 338 LINE SMOOTH",
"73 338 OFFCURVE",
"81 329 OFFCURVE",
"81 306 CURVE SMOOTH",
"81 152 LINE SMOOTH",
"81 52 OFFCURVE",
"153 -10 OFFCURVE",
"269 -10 CURVE SMOOTH",
"339 -10 OFFCURVE",
"395 19 OFFCURVE",
"427 67 CURVE",
"431 67 LINE",
"431 0 LINE",
"742 0 LINE",
"742 142 LINE",
"692 142 LINE SMOOTH",
"671 142 OFFCURVE",
"661 152 OFFCURVE",
"661 174 CURVE SMOOTH",
"661 480 LINE",
"368 480 LINE"
);
}
);
width = 747;
}
);
rightMetricsKey = d;
unicode = 0075;
},
{
glyphname = v;
lastChange = "2015-03-30 14:46:37 +0000";
layers = (
{
layerId = "E9E6D55E-9446-45F2-B66C-3272698B0216";
name = "Light Condensed";
paths = (
{
closed = 1;
nodes = (
"182 64 LINE",
"165 64 LINE",
"91 394 LINE SMOOTH",
"87 413 OFFCURVE",
"92 425 OFFCURVE",
"108 425 CURVE SMOOTH",
"132 425 LINE",
"132 450 LINE",
"1 450 LINE",
"1 425 LINE",
"14 425 LINE SMOOTH",
"33 425 OFFCURVE",
"39 419 OFFCURVE",
"43 402 CURVE SMOOTH",
"140 0 LINE",
"169 0 LINE"
);
},
{
closed = 1;
nodes = (
"283 402 LINE SMOOTH",
"287 418 OFFCURVE",
"293 425 OFFCURVE",
"312 425 CURVE SMOOTH",
"325 425 LINE",
"325 450 LINE",
"204 450 LINE",
"204 425 LINE",
"228 425 LINE SMOOTH",
"244 425 OFFCURVE",
"249 413 OFFCURVE",
"245 394 CURVE SMOOTH",
"157 0 LINE",
"185 0 LINE"
);
}
);
width = 328;
},
{
layerId = "B25F85BC-C782-4067-8484-07202F80B8CD";
name = Condensed;
paths = (
{
closed = 1;
nodes = (
"251 128 LINE",
"216 128 LINE",
"177 339 LINE SMOOTH",
"174 356 OFFCURVE",
"172 370 OFFCURVE",
"194 370 CURVE SMOOTH",
"209 370 LINE",
"209 450 LINE",
"-2 450 LINE",
"-2 370 LINE",
"14 370 LINE SMOOTH",
"33 370 OFFCURVE",
"39 364 OFFCURVE",
"43 347 CURVE SMOOTH",
"122 0 LINE",
"225 0 LINE"
);
},
{
closed = 1;
nodes = (
"361 347 LINE SMOOTH",
"365 364 OFFCURVE",
"371 370 OFFCURVE",
"390 370 CURVE SMOOTH",
"409 370 LINE",
"409 450 LINE",
"230 450 LINE",
"230 370 LINE",
"246 370 LINE SMOOTH",
"261 370 OFFCURVE",
"268 361 OFFCURVE",
"263 339 CURVE SMOOTH",
"192 0 LINE",
"280 0 LINE"
);
}
);
width = 411;
},
{
layerId = "B817C739-5D48-43E8-AAEE-CE891513D7BC";
name = "Bold Condensed";
paths = (
{
closed = 1;
nodes = (
"277 132 LINE",
"241 132 LINE",
"216 319 LINE SMOOTH",
"213 339 OFFCURVE",
"211 358 OFFCURVE",
"226 358 CURVE SMOOTH",
"235 358 LINE",
"235 466 LINE",
"0 466 LINE",
"0 358 LINE",
"16 358 LINE SMOOTH",
"28 358 OFFCURVE",
"36 353 OFFCURVE",
"40 335 CURVE SMOOTH",
"114 0 LINE",
"252 0 LINE"
);
},
{
closed = 1;
nodes = (
"403 335 LINE SMOOTH",
"407 352 OFFCURVE",
"413 358 OFFCURVE",
"432 358 CURVE SMOOTH",
"448 358 LINE",
"448 466 LINE",
"251 466 LINE",
"251 358 LINE",
"259 358 LINE SMOOTH",
"274 358 OFFCURVE",
"275 341 OFFCURVE",
"272 319 CURVE SMOOTH",
"224 0 LINE",
"332 0 LINE"
);
}
);
width = 450;
},
{
layerId = UUID0;
name = "Light Extended";
paths = (
{
closed = 1;
nodes = (
"241 69 LINE",
"226 69 LINE",
"94 390 LINE SMOOTH",
"87 406 OFFCURVE",
"90 421 OFFCURVE",
"117 421 CURVE SMOOTH",
"182 421 LINE",
"182 450 LINE",
"-29 450 LINE",
"-29 421 LINE",
"5 421 LINE SMOOTH",
"26 421 OFFCURVE",
"37 415 OFFCURVE",
"44 398 CURVE SMOOTH",
"210 0 LINE",
"225 0 LINE"
);
},
{
closed = 1;
nodes = (
"401 398 LINE SMOOTH",
"408 415 OFFCURVE",
"418 421 OFFCURVE",
"441 421 CURVE SMOOTH",
"467 421 LINE",
"467 450 LINE",
"286 450 LINE",
"286 421 LINE",
"335 421 LINE SMOOTH",
"354 421 OFFCURVE",
"359 409 OFFCURVE",
"352 390 CURVE SMOOTH",
"210 0 LINE",
"244 0 LINE"
);
}
);
width = 476;
},
{
layerId = "4355E1B8-19E6-44BD-A1D7-6E3C2DECA4C8";
name = Extended;
paths = (
{
closed = 1;
nodes = (
"327 111 LINE SMOOTH",
"292 111 LINE SMOOTH",
"199 339 LINE",
"192 355 OFFCURVE",
"194 370 OFFCURVE",
"216 370 CURVE",
"251 370 LINE SMOOTH",
"251 450 LINE SMOOTH",
"0 450 LINE SMOOTH",
"0 370 LINE SMOOTH",
"36 370 LINE",
"52 370 OFFCURVE",
"59 363 OFFCURVE",
"65 347 CURVE",
"202 0 LINE SMOOTH",
"292 0 LINE SMOOTH"
);
},
{
closed = 1;
nodes = (
"483 347 LINE",
"489 363 OFFCURVE",
"493 370 OFFCURVE",
"512 370 CURVE",
"551 370 LINE SMOOTH",
"551 450 LINE SMOOTH",
"332 450 LINE SMOOTH",
"332 370 LINE SMOOTH",
"368 370 LINE",
"383 370 OFFCURVE",
"393 360 OFFCURVE",
"385 339 CURVE",
"254 0 LINE SMOOTH",
"344 0 LINE SMOOTH"
);
}
);
width = 556;
},
{
layerId = "14C77FDB-037D-4842-9381-6D9ED15DD48C";
name = "Bold Extended";
paths = (
{
closed = 1;
nodes = (
"392 132 LINE",
"367 132 LINE",
"306 299 LINE SMOOTH",
"298 320 OFFCURVE",
"298 338 OFFCURVE",
"325 338 CURVE SMOOTH",
"355 338 LINE",
"355 480 LINE",
"-5 480 LINE",
"-5 338 LINE",
"34 338 LINE SMOOTH",
"50 338 OFFCURVE",
"59 333 OFFCURVE",
"65 315 CURVE SMOOTH",
"175 0 LINE",
"348 0 LINE"
);
},
{
closed = 1;
nodes = (
"632 315 LINE SMOOTH",
"639 331 OFFCURVE",
"647 338 OFFCURVE",
"665 338 CURVE SMOOTH",
"697 338 LINE",
"697 480 LINE",
"385 480 LINE",
"385 338 LINE",
"416 338 LINE SMOOTH",
"441 338 OFFCURVE",
"444 320 OFFCURVE",
"436 299 CURVE SMOOTH",
"322 0 LINE",
"495 0 LINE"
);
}
);
width = 702;
}
);
unicode = 0076;
},
{
glyphname = w;
lastChange = "2015-03-30 14:46:41 +0000";
layers = (
{
background = {
paths = (
{
closed = 1;
nodes = (
"155 50 LINE",
"141 50 LINE",
"94 394 LINE SMOOTH",
"93 401 OFFCURVE",
"93 403 OFFCURVE",
"93 406 CURVE SMOOTH",
"93 418 OFFCURVE",
"99 425 OFFCURVE",
"112 425 CURVE SMOOTH",
"129 425 LINE",
"129 450 LINE",
"2 450 LINE",
"2 425 LINE",
"17 425 LINE SMOOTH",
"37 425 OFFCURVE",
"43 419 OFFCURVE",
"47 396 CURVE SMOOTH",
"114 0 LINE",
"144 0 LINE"
);
},
{
closed = 1;
nodes = (
"239 402 LINE SMOOTH",
"242 419 OFFCURVE",
"249 425 OFFCURVE",
"268 425 CURVE SMOOTH",
"285 425 LINE",
"285 450 LINE",
"169 450 LINE",
"169 425 LINE",
"182 425 LINE SMOOTH",
"196 425 OFFCURVE",
"205 418 OFFCURVE",
"205 403 CURVE SMOOTH",
"205 400 OFFCURVE",
"205 399 OFFCURVE",
"204 394 CURVE SMOOTH",
"134 0 LINE",
"165 0 LINE"
);
},
{
closed = 1;
nodes = (
"325 50 LINE",
"310 50 LINE",
"260 394 LINE SMOOTH",
"259 401 OFFCURVE",
"259 403 OFFCURVE",
"259 406 CURVE SMOOTH",
"259 420 OFFCURVE",
"265 425 OFFCURVE",
"278 425 CURVE SMOOTH",
"295 425 LINE",
"295 450 LINE",
"177 450 LINE",
"177 425 LINE",
"186 425 LINE SMOOTH",
"206 425 OFFCURVE",
"214 419 OFFCURVE",
"216 396 CURVE SMOOTH",
"221 334 LINE",
"229 334 LINE",
"277 0 LINE",
"317 0 LINE"
);
},
{
closed = 1;
nodes = (
"408 402 LINE SMOOTH",
"411 419 OFFCURVE",
"418 425 OFFCURVE",
"437 425 CURVE SMOOTH",
"452 425 LINE",
"452 450 LINE",
"335 450 LINE",
"335 425 LINE",
"353 425 LINE SMOOTH",
"364 425 OFFCURVE",
"371 418 OFFCURVE",
"371 404 CURVE SMOOTH",
"371 401 OFFCURVE",
"371 399 OFFCURVE",
"369 388 CURVE SMOOTH",
"303 0 LINE",
"333 0 LINE"
);
}
);
};
layerId = "E9E6D55E-9446-45F2-B66C-3272698B0216";
name = "Light Condensed";
paths = (
{
closed = 1;
nodes = (
"144 0 LINE",
"155 50 LINE",
"141 50 LINE",
"94 394 LINE SMOOTH",
"92 409 OFFCURVE",
"92 425 OFFCURVE",
"112 425 CURVE SMOOTH",
"129 425 LINE",
"129 450 LINE",
"2 450 LINE",
"2 425 LINE",
"17 425 LINE SMOOTH",
"37 425 OFFCURVE",
"43 419 OFFCURVE",
"47 396 CURVE SMOOTH",
"116 0 LINE"
);
},
{
closed = 1;
nodes = (
"163 0 LINE",
"239 402 LINE",
"239 450 LINE",
"172 450 LINE",
"172 425 LINE",
"185 425 LINE SMOOTH",
"204 425 OFFCURVE",
"211 413 OFFCURVE",
"207 394 CURVE SMOOTH",
"134 0 LINE"
);
},
{
closed = 1;
nodes = (
"317 0 LINE",
"325 50 LINE",
"310 50 LINE",
"256 394 LINE SMOOTH",
"253 415 OFFCURVE",
"256 425 OFFCURVE",
"274 425 CURVE SMOOTH",
"291 425 LINE",
"291 450 LINE",
"220 450 LINE",
"220 334 LINE",
"229 334 LINE",
"279 0 LINE"
);
},
{
closed = 1;
nodes = (
"331 0 LINE",
"408 402 LINE SMOOTH",
"411 419 OFFCURVE",
"418 425 OFFCURVE",
"437 425 CURVE SMOOTH",
"452 425 LINE",
"452 450 LINE",
"335 450 LINE",
"335 425 LINE",
"353 425 LINE SMOOTH",
"371 425 OFFCURVE",
"373 409 OFFCURVE",
"369 388 CURVE SMOOTH",
"303 0 LINE"
);
}
);
width = 456;
},
{
layerId = "B25F85BC-C782-4067-8484-07202F80B8CD";
name = Condensed;
paths = (
{
closed = 1;
nodes = (
"209 0 LINE",
"231 109 LINE",
"206 109 LINE",
"172 339 LINE SMOOTH",
"169 357 OFFCURVE",
"168 370 OFFCURVE",
"191 370 CURVE SMOOTH",
"196 370 LINE",
"196 450 LINE",
"-2 450 LINE",
"-2 370 LINE",
"14 370 LINE SMOOTH",
"33 370 OFFCURVE",
"40 364 OFFCURVE",
"43 347 CURVE SMOOTH",
"112 0 LINE"
);
},
{
closed = 1;
nodes = (
"272 0 LINE",
"341 347 LINE",
"341 450 LINE",
"224 450 LINE",
"224 370 LINE",
"230 370 LINE SMOOTH",
"249 370 OFFCURVE",
"255 359 OFFCURVE",
"251 339 CURVE SMOOTH",
"182 0 LINE"
);
},
{
closed = 1;
nodes = (
"431 0 LINE",
"453 109 LINE",
"428 109 LINE",
"391 339 LINE SMOOTH",
"388 357 OFFCURVE",
"389 370 OFFCURVE",
"412 370 CURVE SMOOTH",
"417 370 LINE",
"417 450 LINE",
"296 450 LINE",
"296 201 LINE",
"306 201 LINE",
"332 0 LINE"
);
},
{
closed = 1;
nodes = (
"492 0 LINE",
"563 347 LINE SMOOTH",
"566 364 OFFCURVE",
"573 370 OFFCURVE",
"592 370 CURVE SMOOTH",
"611 370 LINE",
"611 450 LINE",
"445 450 LINE",
"445 370 LINE",
"451 370 LINE SMOOTH",
"469 370 OFFCURVE",
"474 359 OFFCURVE",
"470 339 CURVE SMOOTH",
"404 0 LINE"
);
}
);
width = 613;
},
{
layerId = "B817C739-5D48-43E8-AAEE-CE891513D7BC";
name = "Bold Condensed";
paths = (
{
closed = 1;
nodes = (
"248 0 LINE",
"271 155 LINE",
"246 155 LINE",
"221 319 LINE SMOOTH",
"218 339 OFFCURVE",
"216 358 OFFCURVE",
"231 358 CURVE SMOOTH",
"240 358 LINE",
"240 466 LINE",
"5 466 LINE",
"5 358 LINE",
"21 358 LINE SMOOTH",
"33 358 OFFCURVE",
"41 353 OFFCURVE",
"45 335 CURVE SMOOTH",
"119 0 LINE"
);
},
{
closed = 1;
nodes = (
"317 0 LINE",
"373 335 LINE",
"373 466 LINE",
"256 466 LINE",
"256 358 LINE",
"264 358 LINE SMOOTH",
"278 358 OFFCURVE",
"281 347 OFFCURVE",
"277 319 CURVE SMOOTH",
"229 0 LINE"
);
},
{
closed = 1;
nodes = (
"509 0 LINE",
"532 155 LINE",
"507 155 LINE",
"482 319 LINE SMOOTH",
"478 346 OFFCURVE",
"477 358 OFFCURVE",
"492 358 CURVE SMOOTH",
"501 358 LINE",
"501 466 LINE",
"339 466 LINE",
"339 180 LINE",
"351 180 LINE",
"380 0 LINE"
);
},
{
closed = 1;
nodes = (
"598 0 LINE",
"669 335 LINE SMOOTH",
"673 352 OFFCURVE",
"679 358 OFFCURVE",
"698 358 CURVE SMOOTH",
"714 358 LINE",
"714 466 LINE",
"517 466 LINE",
"517 358 LINE",
"525 358 LINE SMOOTH",
"539 358 OFFCURVE",
"542 348 OFFCURVE",
"538 319 CURVE SMOOTH",
"490 0 LINE"
);
}
);
width = 711;
},
{
background = {
paths = (
{
closed = 1;
nodes = (
"360 343 LINE",
"497 0 LINE",
"531 0 LINE",
"675 398 LINE SMOOTH",
"681 415 OFFCURVE",
"692 421 OFFCURVE",
"715 421 CURVE SMOOTH",
"741 421 LINE",
"741 450 LINE",
"560 450 LINE",
"560 421 LINE",
"618 421 LINE SMOOTH",
"631 421 OFFCURVE",
"638 415 OFFCURVE",
"638 405 CURVE SMOOTH",
"638 401 OFFCURVE",
"637 396 OFFCURVE",
"635 390 CURVE SMOOTH",
"524 69 LINE",
"520 69 LINE",
"396 390 LINE SMOOTH",
"394 395 OFFCURVE",
"393 400 OFFCURVE",
"393 404 CURVE SMOOTH",
"393 415 OFFCURVE",
"401 421 OFFCURVE",
"413 421 CURVE SMOOTH",
"476 421 LINE",
"476 450 LINE",
"265 450 LINE",
"265 421 LINE",
"305 421 LINE",
"322 420 OFFCURVE",
"333 414 OFFCURVE",
"338 398 CURVE SMOOTH",
"340 391 LINE",
"228 69 LINE",
"224 69 LINE",
"101 390 LINE",
"99 394 OFFCURVE",
"98 400 OFFCURVE",
"98 404 CURVE SMOOTH",
"98 416 OFFCURVE",
"106 421 OFFCURVE",
"124 421 CURVE SMOOTH",
"181 421 LINE",
"181 450 LINE",
"-30 450 LINE",
"-30 421 LINE",
"4 421 LINE SMOOTH",
"26 421 OFFCURVE",
"36 415 OFFCURVE",
"43 398 CURVE SMOOTH",
"202 0 LINE",
"236 0 LINE"
);
}
);
};
layerId = UUID0;
name = "Light Extended";
paths = (
{
closed = 1;
nodes = (
"243 0 LINE",
"249 65 LINE",
"225 65 LINE",
"105 382 LINE SMOOTH",
"96 405 OFFCURVE",
"95 421 OFFCURVE",
"122 421 CURVE SMOOTH",
"193 421 LINE",
"193 450 LINE",
"-14 450 LINE",
"-14 421 LINE",
"18 421 LINE SMOOTH",
"40 421 OFFCURVE",
"50 413 OFFCURVE",
"59 389 CURVE SMOOTH",
"209 0 LINE"
);
},
{
closed = 1;
nodes = (
"243 0 LINE",
"395 398 LINE",
"395 450 LINE",
"270 450 LINE",
"270 421 LINE",
"312 421 LINE SMOOTH",
"342 421 OFFCURVE",
"354 402 OFFCURVE",
"344 374 CURVE SMOOTH",
"211 10 LINE"
);
},
{
closed = 1;
nodes = (
"538 0 LINE",
"545 65 LINE",
"521 65 LINE",
"400 390 LINE SMOOTH",
"394 407 OFFCURVE",
"396 421 OFFCURVE",
"421 421 CURVE SMOOTH",
"481 421 LINE",
"481 450 LINE",
"365 450 LINE",
"365 338 LINE",
"377 338 LINE",
"504 0 LINE"
);
},
{
closed = 1;
nodes = (
"538 0 LINE",
"687 398 LINE SMOOTH",
"693 415 OFFCURVE",
"706 421 OFFCURVE",
"724 421 CURVE SMOOTH",
"751 421 LINE",
"751 450 LINE",
"572 450 LINE",
"572 421 LINE",
"627 421 LINE SMOOTH",
"640 421 OFFCURVE",
"650 412 OFFCURVE",
"643 393 CURVE SMOOTH",
"507 10 LINE"
);
}
);
width = 740;
},
{
layerId = "4355E1B8-19E6-44BD-A1D7-6E3C2DECA4C8";
name = Extended;
paths = (
{
closed = 1;
nodes = (
"269 0 LINE SMOOTH",
"304 111 LINE SMOOTH",
"279 111 LINE SMOOTH",
"196 339 LINE",
"189 359 OFFCURVE",
"193 370 OFFCURVE",
"214 370 CURVE",
"248 370 LINE SMOOTH",
"248 450 LINE SMOOTH",
"-3 450 LINE SMOOTH",
"-3 370 LINE SMOOTH",
"33 370 LINE",
"52 370 OFFCURVE",
"57 362 OFFCURVE",
"63 346 CURVE",
"189 0 LINE SMOOTH"
);
},
{
closed = 1;
nodes = (
"331 0 LINE SMOOTH",
"460 347 LINE SMOOTH",
"460 450 LINE SMOOTH",
"309 450 LINE SMOOTH",
"309 370 LINE SMOOTH",
"345 370 LINE",
"360 370 OFFCURVE",
"370 361 OFFCURVE",
"362 339 CURVE",
"241 0 LINE SMOOTH"
);
},
{
closed = 1;
nodes = (
"551 0 LINE SMOOTH",
"586 111 LINE SMOOTH",
"561 111 LINE SMOOTH",
"478 339 LINE",
"472 356 OFFCURVE",
"473 370 OFFCURVE",
"495 370 CURVE",
"530 370 LINE SMOOTH",
"530 450 LINE SMOOTH",
"392 450 LINE SMOOTH",
"392 186 LINE SMOOTH",
"404 186 LINE SMOOTH",
"471 0 LINE SMOOTH"
);
},
{
closed = 1;
nodes = (
"613 0 LINE SMOOTH",
"742 347 LINE",
"748 363 OFFCURVE",
"753 370 OFFCURVE",
"771 370 CURVE",
"810 370 LINE SMOOTH",
"810 450 LINE SMOOTH",
"591 450 LINE SMOOTH",
"591 370 LINE SMOOTH",
"627 370 LINE",
"642 370 OFFCURVE",
"652 360 OFFCURVE",
"644 339 CURVE",
"523 0 LINE SMOOTH"
);
}
);
width = 814;
},
{
layerId = "14C77FDB-037D-4842-9381-6D9ED15DD48C";
name = "Bold Extended";
paths = (
{
closed = 1;
nodes = (
"339 0 LINE",
"382 132 LINE",
"357 132 LINE",
"306 299 LINE SMOOTH",
"300 319 OFFCURVE",
"298 338 OFFCURVE",
"325 338 CURVE SMOOTH",
"345 338 LINE",
"345 480 LINE",
"-5 480 LINE",
"-5 338 LINE",
"34 338 LINE SMOOTH",
"50 338 OFFCURVE",
"59 333 OFFCURVE",
"65 315 CURVE SMOOTH",
"165 0 LINE"
);
},
{
closed = 1;
nodes = (
"475 0 LINE",
"582 315 LINE",
"582 480 LINE",
"375 480 LINE",
"375 338 LINE",
"396 338 LINE SMOOTH",
"418 338 OFFCURVE",
"423 321 OFFCURVE",
"416 299 CURVE SMOOTH",
"319 0 LINE"
);
},
{
closed = 1;
nodes = (
"719 0 LINE",
"762 132 LINE",
"737 132 LINE",
"686 299 LINE SMOOTH",
"680 320 OFFCURVE",
"678 338 OFFCURVE",
"705 338 CURVE SMOOTH",
"725 338 LINE",
"725 480 LINE",
"518 480 LINE",
"518 148 LINE",
"529 148 LINE",
"575 0 LINE"
);
},
{
closed = 1;
nodes = (
"865 0 LINE",
"992 315 LINE SMOOTH",
"999 331 OFFCURVE",
"1007 338 OFFCURVE",
"1025 338 CURVE SMOOTH",
"1057 338 LINE",
"1057 480 LINE",
"755 480 LINE",
"755 338 LINE",
"776 338 LINE SMOOTH",
"798 338 OFFCURVE",
"803 321 OFFCURVE",
"796 299 CURVE SMOOTH",
"699 0 LINE"
);
}
);
width = 1062;
}
);
unicode = 0077;
},
